<svg xmlns="http://www.w3.org/2000/svg" width="729" height="680" viewBox="0 0 729 680">
  <g id="Group_414" data-name="Group 414" transform="translate(-983 -2250)">
    <path id="Path_5286" data-name="Path 5286" d="M20,0H709a20,20,0,0,1,20,20V660a20,20,0,0,1-20,20H20A20,20,0,0,1,0,660V20A20,20,0,0,1,20,0Z" transform="translate(983 2250)" fill="#ffdc5e" opacity="0"/>
    <g id="customer-support" transform="translate(988.005 2014.343)">
      <path id="Path_5252" data-name="Path 5252" d="M254.8,544.9c0-89.417,147.418-225.794,222.262-109.215C568.182,577.616,701.07,460.849,701.07,550.266S556.4,719.028,426.409,719.028,254.8,634.316,254.8,544.9Z" transform="translate(-121.623 0)" fill="#fff"/>
      <path id="Path_5253" data-name="Path 5253" d="M427.4,1274.429a89.268,89.268,0,0,1-4.4-10.254c.091.539.187,1.078.274,1.618.354,3.892.518,7.81.572,11.724a.536.536,0,0,1,.3.2c.7,4.08.964,7.642,2.382,11.228a14.722,14.722,0,0,0,1.164-2.156,17.275,17.275,0,0,0,1.387-6.594,17,17,0,0,0-.107-2.227.829.829,0,0,1,.082-.466Q428.207,1275.98,427.4,1274.429Z" transform="translate(-238.653 -607.761)" fill="#3def65"/>
      <path id="Path_5254" data-name="Path 5254" d="M408.821,1361.926l1.549-.1a39.343,39.343,0,0,1,6.011-8.51,49.426,49.426,0,0,1,11.739-9.92l.009-.005c-.9-.994-1.781-2.005-2.625-3.052a18.184,18.184,0,0,0-3.807,1.459c-4.549,2.205-9.614,7.036-11.594,11.88C408.9,1356.742,408.261,1358.978,408.821,1361.926Z" transform="translate(-228.642 -660.754)" fill="#838894"/>
      <path id="Path_5255" data-name="Path 5255" d="M788.181,994.841c-3.369,5.585-7.614,10.044-13.782,11.516a.537.537,0,0,1,.161.067,59.639,59.639,0,0,1,2.358,6.522c.659,2.11,1.222,4.247,1.671,6.406a10.219,10.219,0,0,1,.055,4.975,1.766,1.766,0,0,1-2.338,1.481,10.555,10.555,0,0,1-2.1-1.761,31.821,31.821,0,0,0-3.851-2.957c-.023.124-.037.248-.064.372-.261,1.557-1.521,2.649-2.512,3.824-.974,1.147-3.419,4.363-4.742,6.285-.4.57-.942,1.433-1.291,2.018.264,2.144.333,4.37.771,6.51a71.228,71.228,0,0,0,3.927,14.7c5.684,13.358,15.4,24.955,19.926,38.793a9.313,9.313,0,0,0,.293.965,49.884,49.884,0,0,0,13.926-11.116,69.5,69.5,0,0,0,5.784-6.77c-.055-.226-.11-.453-.167-.675a37.179,37.179,0,0,1-.518-10.78c.332-5.61,2.066-11.033,3.682-16.407.179-.671,1.462-.924,1.487-.065-.821,2.942-1.753,5.887-2.471,8.865a48.939,48.939,0,0,0-1.176,14.732c.1.86.248,1.734.421,2.6a101.093,101.093,0,0,0,7.315-12.045,123.736,123.736,0,0,0,7.934-17.38,119.394,119.394,0,0,1-5.407-10.8c-4.1-9-7.556-19.217-13.74-26.5a67.066,67.066,0,0,0-11.485-10.661c-1.452-1.058-2.172-1.57-3.677-2.5C788.434,994.986,788.3,994.914,788.181,994.841Z" transform="translate(-474.335 -420.369)" fill="#05c168"/>
      <path id="Path_5256" data-name="Path 5256" d="M428.217,1129c3.434-3.883,8.063-6.227,10.549-10.248q-1.2-1.208-2.357-2.455a1.977,1.977,0,0,1-.707.553,45.864,45.864,0,0,0-9.977,8.28,41.1,41.1,0,0,0-6.41,8.6q2.988-.189,5.977-.366A15.774,15.774,0,0,1,428.217,1129Zm106.1-116.2a15.494,15.494,0,0,1-3.41.392c.172,1.76.3,3.524.4,5.291a64.62,64.62,0,0,1,.174,8.31.755.755,0,0,1,.4-.179.532.532,0,0,1,.467.163c.723.57,1.445,1.142,2.132,1.764,1.033.825,2.308,2.524,2.918,2.927,1.014-2.808-1.348-10.849-2.677-15.3-.236-.783-.473-1.567-.717-2.348a.908.908,0,0,1,.205-.927A1.218,1.218,0,0,1,534.321,1012.8Zm-9.429,23.475c1.493-2.538,3.584-5.114,4.793-7.034.747-1.905.491-6.185.29-9.474-.1-1.851-.218-3.7-.388-5.547-.007-.357-.1-.727-.106-1.087-.228-.017-.448-.021-.681-.047q-1.468-.156-2.9-.452c-.061.191-.149.38-.207.561a14.9,14.9,0,0,1-.943,1.987c.323,2.588.166,5.329.286,7.965a75.374,75.374,0,0,1-.932,14.377C524.368,1037.107,524.63,1036.693,524.892,1036.276Zm-79.668,83.893c.109-.412.362-.818.474-1.213,5.9-12.085,19.287-17.956,30.833-22.734.115-.034.229-.08.344-.125a78.326,78.326,0,0,1-6.79-8.169,37.586,37.586,0,0,0-5.753,1.081,45.534,45.534,0,0,0-27.192,22.776,77.468,77.468,0,0,0,7.331,7.665C444.719,1119.7,444.974,1119.93,445.224,1120.17Z" transform="translate(-236.086 -432.75)"/>
      <path id="Path_5257" data-name="Path 5257" d="M664.815,1124.13c11.091,7.654,23.085,10.621,36.313,8.391a39.864,39.864,0,0,0,12.073-3.961c-.089-.31-.174-.621-.267-.929-3.9-12.742-13.109-25.215-18.682-37.948a75.937,75.937,0,0,1-5.141-22.62.59.59,0,0,1-.433-.3c-.189-.521.218-1.045.3-1.563.378-1.45.829-4.234,1.151-6.346.72-5.811.454-10.909.277-16.518-2.642,3.627-6.434,6.675-11.014,7.186-6.741.661-13.149-2.5-17.712-7.353.041.3.082.61.14.912a29.305,29.305,0,0,0,2.566,7.155c1.411,3.243,3.818,5.986,4.619,9.495a19.838,19.838,0,0,1,.929,4.518.66.66,0,0,1,.094.2c.661,3.936,1.316,7.875,1.687,11.852a95.985,95.985,0,0,1-.482,24.423C669.843,1108.717,667.211,1116.4,664.815,1124.13Z" transform="translate(-404.712 -453.3)" fill="#fff"/>
      <path id="Path_5258" data-name="Path 5258" d="M267.837,865.5q-3.181-7.838-6.088-15.78a113.019,113.019,0,0,1-4.678-13.756c-2.622-10.082-2.7-20.555-2.114-30.886.178-3.369.413-6.735.615-10.1.062-1.1.109-2.2.153-3.3a3.945,3.945,0,0,0-1.206-.294c-4.167.2-5.232,8.657-6.47,14.363-2,10.512-1.85,20.462-.741,30.923.855,7.129,2.581,13.466,6.545,19.6,2.01,3.16,5.157,6.394,7.854,9.653,9.555,13.312,8.941,19.98,22.768,28.08a113.1,113.1,0,0,1-6.89-9.424A122.591,122.591,0,0,1,267.837,865.5Z" transform="translate(-115.85 -278.804)" fill="#11845b"/>
      <path id="Path_5259" data-name="Path 5259" d="M314.455,911.186a84.381,84.381,0,0,1-3.636-12.361c-.849-4.2-1.433-8.44-2.526-12.6-1.79-7.289-5.1-13.849-8.051-21.063a101.085,101.085,0,0,1-3.234-10.2c-.827-3.537-1.306-7.129-2.016-10.685-.864-4.123-1.381-7.737-3.45-11.357-.117-.2-.231-.38-.345-.547-.023.318-.044.635-.05.951-.244,3.969-.593,7.933-.766,11.906-.522,9.19-.091,18.053,2.843,27.14,1.281,4.051,3.563,8.819,5.324,13.238,5.365,13.2,11.716,26.07,21.772,36.645-.433-.671-.861-1.344-1.269-2.026A59.194,59.194,0,0,1,314.455,911.186Z" transform="translate(-146.245 -307.331)" fill="#11845b"/>
      <path id="Path_5260" data-name="Path 5260" d="M1682.774,969.767c-.867.336-1.735.678-2.6,1.019.016.049.03.1.048.145,1.522,4.888,3.193,9.724,4.35,14.751.035.184.095.373.137.562.057-.074.106-.138.167-.216a66.682,66.682,0,0,0,8.382-17.459,24.7,24.7,0,0,0,.889-2.947c-.792.235-1.576.5-2.359.77C1688.767,967.47,1685.761,968.582,1682.774,969.767Z" transform="translate(-1113.341 -400.039)"/>
      <path id="Path_5261" data-name="Path 5261" d="M1593.767,914.26a4.505,4.505,0,0,0,1.751,2.593c1.454.735,3.159.356,5.321-.006,1.788-.375,5.529-1.319,7.908-2.044,3.922-1.189,7.854-2.352,11.818-3.431,1.1-.3,2.211-.59,3.331-.839a.7.7,0,0,1,.122-.023,4.347,4.347,0,0,0-1.086-2.492c-2.551-3.046-8.644-4.984-13.339-6.756-6.229-2.187-13.531-4.685-19.306-6.419a6.925,6.925,0,0,0-3.386-.16c1.713,4.424,3.174,8.913,4.655,13.4C1592.2,909.922,1592.952,912.085,1593.767,914.26Z" transform="translate(-1048.448 -350.583)" fill="#838894"/>
      <path id="Path_5262" data-name="Path 5262" d="M1100.186,940.28c-1.365-5.281-3.145-10.472-5.068-15.958a55.424,55.424,0,0,1-9.753,2.73c-4.657.745-5.609-2.087-6.728-6.214-.688-2.29-1.323-4.541-1.94-6.771a.712.712,0,0,1-.155.086c-5.378,2.117-10.629,4.044-15.174,6.967,0,.152-.006.3,0,.454.468,7.906,11.554,13.711,19.093,16.6,3.735,1.4,7.359,2.418,11.457,3.656a9.545,9.545,0,0,0,5.921.248,4.579,4.579,0,0,0,2.572-1.6A.474.474,0,0,1,1100.186,940.28ZM916.518,1058.257a.983.983,0,0,1-.162.281,5.072,5.072,0,0,0,1.709,3.545c3.977,2.744,10.782,1.222,16.492.436,7.432-1.233,14.882-2.362,22.3-3.7,8.906-1.633,17.525-4.527,26.7-6.826,7.5-1.931,16.012-3.222,22.875-4.969,2.961-.645,4.079-1.164,5.876-3.468,2.325-2.614,4.1-7.56,5.146-11.948q1.471-5.665,2.947-11.328c-.451-.257-.3-1.027.166-1.277a.891.891,0,0,1,.185-.082q.8-3.092,1.6-6.186c2.78-11.587,6.29-22.969,9.529-34.428.815-3.022,1.694-6.008,2.192-8.593.259-1.766.39-1.947-.58-2.576-1.561-.7-3.787-.432-6.031.023a1.345,1.345,0,0,1-.91.191c-.271.06-.543.12-.811.181a.541.541,0,0,1-.594-.346,19.288,19.288,0,0,0-3.529-.122.722.722,0,0,1-.081-.012q-2.912.11-5.819.32c-9.715.7-19.454,1.1-29.105,2.507-8.035.989-16.1,1.852-24.014,3.623-4.387,1.008-9.8,2.219-13.559,4.857-3.27,2.044-4.7,4.955-6.381,8.88-2.277,5-4.407,10.065-6.572,15.116-3.753,9.137-6.788,18.561-10.182,27.838C922.484,1039.456,918.931,1048.665,916.518,1058.257Zm153.737-159.432c-.845,1.4-1.8,2.753-2.568,4.195-1.5,2.649-3.044,5.744-4.579,8.878a16.018,16.018,0,0,0-1.628,4.325c4.456-2.487,9.552-3.97,14.41-5.665-1.342-4.2-2.613-8.311-4.159-12.456a5.817,5.817,0,0,1-1.286.731A.564.564,0,0,1,1070.255,898.826ZM851.549,1064.7c-.25.077-.5.149-.754.225.5.055,1,.1,1.509.135,4.442.257,8.889.5,13.347.588,15.969.334,33.088-.143,49.648.9a2.922,2.922,0,0,1-.338-.525,1.24,1.24,0,0,1-.013-1.344,4.9,4.9,0,0,1-2.8-2.5c-11.527.24-23.045.648-34.58.713-6.666.057-13.383.282-20-.39C855.614,1063.286,853.612,1064.023,851.549,1064.7Zm52.51-59.147c-.914,1.793-1.849,3.58-2.819,5.349a36.976,36.976,0,0,1,5.895-2.523c-1.062-.929-2.06-1.917-3.021-2.936Z" transform="translate(-536.293 -353.061)"/>
      <path id="Path_5263" data-name="Path 5263" d="M665.611,1110.36c-9.145,1.987-18.089,4.709-27.26,6.593-9.42,1.829-18.971,3.006-28.457,4.492-4.379.507-11.373,1.918-15.969.357a2.992,2.992,0,0,0,.09.435l0,.006c.63,1.846,2.85,2.92,4.482,3.344,1.918.45,3.712.159,5.988-.094,4.047-.539,8.047-1.337,12.053-2.087,12.234-2.289,24.347-5.132,36.644-7.132,6.532-1.151,13.1-2.091,19.7-2.89,6.126-.763,16.6-2.044,10.342-5.563a.575.575,0,0,1-.263-.776C676.941,1108.273,670.646,1109.219,665.611,1110.36ZM543.3,1113.588c-1.937,1.012-3.919,1.982-5.973,2.878,2.625.211,5.866.307,7.543.312,14.854,0,29.694-.44,44.535-.792a5.237,5.237,0,0,1-.071-.617c-.074-.333.28-.591.671-.688.206-.5.413-1,.614-1.494-.206-.034-.413-.089-.611-.122-1.377-.277-2.741-.586-4.073-.955-.392-.113-.78-.233-1.168-.354-5.013.247-10.133.126-15.172.4-8.661.4-17.3.975-25.951,1.469A.85.85,0,0,1,543.3,1113.588Zm-148.934-99.741a28.574,28.574,0,0,1,3.068-6.8.413.413,0,0,1-.057-.118c-.094-.525-.19-1.051-.27-1.577a37.424,37.424,0,0,1-.344-7.008c.226-6.026,1.158-12.023,1.2-18.056,0-.067,0-.134,0-.2-.021.018-.047.034-.066.052a20.287,20.287,0,0,0-3.468,3.877,45.585,45.585,0,0,0-4.143,6.924c.122.581.095,1.115-.588,1.3-2.844,6.6-3.557,13.787.637,20.083,1.04,1.657,2.143,3.288,3.27,4.906C393.82,1016.095,394.063,1014.966,394.366,1013.846Z" transform="translate(-213.863 -410.103)" fill="#05c168"/>
      <path id="Path_5264" data-name="Path 5264" d="M133.981,813.073c6.287,4.216,13.456,7.11,19.025,12.37,6.3,5.851,10.369,14.784,17.9,18.467-.086-.456-.17-.913-.263-1.367-1.952-6.212,5.85-2.545,8.516-1.261,1.822.859,3.65,1.754,5.462,2.694a17.692,17.692,0,0,0-2.386-7.916c-5.957-9.488-18.359-13.786-29.271-17.437a182.606,182.606,0,0,1-29.956-14.814c.729.672,1.433,1.371,2.155,2.051A83.926,83.926,0,0,0,133.981,813.073Zm71.06-48.616a126.845,126.845,0,0,0-.7,35.177c.219,2.123.463,4.243.743,6.356a53.691,53.691,0,0,1,3.158-6.89c-.16-.26-.069-.68-.106-.992-.033-1.72.067-3.439.2-5.151a74.306,74.306,0,0,1,1.926-11.521.767.767,0,0,1,.056-.123c-.247-3.013-.553-6.041-.891-9.07a26.576,26.576,0,0,1,.545-7.768A15.15,15.15,0,0,1,211,760.882c-.027-1.3.113-2.624.182-3.927a102.275,102.275,0,0,1,2.226-15.39c1.206-5.13,2.988-10.483,3.126-15.061a5.994,5.994,0,0,0-.391-2.169,13.18,13.18,0,0,0-.833,1.531,68.042,68.042,0,0,0-3.356,8.513A254.478,254.478,0,0,0,205.041,764.457Z" transform="translate(-29.927 -232.16)" fill="#838894"/>
      <path id="Path_5265" data-name="Path 5265" d="M207.5,776.829a141.469,141.469,0,0,1-1.662-31.387,211.331,211.331,0,0,1,2.8-22.944c1.773-10.131,3.409-20.817,7.721-29.871a4.192,4.192,0,0,0-1.5,1.343c-2.371,3.133-4.139,7.229-5.912,11.433a133.644,133.644,0,0,0-8.385,30.728,94.163,94.163,0,0,0-.6,20.323c.491,5.124,1.659,10.13,2.362,15.219.933,5.9,1.265,12.889,3.111,17.921A15.316,15.316,0,0,0,207.8,794.5a46.483,46.483,0,0,1,1.408-7.624C208.548,783.55,208.01,780.191,207.5,776.829Zm104.253.842a5.194,5.194,0,0,0,3.552-.914c.249-.19.709-.686.692-2.245.142-1.609-1.779-3.5-4.289-4.234a11.048,11.048,0,0,0-3.97-.1,10.238,10.238,0,0,1,2.981,3.112,3.172,3.172,0,0,1-.607,4.005A4.263,4.263,0,0,0,311.749,777.67ZM173.4,820.37l-.035-.012a11.236,11.236,0,0,1-1.824-.784c-5.71-3.151-9.179-8.715-13.3-13.466a38.721,38.721,0,0,0-9.106-7.606c-3.861-2.413-8.089-4.231-11.858-6.789a67.471,67.471,0,0,1-7.555-5.893c.017.03.036.058.053.087,1.258,2.27,2.189,4.69,3.287,7.033a49.7,49.7,0,0,0,6.805,10.986c5.334,6.792,12.165,12.181,18.817,17.7,5.35,4.232,12.1,11.255,18.633,12.808a14.023,14.023,0,0,1-.956-1.969C174.739,828.588,174.137,824.462,173.4,820.37Zm31.428,49.284a97.464,97.464,0,0,0-4.908-15.486,94.7,94.7,0,0,0-10.9-19.033,77.676,77.676,0,0,0-7.851-9.849c.427,2.479.714,4.99,1.135,7.471a36.487,36.487,0,0,0,2.381,8.78c.2.448.429.88.66,1.308a.479.479,0,0,1,.209.386c.993,1.773,2.135,3.436,3,5.307,1.313,2.864,2.1,6,3.266,8.948a56.134,56.134,0,0,0,5.11,9.767,71.964,71.964,0,0,1,6.685,13.863c1.347,3.682,2.327,10.884,5.068,11.546q-.452-2.268-.829-4.555C206.864,881.951,206.157,875.727,204.829,869.654Z" transform="translate(-34.601 -210.099)" fill="#11845b"/>
      <path id="Path_5266" data-name="Path 5266" d="M350.907,1188.954a46.709,46.709,0,0,0,1.142-15.061c-.239-2.834-.9-5.571-1.363-8.351-1.065-5.608-2.038-10.635-4.254-15.788-3.965-8.773-11.086-14.184-18.427-18.62-1.783-1.057-3.4-2.153-5.105-2.442a2.145,2.145,0,0,0-.281-.031l-.068,0c-.012,0-.025.005-.037.007,3.883,3.656,6.812,8.733,9.907,13.405a91.648,91.648,0,0,1,12.5,31.157c1.348,6.66,1.95,13.513,3.067,20.234.081.489.169.994.26,1.5l.028-.014a2.475,2.475,0,0,0,.631-.559C349.79,1193.36,350.289,1191.154,350.907,1188.954Z" transform="translate(-168.734 -513.475)" fill="#838894"/>
      <path id="Path_5267" data-name="Path 5267" d="M610.818,740.753c2.962,2.841,6.211,5.355,9.371,7.971,1.982,1.627,3.774,3.4,5.747,3.8,1.426.029,2.88-1.038,1-3.406-1.268-1.65-4.115-3.19-6.308-4.884-5.693-4.527-11.9-8.6-16.793-14.011a11.785,11.785,0,0,1-2.531-6.838c.061-.763-.217-1.921.195-2.626-.781-.577-1.547-1.176-2.325-1.758a14.367,14.367,0,0,0-4.135-2.112c-1.076-.245-1.124-.081-1.233,0-1.211,1.045-.743,4.094.849,6.762C598.161,730.44,605.13,735.165,610.818,740.753Zm-11.288-53.643A53.28,53.28,0,0,1,619.32,664.8c1.955-1.219,3.954-2.435,6.014-3.543a2.422,2.422,0,0,0-.438-.341,16.444,16.444,0,0,0-5.374-2.555c-7.439-2.065-16.206,1.507-21.726,7.146a23.584,23.584,0,0,0-5.707,13,35.059,35.059,0,0,0-.514,6.239q.053,1.541.173,3.079a.951.951,0,0,1-1.247.943.547.547,0,0,1-.318-.413c-.027-.342-.043-.685-.065-1.028a7.031,7.031,0,0,0-1.166,1.914,19.342,19.342,0,0,0-.666,15.225c.964,2.559,1.889,4.886,3.728,6.553a42.037,42.037,0,0,1,1.563-9.387A72.8,72.8,0,0,1,599.529,687.111Zm52.845-22.831c-1.071.277-2.247.22-3.329.5a54.06,54.06,0,0,0-6.884,1.808c-11.083,3.608-21.285,9.886-27.565,18.76A49.954,49.954,0,0,0,608.5,697.3c.38.072.754.169,1.068.231a16.075,16.075,0,0,1,5.788,3.245,22.208,22.208,0,0,1,6.487,10.11c.495-1.2,1.64-2.06,2.5-3.045a11.946,11.946,0,0,0,3.085-7.066,37.309,37.309,0,0,1,.914-5.824,8.568,8.568,0,0,1,4.875-5.387c4.09-1.6,9.6.665,12.815,1.615a63.007,63.007,0,0,0,15.7,1.9c3.753.067,9.052-.073,12.768-1.7,6.78-3.236,14.06-9.492,14.953-16.834,1.546-8.006-3.81-14.387-12.06-15.862a28.4,28.4,0,0,0-17.376.969,10.9,10.9,0,0,0-4.494,2.489,6.063,6.063,0,0,0-.78,1.028,1.776,1.776,0,0,1-.792.9,8.417,8.417,0,0,0-.559,2.869c-.054.558-.859,1.066-1.359.641-.328-.361-.084-.894-.1-1.325A9.986,9.986,0,0,1,652.374,664.28Z" transform="translate(-352.773 -185.848)"/>
      <path id="Path_5268" data-name="Path 5268" d="M615.629,690.411a72.3,72.3,0,0,0-5.656,14.177,38.17,38.17,0,0,0-1.427,10.767.5.5,0,0,1,.012.082s0,.009,0,.014c.015.189.032.376.055.555a.619.619,0,0,1-.006.211,2.4,2.4,0,0,1,.568-.156c3.512-.041,6.21,2.511,8.915,4.391,0-1.3.123-2.6.2-3.9a65.767,65.767,0,0,1,2.993-15.781.831.831,0,0,1,.351-1.051,49.265,49.265,0,0,1,10.7-18.035c8.847-9.181,21.633-15.321,34.5-17.323.059-.008.119-.011.179-.016A11.465,11.465,0,0,0,664,662.613c-4.654-2.165-11.357-1.691-16.024-.783-5.258,1.5-9.794,4.367-14.623,7.521C625.6,674.37,619.43,682.332,615.629,690.411Z" transform="translate(-367.72 -188.14)" fill="#3def65"/>
      <path id="Path_5269" data-name="Path 5269" d="M656.023,826.469a14.046,14.046,0,0,0,1.625-.539,11.288,11.288,0,0,0,4.957-3.524,14.642,14.642,0,0,0,3.59-12.277c-1.009-6.8-5.677-14.852-12.165-16.192-.255.879-.489,1.766-.709,2.656a3.271,3.271,0,0,1,.943.189,11.387,11.387,0,0,1,5.467,5.941c2.835,7.261.443,12.789-3.442,18.888-.677,1.055-1.358,2.11-2.1,3.117-.092.126-.2.277-.311.424.521.524,1.05,1.038,1.594,1.537A1.184,1.184,0,0,1,656.023,826.469Z" transform="translate(-398.899 -280.587)" fill="#3def65"/>
      <path id="Path_5270" data-name="Path 5270" d="M428.272,864.594c-.272.924-.511,2.26-.579,2.607a28.175,28.175,0,0,0-.279,8.8,185.527,185.527,0,0,1,1.026,26.008c-.206,7.078-1.074,13.9-.423,20.665q.7-1.658,1.486-3.246a54.85,54.85,0,0,1,6.865-10.9c-.081-.424,0-1.076-.075-1.44a48.07,48.07,0,0,0-1.735-9.876c-1.64-6.118-4.642-11.58-5.381-18.1-.588-4.69-.333-9.49-.849-14.183C428.292,864.736,428.281,864.651,428.272,864.594Z" transform="translate(-241.57 -329.748)" fill="#838894"/>
      <path id="Path_5271" data-name="Path 5271" d="M412.483,991.157a86.76,86.76,0,0,0-1.11,25.849,84.78,84.78,0,0,0,9.028,32.506,74.3,74.3,0,0,0,8.769,13.769,33.721,33.721,0,0,1,2.225-3.748c7.685-11.335,19.7-20.15,33.2-21.921a79.711,79.711,0,0,1-8.814-16.377,46.148,46.148,0,0,1-2.668-10.937q-.213-1.56-.367-3.128a1.3,1.3,0,0,1,.393-1.432.659.659,0,0,1,.928.1c.18.232.1.553.159.829a56.6,56.6,0,0,0,2.05,11.141c5.121,15.479,16.177,28.962,28.468,38.153,2.4-7.877,4.854-15.375,6.143-23.139,1.842-12.057.949-23.536-1.037-35.539a.978.978,0,0,1-.527-.119,4.753,4.753,0,0,1-1.448-1.719,53.381,53.381,0,0,1-2.4-5.3c-.493-1.406-.629-1.7-1.426-1.839-3.559-.1-7.792,1.515-11.968,2.661-2.452.6-5.087,2.131-7.613,1.186a3.168,3.168,0,0,1-1.59-2.58c-.224-1.436-.387-2.882-.577-4.323-.55-4.293-1.1-8.589-1.416-12.908a136.317,136.317,0,0,1-.46-14.66c.124-4.121.816-8.334,3.339-11.668l.075-.1a3.506,3.506,0,0,0-.694.084c-9.256,1.5-17.91,5.845-25.949,11.571C426.039,965.416,415.873,978.145,412.483,991.157Z" transform="translate(-230.233 -386.322)" fill="#05c168"/>
      <path id="Path_5272" data-name="Path 5272" d="M588.616,930.8a214.789,214.789,0,0,0,1.754,22.014c.376,2.3.406,5.764,1.215,6.728,1.2,1.214,4.054-.127,6.785-.966,2.579-.841,5.179-1.611,7.8-2.278a12.45,12.45,0,0,1,4.756-.513c1.374.233,1.8,1.776,2.2,3.009.658,1.7,1.385,3.384,2.186,5.013.073.128.145.248.215.362-.069-.42-.173-.875-.277-1.441a33.246,33.246,0,0,0-1.362-4.815,41.117,41.117,0,0,0-2.322-4.446,61.449,61.449,0,0,1-2.618-6.14A24.163,24.163,0,0,1,607.5,941.1a4.688,4.688,0,0,1,0-1.251,1.069,1.069,0,0,1,.151-.281,27.941,27.941,0,0,1-2.732-4.591,37.835,37.835,0,0,1-3.031-12.764,88.134,88.134,0,0,1-.02-15.547,1.008,1.008,0,0,1,.395-.686q-.6-.594-1.2-1.2c-.189.107-.41.156-.6.266l-.1.047c.062-.03.114-.054-.119.067-4.3,2.646-7.99,7.623-10.1,11.832C588.4,920.861,588.589,926.783,588.616,930.8Z" transform="translate(-353.866 -357.71)"/>
      <path id="Path_5273" data-name="Path 5273" d="M1198.982,620a57.029,57.029,0,0,0-9.5-12.792,46.908,46.908,0,0,0-9.158-6.4c-11.081-6.418-24.166-7.9-37.565-6.493a134.714,134.714,0,0,0-30.148,6.045,126.29,126.29,0,0,0-33.118,16.933c-6.408,4.823-12.294,9.295-16.706,15.53-7.379,10.544-10.707,24.3-12.9,37.609-1.393,8.4-.381,17.923,1.561,26.55.974,4.293,2.3,8.5,3.329,12.783.451,1.884.808,3.786,1.123,5.694.056-.049.116-.1.166-.148,3.753-3.172,9.937-5.333,14.342-2.136,1.648,1.862,1.144,4.651-.413,6.418-.053.068-.114.129-.169.2.164-.012.327-.031.492-.032a6.238,6.238,0,0,1,4.208,1.522c1.92,1.934,1.211,4.323-.331,6.231a15.1,15.1,0,0,1-1.375,1.7,3.712,3.712,0,0,1,1.286.932c1.861,2.982.615,6.226-1.444,8.893,2.2,1.239,2.692,3.219,2,5.6-.908,3.7-3.464,6.553-6.562,8.812.042.006.083.016.125.02,3.894-.282,6.235-6.72,8.486-11.625,2.122-4.618,4.277-9.405,8.016-13.066,4.085-3.966,9.763-5.631,15.287-6.888,6.2-1.36,12.491-2.324,18.779-3.249,18.05-2.755,36.991-5.76,51-16.279,11.857-8.73,20.186-19.921,26.764-32.768C1204.969,653.759,1206.46,636.056,1198.982,620Z" transform="translate(-674.363 -141.364)" fill="#3def65"/>
      <g id="Group_451" data-name="Group 451" transform="translate(79.995 411.608)">
        <path id="Path_5274" data-name="Path 5274" d="M1246.373,657.183c4.3-1.516,6.652-5.8,4.626-10.081a9.455,9.455,0,0,0-1.471-2.152c.214-.306.405-.637.643-.915a19.6,19.6,0,0,1,1.843-2.212,10.926,10.926,0,0,1,8.389-3.776c5.867-.174,8.014,4.695,7,9.67a29.228,29.228,0,0,1-2.585,7.969,38.787,38.787,0,0,1-4.43,7.756c-2.583,3.5-5.748,6.515-8.346,10-3.251,4.376-5.838,9.612-5.594,15.186a46.131,46.131,0,0,0,1.987,12,11.143,11.143,0,0,0,3.982,6.08c1.762,1.43,4.078,1.091,6.041.286a5.537,5.537,0,0,0,3.514-5.867c-.211-2.58-1.1-5.04-1.647-7.558-1.215-5.215-2.194-10.939-.468-15.125,1.475-4.455,5.677-7.8,9.407-10.166a47.241,47.241,0,0,0,6.887-4.761,25.693,25.693,0,0,0,3.658-4.767c5.137-7.249,5.139-15.918,1.784-23.925a22.5,22.5,0,0,0-21.148-14.488c-10.138-.151-18.934,7.147-23.5,15.769-2,3.586-3.172,7.719-2.366,11.819C1235.314,653.8,1239.886,659.939,1246.373,657.183Zm-9.343-17.989c2.994-6.84,7.664-12.258,14.4-15.365a21.323,21.323,0,0,1,28.456,11.237c2.917,6.8,3.62,14.048.4,20.071-1.583,2.873-3.4,5.955-5.666,7.834-4.74,3.678-11.256,6.371-14.8,12.211-3.761,6-2.389,13.28-.835,19.766.91,3.769,2.33,7.69.73,9.5-.535.784-2.782,1.685-4.392,1.65-3.357-.569-5.268-4.794-6.2-9.025-.965-5.134-1.956-10.175-.147-15.19,1.808-5.907,7.4-11.25,11.88-16.765a45.531,45.531,0,0,0,7.686-15.5,17.481,17.481,0,0,0,.375-7.241,7.539,7.539,0,0,0-6.615-5.861,13.292,13.292,0,0,0-7.089,1.121,15.977,15.977,0,0,0-4.421,3.442,23.645,23.645,0,0,0-2.279,2.864c-.136-.121-.267-.248-.408-.364-.413-.335-.915-.909-1.46-.481a.874.874,0,0,0-.247,1.345c4.638,3.206,4.913,8.467,1.254,10.474-3.5,2.2-6.637,1.519-9.065-1.339A14.987,14.987,0,0,1,1237.03,639.193Z" transform="translate(-883.127 -571.404)" fill="#fff"/>
        <path id="Path_5275" data-name="Path 5275" d="M1293.681,922.059c-.05.036-.105.072-.157.108a.715.715,0,0,0-.631.035,12.871,12.871,0,0,0-5.857,4.493c-1.71,2.683-1.952,6.639.418,9.011a9.568,9.568,0,0,0,6.99,2.908,14.271,14.271,0,0,0,7.751-3.655c2.99-2.8,2.743-7.967.252-11.013C1300.258,921.4,1296.684,920.052,1293.681,922.059Zm5.05,13.611c-1.784.785-3.065,1.42-4.812,1.324a8.5,8.5,0,0,1-5.882-3.326,6.032,6.032,0,0,1,.8-7.053,11.088,11.088,0,0,1,3.164-2.359.6.6,0,0,0,.679.278c.526-.172.844-.7,1.319-.973a4.418,4.418,0,0,1,.974-.533c.066-.027.133-.051.2-.077-.025.008-.016,0,.035-.013l.1-.04c-.034.015-.058.024-.082.033l.047-.015c2.215-.828,4.868.779,6.293,2.7a8.159,8.159,0,0,1,1.259,4.207C1302.884,932.693,1301.515,934.2,1298.731,935.67Z" transform="translate(-918.889 -780.665)" fill="#ebf2ff"/>
        <path id="Path_5276" data-name="Path 5276" d="M1315.691,896.58l-.035.013.055-.02Z" transform="translate(-939.721 -763.606)"/>
        <path id="Path_5277" data-name="Path 5277" d="M594.177,797.685c-15.282-2.539-30.9-2.467-46.223-4.733a29.316,29.316,0,0,1-6.675-1.911,7.9,7.9,0,0,1-3.149-1.685c-.929-.71,2.064-2.991,5.211-4.027,7.232-2.18,14.812-3.792,21.321-7.784,5.5-3.79-.223-6.579-4.43-7.394-12.695-1.488-25.571-.9-38.336-1.229-9.577-.135-18.4-.1-27.652-.541-1.369-.088-2.737-.193-4.1-.3.686-2.6,1.374-5.207,2.041-7.815,2.551-10.419,5.686-20.678,8.7-30.97,1.1-3.833,2.215-7.665,3.148-11.543.491-2.082,1.41-5.011-1.281-5.915-2.458-.746-5.052-.287-7.509.234-.025.008-.054.011-.079.018-.227-.019-.453-.027-.63-.062-.994-.111-1.99-.2-2.989-.225a6.026,6.026,0,0,0-1.334-.017q-3.013.1-6.021.312c-8.231.663-16.5.874-24.7,1.828-10.995,1.4-22.074,2.352-32.919,4.714-5.518,1.263-11.3,2.508-15.934,5.935-4.362,2.919-5.986,8.09-8.124,12.619-2.983,6.752-6.063,13.473-8.632,20.4q-2.078,5.806-4.2,11.6c-6.174-4.761-12.826-8.97-18.136-14.752-.6-.636-1.166-1.269-1.718-1.9a183.379,183.379,0,0,0,7.766-18.682c1.145-3.384,2.315-6.786,3.221-10.237a64.467,64.467,0,0,0,7.481-3.1,46.318,46.318,0,0,0,4.4-2.54,4.527,4.527,0,0,0,3.721-.175c3.648-2.123,5.321-6.237,6.95-9.928,3.6-8.5,6.9-17.113,14.588-20.8,4.1-2.021,9.253-3.131,14.247-4.18,7.876-1.6,15.853-2.606,23.769-3.972,19.056-3.469,36.447-7.753,50.828-21.62,9.134-8.383,16.207-18.74,21.739-29.786,8.85-16.672,11.7-35.745,4.928-53.691-1.477-4.634-4.253-8.672-7.061-12.589a42.279,42.279,0,0,0-13.686-12.113c-11.633-7.27-25.622-9.064-39.074-7.68A128.409,128.409,0,0,0,403.81,568.4a88.587,88.587,0,0,0-13.887,13.072c-8.3,10.657-11.914,24.018-14.571,37.047a92.735,92.735,0,0,0-2.052,17.657,99.391,99.391,0,0,0,1.9,17.238c-3.153.493-5.4,3.544-6.513,6.372a24.632,24.632,0,0,0-2.029,9.929c.262,6.509,3.787,9.291.549,14.681-2.695,4.771-6.656,8.729-9.041,13.7a39.755,39.755,0,0,0-3.9,11.291,25.306,25.306,0,0,0-.223,2.8,1.042,1.042,0,0,0-.8.856c-.2,3.585-1.254,6.268-2.272,9.892-.072.24-.154.478-.228.718-.629-1.217-1.246-2.44-1.835-3.677-5.642-11.4-8.814-24.13-16.453-34.469a68.946,68.946,0,0,0-12.575-12.546c-1.4-1.088-2.843-2.137-4.348-3.085a2.02,2.02,0,0,0-.2-.138q.37-.694.728-1.4c2.7-5.738,3.444-12.187,3.831-18.454.552-8.24.032-16.486-.205-24.727-.094-4.669-.365-9.331-.9-13.971a23.473,23.473,0,0,0,4.7-1.239,34,34,0,0,0,11.29-8.275,21.807,21.807,0,0,0,6.358-13.541,18.572,18.572,0,0,0-1.591-9.117,16.716,16.716,0,0,0-9.679-7.713c-5.28-1.541-10.989-2.319-16.395-.98-3.926,1.161-8.516,2.2-10.971,5.772-.026.047-.062.1-.095.157a.943.943,0,0,0-.371.153c-.846-1.575-4.442-3.009-5.6-3.407-5.049-1.7-10.605-1.249-15.746-.192a35.538,35.538,0,0,0-6.494,2.745c-9.07-8.252-22.64-3.789-30.12,4.43a27.219,27.219,0,0,0-6.189,14.327,39.128,39.128,0,0,0-.615,8.284c-2.776,2.235-3.463,6.14-4.238,9.451a22.4,22.4,0,0,0,1.354,12.543,16.226,16.226,0,0,0,3.836,6.647c.354.307.7.663,1.081.941.013.192.015.383.032.575a.577.577,0,0,0,.478.475,4.412,4.412,0,0,0-.833,1.614c-.915,3.914,1.718,7.567,3.761,10.681a33.635,33.635,0,0,0,4.441,5.111c-3.744,1.846-6.637,5.04-9.187,8.335a.581.581,0,0,0-.073-.053c-3.733.057-7.45,1.32-10.995,2.466a79.631,79.631,0,0,0-23.7,13.388q-1.215.975-2.382,2c-.012-.13-.022-.258-.025-.377a42.127,42.127,0,0,0-.519-4.283c-1.293-7.781-4.811-14.9-8.273-21.9-3.136-6.335-3.86-12.989-4.089-20.255-.227-1.445.2-9.3-1.689-9.848a6.3,6.3,0,0,1,.034-1.1c.11-1.912.276-3.82.483-5.723a97.706,97.706,0,0,1,3.094-16.538c1.285-4.338,2.718-8.637,3.64-13.072.549-2.449,1.016-5.064.2-7.506a2.318,2.318,0,0,0-3.27-1.444c-1.965.681-3.373,2.329-4.681,3.87a82.071,82.071,0,0,0-8.179,12.783c-9.963,19.024-16.838,41-13.177,62.6.693,4.833,1.341,9.676,1.729,14.544a53.266,53.266,0,0,0,2.093,13.153c.779,2.414,1.626,4.915,3.424,6.777a.694.694,0,0,0,.779.287A28.044,28.044,0,0,0,175,705.556c1.352,2.664,2.814,5.271,4.324,7.848a.572.572,0,0,0,.38.3,91.331,91.331,0,0,0-.376,17.045c-.929-5.2-1.478-10.451-2.3-15.665a3.949,3.949,0,0,0-.263-1.135c-.323-.473-1.066-.2-1.313.229-.371.913.267,2.269.289,3.276.048.406.107.811.157,1.217-.027-.054-.058-.107-.083-.161-1.457-2.544-2.745-5.179-4.01-7.823a66.261,66.261,0,0,1-4.126-11.6c-2.446-8.325-3.1-17.012-5.025-25.45-1.943-8.761-5.446-17.036-8.577-25.412a108.625,108.625,0,0,1-4.55-17.457c-1.152-6.729-1.837-13.6-3.864-20.142-.758-2.016-1.415-4.251-2.989-5.79a4.491,4.491,0,0,0-5.3-.346c-2.041,1.225-3.153,3.419-3.9,5.6a86.826,86.826,0,0,0-2.2,8.876,107.92,107.92,0,0,0-1.979,29.046c.413,7.887,1.209,15.929,4.258,23.287,2.391,6.607,6.991,12,11.578,17.193a52.843,52.843,0,0,1,5.78,8.707c2.7,4.621,5.03,9.494,8.3,13.755a39.625,39.625,0,0,0,11.653,9.856c1.525.8,2.975,1.871,4.537,2.533.009,0,.017,0,.026,0,.133.148.256.305.39.453a.694.694,0,0,0,.79.084q.924,6.267,2.137,12.484a44.7,44.7,0,0,0-2.906-6.206c-5.152-8.758-13.416-14.679-22.235-19.421a.778.778,0,0,0,0-.188c-.271-3.981-1.145-8.025-3.511-11.316-4.868-7.015-12.684-11.138-20.336-14.461-4-1.674-8.22-2.735-12.248-4.333a222.359,222.359,0,0,1-26.693-12.618c-2.95-1.512-5.544-3.655-8.562-5.028a2.153,2.153,0,0,0-1.466-.24,1.177,1.177,0,0,0-.686,1.582,63.047,63.047,0,0,1,4.039,5.469c2.315,3.59,3.643,7.688,5.478,11.522,3.86,8.484,9.98,15.673,16.53,22.21,5.92,5.428,12.173,10.485,18.164,15.834,4.076,3.574,8.26,7.149,13.106,9.642a14.97,14.97,0,0,0,5.268,1.657c.078,0,.159.013.239.022a69.723,69.723,0,0,1,4.307,6.614c2.585,5.458,4.294,11.34,7.721,16.382,4.443,6.408,9.231,12.825,12.353,20.491,1.313,3.224,2.138,6.625,3.491,9.834.739,1.759,1.678,3.619,3.415,4.569a3.085,3.085,0,0,0,1.72.407.772.772,0,0,0,.365-.174c.434,1.751.9,3.492,1.442,5.214A29.511,29.511,0,0,0,179.3,797.9a.558.558,0,0,0,.322.27,22.047,22.047,0,0,0-1.156,4.323,13.3,13.3,0,0,0,.082,3.393l-.076,0c-8.969.587-17.935,1.323-26.852,2.467-5.593.943-11.474,1.877-16.3,5.031-12.212,8.686,3.617,12.753,11.3,14.177,17.583,3.671,35.46,5.7,53.159,8.721,10.832,1.773,22.7,3.657,32.541,6.872,2.068.582,6.028,2.084,6.7,2.722,2,2.7-2.731,4.55-7.005,5.956-8.381,2.275-18.261,3.728-27.392,5.678-6.651,1.419-13.471,2.427-19.831,4.906-7.427,4.651,12.606,3.464,14.421,3.534,25.187-.538,50.366-1.382,75.554-1.857,26.574-.331,53.166-.548,79.687-2.428,18.631-1.216,37.257-2.5,55.871-3.963,16.355-1.307,32.782-2.672,48.837-6.183,7.178-1.878,23.794-5.774,18.161-16.151-1.11-1.535-2.628-2.727-3.745-4.264-.443-.49-.841-1.339-.91-1.232a.832.832,0,0,1-.138-.4c1.449-2.937,10.8-2.63,16.418-3.077,9.9-.482,19.8-.955,29.661-1.925,18.281-1.847,36.634-3.891,54.521-8.211,7.06-1.681,14.219-3.332,20.742-6.607a19.626,19.626,0,0,0,5.595-4.094,3.286,3.286,0,0,0,1.1-2.426C599.918,800.2,596.939,798.345,594.177,797.685Zm-446.8-109.209c-2.967-3.635-6.43-7.243-8.64-10.768-4.361-6.839-6.26-13.907-7.2-21.859-1.221-11.669-1.38-22.768.815-34.493,1.361-6.365,2.534-15.8,7.117-16.022a4.289,4.289,0,0,1,1.327.329c-.049,1.229-.1,2.457-.169,3.685-.221,3.757-.481,7.511-.676,11.27-.641,11.524-.559,23.206,2.325,34.452a127.3,127.3,0,0,0,5.147,15.344q3.18,8.865,6.7,17.6a137.427,137.427,0,0,0,10.724,21.27,126.051,126.051,0,0,0,7.58,10.512C157.215,710.765,157.891,703.326,147.379,688.476Zm3.031-14.783c-1.943-5.526-4.458-11.488-5.872-16.554-3.236-11.363-3.713-22.446-3.136-33.938.19-4.968.576-9.925.844-14.888.007-.395.031-.792.056-1.189.125.208.251.43.381.684,2.281,4.526,2.852,9.045,3.8,14.2.783,4.447,1.312,8.939,2.223,13.362.94,4.314,2.221,8.552,3.567,12.755,3.26,9.02,6.906,17.225,8.881,26.339,1.206,5.2,1.85,10.505,2.787,15.756a116.439,116.439,0,0,0,4.01,15.457,78.064,78.064,0,0,0,5.069,11.308c.45.854.922,1.7,1.4,2.534C163.334,706.3,156.328,690.2,150.411,673.693Zm247.8,76.905c2.311-5.323,4.585-10.663,7.017-15.933,1.8-4.137,3.322-7.206,6.813-9.361,4.013-2.78,9.793-4.057,14.477-5.12,8.45-1.866,17.061-2.776,25.64-3.818,10.3-1.487,20.7-1.908,31.076-2.642q3.1-.223,6.213-.337a.758.758,0,0,0,.086.013,20.855,20.855,0,0,1,3.768.129.578.578,0,0,0,.634.365c.286-.064.576-.128.866-.191a1.451,1.451,0,0,0,.972-.2c2.4-.479,4.773-.76,6.44-.024,1.036.663.9.854.62,2.715-.532,2.724-1.47,5.872-2.341,9.057-3.459,12.078-7.206,24.076-10.175,36.289q-.847,3.262-1.709,6.52a.948.948,0,0,0-.2.086c-.5.264-.66,1.075-.177,1.346q-1.572,5.971-3.146,11.94c-1.121,4.625-3.013,9.839-5.495,12.594-1.919,2.429-3.112,2.976-6.273,3.655-7.328,1.842-16.417,3.2-24.425,5.238-9.793,2.424-19,5.474-28.5,7.2-7.917,1.407-15.872,2.6-23.807,3.9-6.1.828-13.361,2.433-17.608-.46a5.319,5.319,0,0,1-1.824-3.736,1.03,1.03,0,0,0,.173-.3c2.576-10.111,6.372-19.818,10.016-29.576C390.967,770.161,394.207,760.227,398.214,750.6Zm71.143,50.44c6.258,3.771-4.217,5.144-10.342,5.962-6.592.856-13.163,1.863-19.7,3.1-12.3,2.144-24.41,5.19-36.644,7.643-4.006.8-8.007,1.659-12.053,2.236-2.276.271-4.07.583-5.988.1-1.632-.454-3.852-1.6-4.482-3.583l0-.006a3.415,3.415,0,0,1-.09-.466c4.6,1.672,11.59.16,15.969-.383,9.486-1.593,19.038-2.854,28.457-4.814,9.172-2.019,18.116-4.936,27.26-7.065,5.036-1.223,11.33-2.236,17.347-3.552A.638.638,0,0,0,469.357,801.038Zm-113.623,3.557c5.039-.393,10.159-.218,15.172-.576.387.175.775.349,1.167.513,1.332.533,2.7.981,4.073,1.382.2.048.4.127.611.176-.2.722-.408,1.442-.614,2.163a.943.943,0,0,0-.671,1c.009.312.039.6.071.893-14.841.51-29.681,1.15-44.535,1.146-1.677-.008-4.918-.146-7.543-.452,2.054-1.3,4.036-2.7,5.973-4.166a.608.608,0,0,0,.345.052C338.431,806.006,347.073,805.166,355.734,804.594Zm-24.139.392a112.161,112.161,0,0,0,17.052-17.256c3.437,4.167,7.844,7.332,12.235,10.423a65.974,65.974,0,0,0,7.1,4.429c-10.413.179-20.791,1.028-31.158,1.992C335.085,804.74,333.338,804.841,331.595,804.987Zm9.681,7.755c11.535-.1,23.054-.694,34.58-1.045a6.189,6.189,0,0,0,2.8,3.661,2.548,2.548,0,0,0,.013,1.97,4.869,4.869,0,0,0,.338.769c-16.559-1.533-33.679-.834-49.648-1.323-4.458-.13-8.9-.485-13.347-.861-.506-.047-1.009-.116-1.509-.2.251-.111.5-.216.754-.329,2.063-.982,4.065-2.063,6.022-3.215C327.893,813.156,334.61,812.824,341.276,812.742Zm33.314-52.949c.287.251.564.512.857.758,3.722,3.211,7.809,5.964,11.756,8.886.63.466,1.243.953,1.847,1.453-3.3,9.023-6.629,18.033-9.876,27.074-.736,2.15-1.36,4.334-1.969,6.522-.678-.236-1.155-.281-1.779-.532-5.064-1.591-10.462-4.961-14.2-7.666a74.481,74.481,0,0,1-7.978-6.222c-.993-.974-1.98-1.957-2.9-3a6.354,6.354,0,0,1-.6-.737c2.706-3.46,5.254-7.035,7.634-10.678,2.279-3.523,4.367-7.164,6.339-10.868a52.247,52.247,0,0,1,9.514-4.583C373.647,760,374.161,759.96,374.59,759.792Zm-1.29-1.138a50.776,50.776,0,0,0-8.355,3.8c1.376-2.664,2.7-5.354,4-8.054l.077-.164C370.382,755.767,371.8,757.255,373.3,758.655Zm2.248-132.481c2.283-14.51,5.744-29.514,13.419-41.012,4.589-6.8,10.711-11.676,17.376-16.935a129.2,129.2,0,0,1,34.445-18.465,134.411,134.411,0,0,1,31.356-6.592c13.936-1.531,27.545.082,39.071,7.081a48.845,48.845,0,0,1,9.525,6.976,62.078,62.078,0,0,1,9.88,13.949c7.777,17.506,6.226,36.81-2.527,54.079-6.841,14.01-15.5,26.213-27.836,35.733-14.571,11.471-34.271,14.748-53.045,17.752-6.539,1.008-13.08,2.06-19.531,3.543-5.745,1.371-11.65,3.187-15.9,7.512-3.889,3.992-6.13,9.213-8.337,14.249-2.341,5.349-4.776,12.369-8.826,12.677-.044,0-.086-.016-.13-.022,3.223-2.463,5.88-5.571,6.825-9.609.722-2.594.211-4.754-2.078-6.1,2.141-2.908,3.437-6.446,1.5-9.7a3.872,3.872,0,0,0-1.338-1.017,16.323,16.323,0,0,0,1.43-1.853c1.6-2.081,2.341-4.686.344-6.795a6.311,6.311,0,0,0-4.377-1.66c-.171,0-.341.022-.511.035.057-.072.121-.139.176-.213,1.62-1.926,2.144-4.968.43-7-4.581-3.486-11.013-1.13-14.917,2.33-.053.055-.115.108-.173.162-.328-2.081-.7-4.155-1.168-6.209-1.072-4.667-2.448-9.259-3.462-13.94C375.153,645.719,374.1,635.336,375.548,626.174ZM353.813,718.45a26.034,26.034,0,0,0,.958-5.083.99.99,0,0,0,.538-.283c.546-.64.213-1.616.373-2.394a21.788,21.788,0,0,1,.654-3.906c1.793-6.494,4.7-11.463,8.858-16.821,2.264-3.121,4.857-6.451,4.993-10.465a20.967,20.967,0,0,0-1.118-5.372c-1.82-5.777-.435-11.618,2.268-16.357a6.659,6.659,0,0,1,3.483-2.788,3.36,3.36,0,0,1,.684-.048c.075.375.146.751.222,1.125,1.727,7.077,3.725,14.448,4.846,21.434a2.511,2.511,0,0,1,.787-.345.852.852,0,0,0,.529-.072c.063,0,.125-.01.188-.008-.005-.036-.011-.071-.016-.106a.752.752,0,0,0,.091-.079,13.7,13.7,0,0,1,9.023-4.253c1.142-.045,3.712.569,4.536,1.448a4.122,4.122,0,0,1-.527,5.081,8.4,8.4,0,0,1-1.14,1.168.862.862,0,0,0-.349.219.758.758,0,0,0-.163.2c-1.407,1.077-3.094,1.916-4.777,3.115-.358.353-.284,1.112.284,1.186.7,0,1.25-.6,1.865-.888a36.2,36.2,0,0,0,3.619-2.412c3.155-.586,6.14.281,6.3,3.314.07.963-1.543,3.373-3.1,4.955a.961.961,0,0,0-.517.511,25.723,25.723,0,0,1-4.86,3.309c-.559.4-1.392.58-1.683,1.255a.64.64,0,0,0,.455.9c1.011-.119,1.836-.978,2.759-1.4a22.274,22.274,0,0,0,4.19-2.984c2.975.8,2.3,5.485.32,8.188-1.416,2.12-4.061,4.316-6.422,6.443-.872.919-2.49,2.009-2.927,3.144a.616.616,0,0,0,.7.7c.849-.238,1.3-1.186,1.978-1.707,1.39-1.331,2.864-2.569,4.276-3.875a24.373,24.373,0,0,0,2.159-2.17c2.355,1.281,2.206,3.515,1.141,6.294-1.225,3.3-3.787,5.7-6.978,7.91a46.688,46.688,0,0,1-10.725,5.247c-1.42.513-2.838,1.032-4.265,1.527a1.019,1.019,0,0,0-.647.724c-.126,1.364,1.392.627,2.439.189a194.9,194.9,0,0,1-12.62,31.984c-10.014,20.969-24.835,41.993-45.216,54.337a.849.849,0,0,0-.558.139.889.889,0,0,0-.37.422c-12.143,7.217-28.054,10.351-41.976,10.088a96.1,96.1,0,0,1-31.765-6.615c-13.135-5.419-25.015-12.32-35.36-21.645a.994.994,0,0,0,.475-.546c5.054-12.344,19.194-18.949,31.784-24.211,1.332-.538,2.674-1.051,4.031-1.521A86.977,86.977,0,0,0,264.2,779.393a53.869,53.869,0,0,0,18.491,6.382,58.905,58.905,0,0,0,18.164-.86,42.4,42.4,0,0,0,12.363-4.63c.055-.017.109-.037.165-.052,0-.013-.008-.025-.011-.038a58.131,58.131,0,0,0,16.479-14.308c7.879-8.924,13.162-19.74,18.063-30.5A117.66,117.66,0,0,0,353.813,718.45ZM183.591,805.577a43.857,43.857,0,0,1,7.124-9.137,50.536,50.536,0,0,1,11.089-8.8,2.183,2.183,0,0,0,.786-.588q1.29,1.324,2.62,2.609c-2.763,4.274-7.908,6.764-11.725,10.89a16.764,16.764,0,0,0-3.251,4.636Q186.913,805.379,183.591,805.577Zm17.462-22.787a51.552,51.552,0,0,1,31.033-25.108,44.272,44.272,0,0,1,6.565-1.192,87.1,87.1,0,0,0,7.75,9.005c-.131.05-.261.1-.392.138-13.177,5.266-28.453,11.739-35.188,25.061-.127.436-.416.883-.541,1.338-.286-.265-.577-.524-.86-.793A86.868,86.868,0,0,1,201.054,782.79ZM267.573,724.3c-.392-4.207-1.084-8.376-1.783-12.541a.7.7,0,0,0-.1-.211,20.978,20.978,0,0,0-.982-4.78c-.846-3.713-3.391-6.615-4.882-10.047a31.037,31.037,0,0,1-2.713-7.572c-.062-.32-.105-.643-.148-.965,4.824,5.136,11.6,8.48,18.723,7.781,4.842-.541,8.851-3.767,11.643-7.6.188,5.935.469,11.33-.293,17.479-.341,2.235-.818,5.18-1.217,6.715-.082.548-.512,1.1-.313,1.654a.624.624,0,0,0,.458.314,80.44,80.44,0,0,0,5.435,23.936c5.891,13.474,15.63,26.673,19.748,40.157.1.326.189.656.282.984a42.116,42.116,0,0,1-12.763,4.191c-13.984,2.359-26.662-.78-38.387-8.879,2.532-8.179,5.315-16.31,6.78-24.765A101.677,101.677,0,0,0,267.573,724.3Zm21.509-29.77c-.136-2.724.041-5.556-.325-8.23a14.832,14.832,0,0,0,1.072-2.053c.066-.187.165-.382.235-.58q1.621.3,3.29.467c.264.027.515.03.774.048,0,.372.112.754.12,1.123.193,1.907.328,3.818.441,5.732.229,3.4.52,7.821-.329,9.789-1.374,1.984-3.749,4.645-5.446,7.268-.3.429-.6.858-.889,1.291A71.013,71.013,0,0,0,289.082,694.533Zm-.923-10.082a15.475,15.475,0,0,1-1.418,2.336c-2.754,4.023-6.473,7.248-11.272,7.652-8.4.67-16.938-5.1-21.036-12.609-2.392-4.158-3.163-8.424-3.685-13.382a73.836,73.836,0,0,1-.264-11.343q.076-1.616.221-3.229c.628.564,1.255,1.128,1.872,1.7,5.425,5.2,11.1,10.1,16.918,14.843a21.345,21.345,0,0,0,2.849,1.9.654.654,0,0,0,.154.571,26.3,26.3,0,0,0,16.113,10.478C288.445,683.721,288.351,684.113,288.159,684.451Zm30.487-10.259a70.2,70.2,0,0,1,11.763,11.5c6.333,7.859,9.871,18.876,14.072,28.582,1.645,3.979,3.515,7.853,5.538,11.646a136.943,136.943,0,0,1-8.125,18.743,110.224,110.224,0,0,1-7.492,12.989c-.177-.936-.331-1.878-.431-2.805a55.478,55.478,0,0,1,1.2-15.888c.735-3.212,1.69-6.387,2.531-9.56-.025-.925-1.34-.653-1.523.071-1.654,5.795-3.431,11.643-3.771,17.693a42.171,42.171,0,0,0,.531,11.625c.058.24.115.485.171.728a74.12,74.12,0,0,1-5.924,7.3A51.637,51.637,0,0,1,312.928,778.8a10.366,10.366,0,0,1-.3-1.04c-4.64-14.923-14.586-27.43-20.408-41.834a80.064,80.064,0,0,1-4.022-15.857c-.449-2.308-.518-4.708-.789-7.02.357-.631.916-1.561,1.322-2.176,1.355-2.073,3.859-5.542,4.857-6.778,1.015-1.267,2.3-2.445,2.573-4.124.027-.133.042-.267.065-.4a32.888,32.888,0,0,1,3.944,3.19,10.963,10.963,0,0,0,2.153,1.9c1.16.542,2.188-.5,2.395-1.6a11.59,11.59,0,0,0-.056-5.365c-.46-2.328-1.037-4.633-1.712-6.908a66.53,66.53,0,0,0-2.414-7.033.532.532,0,0,0-.165-.072c6.317-1.588,10.665-6.4,14.115-12.419.127.079.259.157.395.235C316.422,672.5,317.159,673.051,318.647,674.192Zm-19.379,10.7c.277.807.546,1.616.814,2.426,1.51,4.6,4.193,12.908,3.041,15.81-.693-.416-2.142-2.172-3.315-3.024-.781-.642-1.6-1.234-2.422-1.823a.64.64,0,0,0-.53-.169.9.9,0,0,0-.452.186,60.733,60.733,0,0,0-.2-8.586c-.113-1.825-.259-3.648-.455-5.466a19.312,19.312,0,0,0,3.874-.4,1.1,1.1,0,0,0-.125.094A.877.877,0,0,0,299.268,684.892Zm12.759-12.341c-3.369,5.358-7.409,9.078-13.356,9.945a23.956,23.956,0,0,1-8.277-.451,28.2,28.2,0,0,1-9.752-3.687,29.358,29.358,0,0,1-5.462-4.839,5,5,0,0,1-.586-.733c.107-.01.211,0,.319-.024.069-.009.135-.028.2-.042a2.719,2.719,0,0,0,.732.5c3.053,1.344,8.174.332,8.616-3.525.752-3.744-2.681-6.317-6-6.952a13.45,13.45,0,0,0-3.923.024c-.47.119-1.032.089-1.394.452a.736.736,0,0,0-.127.145c-.552-.376-1.1-.747-1.637-1.133-2.469-1.776-6.479-4.98-9.438-7.289-1.264-1.027-2.546-2.043-3.8-3.088a29.785,29.785,0,0,0,3.059-1.239,13.134,13.134,0,0,0,3.131-2.084c3.209-2.967,5.713-6.984,6.065-11.414a22.809,22.809,0,0,0-.378-5.316,1.048,1.048,0,0,0,.769-.851c-.128-1.78,1.969-2.834,3.515-5.262a14.947,14.947,0,0,0,2.48-6.817c.536-3.718.316-6.632,2.215-9.163,3.3-4.67,9.572-1.846,15.806.073a64.422,64.422,0,0,0,15.906,1.85,53.259,53.259,0,0,0,6.466-.239c.024.333.081.675.11.967.218,2.039.427,4.079.548,6.126.314,8.451.747,16.978.72,24.9C318.322,653.944,317.831,664.3,312.026,672.551ZM277.483,667.6a10.685,10.685,0,0,0-3.1-3.26,11.357,11.357,0,0,1,4.122.1c2.607.771,4.6,2.75,4.454,4.436.017,1.633-.46,2.153-.718,2.353a5.355,5.355,0,0,1-3.688.958,4.4,4.4,0,0,1-1.7-.39A3.345,3.345,0,0,0,277.483,667.6Zm-24.989-23.314a11.278,11.278,0,0,0,3.747-5.595,8.5,8.5,0,0,0-1.931-7.38,3.645,3.645,0,0,0-1.84-1.053,73.535,73.535,0,0,1,1.573-9.548c1.281-.006,4.054,2.361,5.016,3.964a15.177,15.177,0,0,1,2.193,9.115c-.4,4.891-4.323,10.415-7.213,14.3-.381-.392-.771-.775-1.131-1.188a10.407,10.407,0,0,1-1.262-1.964A4.065,4.065,0,0,0,252.494,644.282Zm-1.392-.6a11.47,11.47,0,0,1-.7-3.869c0-.031,0-.045,0-.066-.005-.343,0-.687.024-1.03a.96.96,0,0,0,.52-.271.973.973,0,0,0,1.165-1.032c0-1.8.075-3.626.214-5.464,1.453.714,2.6,3.641,2.515,5.124-.031,2.116-.346,2.575-1.553,4.382A19.664,19.664,0,0,1,251.1,643.684Zm4.281,4.97c.819-1.056,1.571-2.163,2.319-3.271,4.292-6.4,6.934-12.2,3.8-19.821a12.209,12.209,0,0,0-6.039-6.234,3.782,3.782,0,0,0-1.041-.2c.242-.934.5-1.864.783-2.787,7.166,1.406,12.323,9.854,13.438,16.992a14.854,14.854,0,0,1-3.965,12.884,12.48,12.48,0,0,1-5.476,3.7,16.144,16.144,0,0,1-1.8.566,1.337,1.337,0,0,0-.607.229c-.6-.523-1.186-1.063-1.761-1.613C255.166,648.946,255.281,648.787,255.382,648.655ZM300.7,582c.516.468,1.347-.091,1.4-.7a9.783,9.783,0,0,1,.578-3.156,1.919,1.919,0,0,0,.818-.986,6.644,6.644,0,0,1,.806-1.131,11.1,11.1,0,0,1,4.642-2.738c5.964-2.408,11.455-2.639,17.949-1.066,8.522,1.623,14.055,8.642,12.458,17.45-.922,8.077-8.443,14.959-15.446,18.519-3.839,1.793-9.313,1.947-13.19,1.873a61.33,61.33,0,0,1-16.222-2.085c-3.32-1.045-9.013-3.539-13.238-1.776a9.238,9.238,0,0,0-5.036,5.926,43.52,43.52,0,0,0-.944,6.406,13.557,13.557,0,0,1-3.187,7.774c-.887,1.084-2.069,2.034-2.58,3.35a24.654,24.654,0,0,0-6.7-11.122,16.361,16.361,0,0,0-5.979-3.57c-.324-.068-.71-.175-1.1-.254a56.356,56.356,0,0,1,6.292-13.154c6.487-9.763,17.026-16.669,28.475-20.638a53.108,53.108,0,0,1,7.111-1.989c1.117-.307,2.333-.245,3.439-.55a11.6,11.6,0,0,0-.448,2.165C300.616,581.018,300.363,581.6,300.7,582Zm-19.793-7.727c4.744-.971,11.559-1.476,16.29.837a11.531,11.531,0,0,1,3.072,1.856c-.061.006-.122.009-.182.018-13.085,2.14-26.083,8.7-35.076,18.513a53.28,53.28,0,0,0-10.88,19.274.912.912,0,0,0-.357,1.123,73.5,73.5,0,0,0-3.042,16.864c-.083,1.387-.2,2.775-.208,4.164-2.75-2.009-5.492-4.737-9.063-4.693a2.329,2.329,0,0,0-.577.167.7.7,0,0,0,.006-.225c-.023-.191-.04-.391-.056-.593,0,0,0-.01,0-.015a.611.611,0,0,0-.012-.088,42.74,42.74,0,0,1,1.45-11.507,79.591,79.591,0,0,1,5.75-15.151c3.864-8.634,10.134-17.144,18.017-22.508C270.953,578.941,275.564,575.877,280.909,574.274Zm-41.667,55.507c-1.839-1.787-2.763-4.282-3.728-7.025a22.1,22.1,0,0,1,.666-16.321,7.661,7.661,0,0,1,1.166-2.052c.022.367.037.735.064,1.1a.582.582,0,0,0,.319.443.967.967,0,0,0,1.247-1.011q-.121-1.648-.173-3.3a40.231,40.231,0,0,1,.514-6.688c.636-5.214,2.548-10.33,5.707-13.933,5.519-6.045,14.287-9.874,21.726-7.66a16,16,0,0,1,5.374,2.738,2.463,2.463,0,0,1,.438.366c-2.06,1.188-4.059,2.491-6.014,3.8-8.811,5.8-15.46,14.361-19.79,23.914a81.3,81.3,0,0,0-5.951,15.565A48,48,0,0,0,239.243,629.781Zm2.7,11.214c-1.652-2.8-2.138-5.99-.881-7.085.114-.086.163-.258,1.281,0a14.855,14.855,0,0,1,4.293,2.213c.808.609,1.6,1.236,2.414,1.841-.427.738-.139,1.952-.2,2.751a12.417,12.417,0,0,0,2.628,7.164c5.078,5.668,11.525,9.937,17.436,14.681,2.276,1.775,5.233,3.389,6.549,5.118,1.949,2.482.439,3.6-1.041,3.569-2.048-.425-3.91-2.279-5.968-3.984-3.281-2.741-6.655-5.375-9.73-8.352C252.818,653.055,245.581,648.1,241.943,641Zm5.464,11.07c.255-.121.2-.1.13-.067l.1-.047c.206-.11.446-.158.652-.266q.65.6,1.308,1.2a1,1,0,0,0-.43.686,80.981,80.981,0,0,0,.021,15.547,35.3,35.3,0,0,0,3.3,12.764,27.5,27.5,0,0,0,2.975,4.591,1.042,1.042,0,0,0-.164.281,4.311,4.311,0,0,0,0,1.251,22.539,22.539,0,0,0,1.575,6.223,58.8,58.8,0,0,0,2.85,6.14,40.051,40.051,0,0,1,2.528,4.446,31.2,31.2,0,0,1,1.483,4.815c.113.566.227,1.021.3,1.441-.077-.115-.155-.235-.235-.362-.872-1.629-1.664-3.309-2.38-5.013-.435-1.232-.894-2.776-2.391-3.009a14.7,14.7,0,0,0-5.177.514c-2.855.667-5.685,1.438-8.493,2.278-2.973.839-6.077,2.18-7.386.966-.881-.964-.914-4.424-1.323-6.728a197.646,197.646,0,0,1-1.91-22.014c-.029-4.016-.234-9.939,1.662-13.8C238.709,659.688,242.726,654.711,247.407,652.065ZM208.565,672.5c8.528-5.907,17.708-10.387,27.528-11.937a3.837,3.837,0,0,1,.736-.087l-.079.1c-2.677,3.44-3.411,7.786-3.543,12.038a136.8,136.8,0,0,0,.489,15.125c.338,4.456.918,8.888,1.5,13.316.2,1.487.374,2.979.612,4.46a3.261,3.261,0,0,0,1.687,2.662c2.68.974,5.476-.6,8.077-1.224,4.43-1.183,8.921-2.849,12.7-2.746.846.147.99.446,1.513,1.9a54.329,54.329,0,0,0,2.543,5.473,4.941,4.941,0,0,0,1.535,1.773,1.062,1.062,0,0,0,.559.122c2.106,12.383,3.053,24.226,1.1,36.665-1.367,8.011-3.973,15.745-6.517,23.873-13.039-9.482-24.767-23.392-30.2-39.362a56.967,56.967,0,0,1-2.175-11.495c-.065-.285.022-.616-.169-.856a.713.713,0,0,0-.984-.1,1.317,1.317,0,0,0-.417,1.478q.164,1.617.39,3.227a46.532,46.532,0,0,0,2.831,11.283,81.548,81.548,0,0,0,9.35,16.9c-14.326,1.827-27.068,10.921-35.221,22.615a34.637,34.637,0,0,0-2.36,3.867,76.422,76.422,0,0,1-9.3-14.205,85.634,85.634,0,0,1-9.577-33.536,87.1,87.1,0,0,1,1.178-26.668C185.942,693.739,196.726,680.605,208.565,672.5ZM186.113,772.616a.6.6,0,0,0-.332-.217c-.06-4.16-.243-8.323-.636-12.458-.1-.574-.2-1.146-.3-1.719a92.678,92.678,0,0,0,4.89,10.9q.889,1.65,1.837,3.27a.846.846,0,0,0-.091.5,17.25,17.25,0,0,1,.119,2.366,17.663,17.663,0,0,1-1.541,7.007,15.405,15.405,0,0,1-1.294,2.291C187.185,780.736,186.894,776.951,186.113,772.616Zm1.919,14.244a29.855,29.855,0,0,0-2.893,2.654c.144-3.158.4-6.31.552-9.468a28.433,28.433,0,0,0,1.49,5.076C187.467,785.619,187.557,786.511,188.032,786.86Zm1.9-1.594a18.376,18.376,0,0,0,3.229-10.146c0-.037,0-.075,0-.113a78.063,78.063,0,0,0,4.591,6.575c-.118.034-.235.066-.351.089a30.969,30.969,0,0,0-8.089,4.2.71.71,0,0,0-.036-.141l-.007-.016A.887.887,0,0,0,189.937,785.266ZM187.2,640.618c1.245,8.318,6.3,15.285,9.068,23.087a48.072,48.072,0,0,1,2.924,12.6c.123.465-.01,1.3.127,1.837a70.716,70.716,0,0,0-11.569,13.907q-1.317,2.023-2.5,4.14c-1.1-8.629.366-17.329.714-26.355a179.6,179.6,0,0,0-1.73-33.17,27.351,27.351,0,0,1,.471-11.219,31.435,31.435,0,0,1,.976-3.325c.015.072.034.181.092.413C186.643,628.514,186.213,634.636,187.2,640.618Zm-2.658,22.569a.772.772,0,0,0-.366.242,21.752,21.752,0,0,0-2.043,2.218,70.043,70.043,0,0,1,1.908-15.475C184.38,654.557,184.575,658.907,184.546,663.187ZM192,576.536a6.358,6.358,0,0,1,.558,2.64c-.2,5.572-2.741,12.089-4.462,18.334a107.484,107.484,0,0,0-3.177,18.735c-.1,1.586-.3,3.2-.26,4.78a16.421,16.421,0,0,0-1.472,4.374,27.725,27.725,0,0,0-.777,9.456c.483,3.687.92,7.373,1.272,11.041a.864.864,0,0,0-.08.149,78.349,78.349,0,0,0-2.748,14.025,54.985,54.985,0,0,0-.287,6.27c.052.38-.078.891.151,1.207a61.266,61.266,0,0,0-4.508,8.388c-.4-2.572-.748-5.153-1.061-7.737a131.971,131.971,0,0,1,1-42.821,271.573,271.573,0,0,1,9.874-36.616,76.044,76.044,0,0,1,4.789-10.362A15.459,15.459,0,0,1,192,576.536ZM169.918,681.515c-2.065-5.6-2.031-13.25-2.852-19.746-.576-5.6-1.762-11.13-2.059-16.753a86.957,86.957,0,0,1,2.127-22.162,130.482,130.482,0,0,1,12.945-33.089c2.585-4.493,5.155-8.867,8.445-12.156a5.42,5.42,0,0,1,2.04-1.383c-6.208,9.647-9.046,21.226-12.024,32.191-2.053,8.225-4.179,16.465-5.161,24.9a130.121,130.121,0,0,0,.072,34.371c.445,3.7.921,7.4,1.564,11.071a44.2,44.2,0,0,0-2.337,8.247A15.474,15.474,0,0,1,169.918,681.515Zm6.8,23.621c-4.3-7.837-3.566-16.778-.653-25,.7-.225.727-.888.6-1.612a60.28,60.28,0,0,1,4.244-8.617,24.3,24.3,0,0,1,3.553-4.826c.02-.023.046-.043.068-.065,0,.083,0,.168,0,.251-.04,7.509-.994,14.973-1.226,22.473a56.478,56.478,0,0,0,.353,8.722c.083.656.181,1.309.277,1.963a.572.572,0,0,0,.058.147,39.69,39.69,0,0,0-3.143,8.461c-.311,1.394-.56,2.8-.782,4.206C178.91,709.231,177.781,707.2,176.715,705.136ZM117.22,682.124c11.962,3.991,25.558,8.689,32.089,19.062a19.3,19.3,0,0,1,2.615,8.653c-1.986-1.028-3.991-2.006-5.988-2.945-2.923-1.4-11.475-5.412-9.336,1.379.1.5.194,1,.289,1.494-8.257-4.026-12.714-13.791-19.624-20.187-6.1-5.75-13.964-8.914-20.857-13.522a92.14,92.14,0,0,1-9.666-7.885c-.792-.743-1.563-1.508-2.362-2.242A200.511,200.511,0,0,0,117.22,682.124Zm2.978,31.139c-7.712-6.606-15.632-13.061-21.815-21.2a59.885,59.885,0,0,1-7.89-13.159c-1.273-2.806-2.352-5.7-3.811-8.424-.02-.035-.042-.069-.062-.1a78.659,78.659,0,0,0,8.759,7.059c4.37,3.063,9.272,5.242,13.748,8.131a45.27,45.27,0,0,1,10.557,9.11c4.773,5.692,8.795,12.356,15.414,16.129a12.826,12.826,0,0,0,2.114.939l.04.015c.853,4.9,1.551,9.844,3.439,14.481A17.037,17.037,0,0,0,141.8,728.6C134.229,726.743,126.4,718.331,120.2,713.262Zm48.83,60.434a79.439,79.439,0,0,0-9.145-16.184,62.844,62.844,0,0,1-6.991-11.4c-1.595-3.437-2.671-7.1-4.467-10.446-1.176-2.184-2.74-4.125-4.1-6.2a.546.546,0,0,0-.286-.45c-.316-.5-.624-1-.9-1.527a37.791,37.791,0,0,1-3.258-10.249c-.575-2.9-.967-5.828-1.552-8.722,4.021,3.373,7.344,7.515,10.741,11.5,5.864,7.056,10.849,13.851,14.916,22.219a102.124,102.124,0,0,1,6.714,18.079c1.817,7.089,2.784,14.356,4.128,21.542q.517,2.669,1.134,5.318C172.211,786.4,170.87,777.992,169.027,773.7Zm8.354,12.313c-.141-.614-.276-1.224-.4-1.814-1.715-8.112-2.641-16.385-4.712-24.423a98.688,98.688,0,0,0-19.2-37.607c-4.755-5.64-9.255-11.768-15.221-16.181.019,0,.038-.007.057-.009l.105,0a4.1,4.1,0,0,1,.432.038c2.614.348,5.105,1.671,7.844,2.947,11.28,5.354,22.221,11.886,28.312,22.475,3.4,6.219,4.9,12.287,6.536,19.057a100.424,100.424,0,0,1,2.095,10.08,44.706,44.706,0,0,1-1.754,18.179c-.949,2.656-1.716,5.318-3.083,6.571a3.7,3.7,0,0,1-.969.674C177.41,786,177.395,786,177.381,786.009Zm2.065,7.652c-.565-1.717-1.183-3.969-1.733-6.238a5.446,5.446,0,0,0,1.062-.613,8.423,8.423,0,0,0,2.664-3.761,48.354,48.354,0,0,0,2.106-6.076c.276-1,.5-2.009.692-3.025.03,2.192,0,4.422-.138,6.814-.149,3.316-.534,6.65-.541,9.959a.582.582,0,0,0,.241.307,25.761,25.761,0,0,0-3.365,5.222Q179.881,794.98,179.447,793.66Zm2.18,3.362c2.2-5.148,7.83-10.281,12.886-12.624a20.781,20.781,0,0,1,4.232-1.551c.939,1.112,1.919,2.187,2.918,3.243l-.011.006A54.4,54.4,0,0,0,188.6,796.636a41.865,41.865,0,0,0-6.68,9.043l-1.722.1C179.579,802.653,180.293,800.274,181.626,797.022Zm416.855,7.545c-6.239,6.356-18.762,8.419-27.69,10.7-14.585,3.45-29.519,5.109-44.381,6.882-9.952,1.033-19.925,1.857-29.922,2.3-4.723.241-9.448.466-14.17.731-3.015.154-14.206,1.076-10.608,6.306,1.5,2.463,4.04,3.831,4.877,6.215,2.524,7.772-11.7,10.819-19.259,12.695-15.636,3.178-31.563,4.543-47.45,5.783q-26.512,2.08-53.052,3.771c-27.184,1.98-54.442,2.247-81.684,2.568-24.3.452-48.6,1.268-72.9,1.8-5.017.079-9.469.3-14.187-.055q-.815-.076-1.623-.207l-.883-.175-.22-.048c3.625-1.735,11.163-3.089,16.526-4.221,7.285-1.5,14.6-2.854,21.9-4.305,5.426-1.243,11.39-2,15.87-5.581,1.335-1.1,2.107-3.339.856-4.771-2.074-2-5.212-2.472-7.848-3.44a171.941,171.941,0,0,0-23.655-5.356c-16.268-2.786-32.609-5.117-48.908-7.715q-7.738-1.262-15.389-2.992c-4.788-1.2-10.122-2.063-12.215-6.023-.215-1.807,1.633-3.69,4.679-5.525,2.253-1.314,6.673-2.533,9.248-3.077,6.6-1.367,13.335-1.817,20.028-2.469,11.806-1.013,23.644-1.621,35.478-2.2,3.845-.155,7.691-.266,11.539-.292q1.912-.015,3.824-.013a1.006,1.006,0,0,0,.87-1.07.6.6,0,0,0-.319-.443,17.968,17.968,0,0,0-2.455-.056q-4.826.015-9.65.17c-4.62.159-9.238.386-13.853.642,2.811-5.55,10.1-8.624,14.409-14.418q1.261,1.193,2.542,2.365c11.1,10.361,24.415,18.071,38.5,23.616,20.748,7.831,44.43,8.344,65.062-.039a.548.548,0,0,0,.48.462c22.6,2.859,44.7.3,67.086,2.718a.7.7,0,0,0,.411-.054,9.1,9.1,0,0,0,2.509,1.514c2.559,1.039,5.364.585,8.018.231,4.592-.69,9.131-1.679,13.681-2.6,13.477-2.824,26.875-6.036,40.468-8.277,5.28-.9,10.591-1.61,15.9-2.325,3.438-.717,10.443-.953,11.81-4.63.58-1.6-.657-3.064-2.026-3.815,2.023-.467,4-.974,5.866-1.543,2.057-.834,3.5-2.6,4.818-4.308,3.113-4.06,4.3-9.109,5.613-13.958q1.35-5.2,2.732-10.39c15.7,1.076,31.47.684,47.2,1.009,4.3.02,8.766.159,13.525.34,3.333.169,6.717.11,9.978.9,3.494,1.027,6.589,2.546,3.8,4.234-3.5,2.308-8.036,3.841-12.533,5.257-3.7,1.231-7.658,1.8-11.158,3.588-1.834.9-5.329,3.186-3.7,5.543,1.492,1.59,3.828,2.007,5.785,2.815,6.672,2.09,13.787,2.189,20.7,2.863,9.681.794,19.383,1.486,29.011,2.783C596.248,799.337,600.31,803.1,598.482,804.567Z" transform="translate(-79.995 -516.22)"/>
        <path id="Path_5278" data-name="Path 5278" d="M737.985,759.993c-18.835,3.518-37.648,7.2-56.582,10.16-9.688,1.438-19.336,3.28-29.106,4.079-14.22.986-28.48.078-42.716.306-18.21.157-36.413,1.008-54.625.786-4.606-.192-10.384.058-15.563-.626a5.553,5.553,0,0,1-3.1-1.664c-.187-.331-.261-.455-.289-.491-.009-.021-.018-.046-.027-.069.03-.1.07-.208.1-.282a.442.442,0,0,0,.073-.135c.052-.057.074-.094.073-.109a16.3,16.3,0,0,1,4.28-2.1,4.383,4.383,0,0,0,2.129-1.507c.977-1.968-2.069-2.413-3.373-2.794a60.543,60.543,0,0,0-7.176-1.216c-8.193-1.072-16.44-1.534-24.695-1.788-4.25-.265-9.482-.379-12.938-1.482a8,8,0,0,1-3.249-1.911c-.112-.11-.431-.487-.193-.181a1.154,1.154,0,0,1-.235-.409.284.284,0,0,0-.013-.039s0,0,0-.006l0-.006c.036-.042.055-.07.019-.044l.008-.014c.138-.1.336-.217.455-.286,3-1.2,5.967-1.52,9.484-2.03,1.6-.2,3.2-.365,4.808-.521a1.007,1.007,0,0,0,.87-1.07.609.609,0,0,0-.7-.5q-1.345.13-2.689.276a77.463,77.463,0,0,0-7.942,1.2c-1.8.458-3.788.688-5.241,1.93-2.095,2.14,1.461,4.236,3.28,4.912,3.744,1.388,7.849,1.3,11.782,1.659,10.365.371,20.749.849,31,2.5a23.156,23.156,0,0,1,5.18,1.386.379.379,0,0,1,.03.023c-.965.639-3.4,1.282-4.938,2.317-2.511,1.456-2.156,3.876.328,5.171,2.263,1.276,4.973,1.106,7.486,1.227q5.385.164,10.773.246c20.16.243,40.309-.814,60.469-.818,11.629,0,23.27.514,34.889-.139,8.241-.475,16.377-1.951,24.527-3.183,16.171-2.431,32.25-5.415,48.333-8.363,4.254-.763,8.473-1.7,12.726-2.475.888-.25,1.932-.1,2.688-.644a.95.95,0,0,0,.288-.778A.612.612,0,0,0,737.985,759.993Zm-16.073,10.219c-9.547,2.137-19.536,2.717-28.972,5.041-.344.315-.443.979.03,1.221a14.729,14.729,0,0,0,3.05-.406c6.2-1.092,12.439-1.988,18.66-2.971,2.456-.429,4.947-.795,7.358-1.41C722.752,771.438,722.853,770.118,721.913,770.212Zm-12.294,8.567c-1.241.09-2.483.173-3.722.284-.727.146-1.631-.057-2.224.454-.493.408-.34,1.381.407,1.28,1.784-.195,3.574-.318,5.364-.445a1,1,0,0,0,.581-.292C710.519,779.653,710.367,778.679,709.618,778.78Zm110.876-189.2a.866.866,0,0,0-1.214.323,149.969,149.969,0,0,0-8.68,17.02c-3.079,6.068-3.762,11.716,1.527,16.8,6.566,6.558,15.539,9.885,24.278,12.461,3.2.881,6.373,1.9,9.612,2.624a13.006,13.006,0,0,0,6.724-1.028c2.281-1.235,3.747-3.577,5.332-5.562a70.692,70.692,0,0,0,7.852-14.5c.833-2.309,2.112-4.591,2.205-7.083-.107-3.94-3.457-6.815-6.665-8.592-7.47-4.127-15.615-6.866-23.543-9.967-2.9-1.089-5.779-2.217-8.7-3.228a10.928,10.928,0,0,0-5-.775,7.976,7.976,0,0,0-3.584,1.409C820.592,589.51,820.543,589.544,820.495,589.578Zm30.387,47.332a11.5,11.5,0,0,1-6.672-.26c-4.618-1.3-8.7-2.37-12.91-3.841-8.495-3.033-20.987-9.132-21.514-17.436-.008-.165,0-.318,0-.477,5.122-3.069,11.038-5.1,17.1-7.318a.8.8,0,0,0,.175-.09c.7,2.343,1.41,4.708,2.186,7.113,1.26,4.335,2.333,7.31,7.581,6.527a66.066,66.066,0,0,0,10.99-2.868c2.168,5.763,4.173,11.217,5.711,16.764a.541.541,0,0,0,.255.2A5.214,5.214,0,0,1,850.882,636.91Zm14.4-21.518c-2.5,6.6-6.031,13.377-10.159,18.34-.074.082-.133.15-.2.227-.051-.2-.123-.4-.165-.591-1.4-5.281-3.428-10.361-5.273-15.5-.022-.046-.04-.1-.059-.152,1.054-.358,2.106-.718,3.157-1.07,3.619-1.245,7.265-2.413,10.921-3.545.949-.285,1.9-.562,2.859-.809A23.085,23.085,0,0,1,865.282,615.392ZM827.3,589.982c6.715,2.295,15.206,5.6,22.449,8.5,5.46,2.345,12.545,4.91,15.511,8.943a6.188,6.188,0,0,1,1.263,3.3.738.738,0,0,0-.142.03c-1.3.329-2.59.716-3.874,1.11-4.609,1.427-9.182,2.967-13.742,4.541-2.766.959-7.117,2.209-9.2,2.705-2.514.479-4.5.981-6.187.008-.787-.419-1.575-1.829-2.036-3.433-.949-2.879-1.823-5.743-2.57-8.175-1.723-5.939-3.422-11.882-5.413-17.737A7.115,7.115,0,0,1,827.3,589.982Zm-.657,16.122c-5.647,2.138-11.57,4.009-16.75,7.145a21.319,21.319,0,0,1,1.892-5.454c1.784-3.952,3.58-7.856,5.323-11.2.89-1.818,2-3.526,2.985-5.29a.6.6,0,0,0,.222.008,6.649,6.649,0,0,0,1.495-.922C823.61,595.623,825.089,600.809,826.646,606.1ZM839.7,581.827c1.221-3.65,3.149-7.063,5.6-8.832a8.918,8.918,0,0,1,4.6-1.539c1.629.114,4.231.731,5.485,2.392,1.556,1.844,1.505,5.055,3.077,7.633,1.463,2.308,3.846,1.394,5.47-.182,1.6-1.365,2.732-2.637,3.953-3.026,1.576-.669,3.554,1.609,3.915,4.277.546,2.9.06,5.92.779,8.789,1.745,6.082,8.225,3.446,12.643,2.642a95.134,95.134,0,0,1,15.22-1.347c4.408.084,9.1-.327,13.146,1.838,2.034,1.018,3.542,3.272,3.37,5.093-.144,1.494-2.334,3.522-4.216,4.231-1.906.548-1.4,2.538.475,1.364,4.286-1.906,7.317-6.053,3.7-10.253-3.538-3.838-9.2-3.756-14.04-3.849a90.667,90.667,0,0,0-20.491,1.974c-4.482,1.258-7.925.984-8.491-3.406-.445-3.439.2-7.161-1.42-10.359-3.882-6.661-8.342.977-11.029,2.011-2.031.605-2.576-4.011-3.958-7.319-1.573-3.284-5.916-4.649-9.3-3.808-3.673.881-6.351,3.754-8.059,7a31.9,31.9,0,0,0-1.79,4.076,1.239,1.239,0,0,0-.114.95C838.6,582.819,839.519,582.406,839.7,581.827Zm84.113,25.946c-8.955.406-17.956.933-26.857,1.823-.714.25-.816,1.57.126,1.476,6.06-.427,12.111-.994,18.179-1.306,2.88-.228,5.829-.185,8.678-.517C924.66,609,924.76,607.679,923.817,607.773Zm-8.007,5.615c-2.731.2-5.467.343-8.19.637-.924.2-2.065-.058-2.848.517-.491.408-.341,1.381.407,1.28q2-.206,4.006-.391c1.784-.172,3.573-.27,5.361-.388.558-.087,1.238.062,1.671-.376C916.707,614.26,916.558,613.287,915.809,613.388Zm-.277,7.456c-9.335,1.009-18.638,2.294-27.956,3.443q-6.039.765-12.074,1.57c-.532.114-1.169.011-1.582.424-.482.406-.347,1.382.407,1.28,11.345-1.509,22.7-2.916,34.057-4.352,2.412-.355,4.89-.451,7.274-.889C916.372,622.069,916.476,620.749,915.532,620.843ZM573.916,488.509l4.006.016c5.761.011,11.521.046,17.282.009,2.855-.035,5.716-.026,8.561-.3,3.184-.23,6.172-1.389,5.541-5.144-.37-1.906-1.611-3.458-2.313-5.237-1.589-3.762-.171-7.88,2.753-10.614,1.885-1.775,5.014-3.124,8.364-4.1a50.423,50.423,0,0,1,12.521-2.042c10.168-.138,21.664,3.456,29.459,10.368a42.771,42.771,0,0,1,9.077,11.65c2.483,4.387,4.409,9.222,7.95,12.9a6.754,6.754,0,0,0,8.479.483c2.294-1.749,3.6-4.473,4.731-7.058,1.438-4.162,3.187-8.465,5.754-10.3,4.453-3.869,10.476-1.961,12,3.408.735,2.879.388,5.03.182,8.09-.082,1.129,1.542.723,1.572-.175.271-3.418.67-7.058-.821-10.264a8.385,8.385,0,0,0-12.151-3.328,14.609,14.609,0,0,0-5.257,5.611c-1.355,2.476-2.067,5.231-3.219,7.8-.808,1.615-2.325,4.409-3.721,5.132a5.248,5.248,0,0,1-6.481-.8c-3.222-3.406-5.213-8.29-7.742-12.746a44.67,44.67,0,0,0-8.309-10.89c-8.366-7.791-20-11.554-31.332-11.46a52.484,52.484,0,0,0-12.688,2.065c-3.494,1.048-7.072,2.376-9.7,5-2.624,2.681-4.3,6.594-3.44,10.356.387,2.01,1.554,3.714,2.4,5.539.84,1.866.329,3.42-.613,3.6-2.336.843-6.166.774-9.269.857-5.461.069-10.922.028-16.383.022q-3.511-.009-7.022-.024a1,1,0,0,0-.777.573A.645.645,0,0,0,573.916,488.509Zm22.145,5.083a.644.644,0,0,0-.6-1c-1.461.138-2.922.278-4.382.435-1.288.134-2.572.3-3.856.463a1,1,0,0,0-.581.292c-.492.408-.34,1.381.407,1.28,2.693-.359,5.4-.633,8.1-.885A1.022,1.022,0,0,0,596.062,493.592Zm-5.427,6.637c1.685-1.119,4.842-1.752,7.282-2.749.686-.45.385-1.64-.518-1.306-2.564.884-5.428,1.4-7.643,3.011A.683.683,0,0,0,590.634,500.229ZM794.607,726.594a138.363,138.363,0,0,0-17.283,2.15c-.894.048-1.315,1.618-.175,1.572a139.134,139.134,0,0,1,17.182-2.146c8.593-.332,2.451,3.121-2.513,5.54a99.216,99.216,0,0,1-11.193,4.328c-2.006.809-4.331,1.019-6.129,2.253-.865.844.01,1.841.963,2.043,1.978.718,4.13.92,5.065,1.818,2.231,2.246-2.921,3.993-7.3,5.379-3.613,1.071-6.655,1.679-10.588,2.485-.88.315-2.191.061-2.716.957-.677,1.909,2.6.425,3.468.429,2.642-.544,5.283-1.1,7.894-1.783,3.692-1.142,7.931-1.957,10.716-4.819a2.944,2.944,0,0,0-.025-3.666c-1.24-1.361-3.222-1.477-4.879-2.029-.164-.055-.378-.115-.593-.183,3.112-1.015,9.254-2.936,12.879-4.554,3.638-1.651,7.616-3.184,10.394-6.149a2.223,2.223,0,0,0-.073-2.764C798.285,726.32,796.3,726.645,794.607,726.594Zm-10.892,21.284c.269.692-1.267,2.122-2.831,3.187a22.858,22.858,0,0,1-3.64,1.8,5.68,5.68,0,0,0-1.078.488c-.417.277-.574,1.037-.061,1.294.847.2,2.069-.7,2.909-.982a15.018,15.018,0,0,0,5.417-3.865,2.759,2.759,0,0,0,.737-2.749C784.665,746.387,783.582,747.16,783.715,747.878Z" transform="translate(-364.703 -459.522)"/>
      </g>
      <g id="Group_452" data-name="Group 452" transform="translate(181.831 482.511)">
        <path id="Path_5279" data-name="Path 5279" d="M1209.214,715.419a15.053,15.053,0,0,0-3.04-5.834c-.242-.211-.523-.631-.877-.445-.447.245-.315.649.058.872a6.376,6.376,0,0,1,.8.884,17.816,17.816,0,0,1,2.543,5.824,15.9,15.9,0,0,1-.255,7.035,40.652,40.652,0,0,1-3.066,9.127c-.735,1.379-2.684,5.481-4.107,4.6a3.842,3.842,0,0,1-.644-2.267c-.085-.45.237-1.171-.06-1.509-.229-.164-.558.039-.64.279-1.221,3.939-4.751,16.386-8.283,17.251-1.218.357-1.731-1.1-1.608-2.354.011-.8.481-1.492.4-2.3-.7-.76-1.361,1.321-1.732,1.766-.784,1.356-1.639,2.669-2.487,3.986a50.017,50.017,0,0,1-10.066,11.719c-.713.684-1.53,1.036-2.314,1.888a.333.333,0,0,0,.525.378c6.368-4.506,10.979-10.918,14.921-17.566a4.463,4.463,0,0,0,.044,1.627,2.314,2.314,0,0,0,1.171,1.6,2.751,2.751,0,0,0,1.921-.223c2.164-1.407,3.17-4.024,4.294-6.248,1.223-2.947,2.281-5.971,3.23-9.022.516,2.886,2.714,2.176,4.164.021a35.87,35.87,0,0,0,4.818-11.487C1209.7,721.891,1210.221,718.557,1209.214,715.419Zm.986-9.773a18.081,18.081,0,0,0-4.057-4.71,4.983,4.983,0,0,0-1.893-.7.463.463,0,0,0-.426.19c-.177.178-.143.555.142.593,2.239.237,3.99,2.96,5.272,4.724.19.216.26.6.555.683A.474.474,0,0,0,1210.2,705.647Zm-.706-6.857a26.039,26.039,0,0,0-4.445-6.2c-.353-.121-.765.389-.5.686a25.051,25.051,0,0,1,3.566,4.849q.524.889,1.014,1.8a.291.291,0,0,0,.222.159.5.5,0,0,0,.511-.334C1209.962,699.4,1209.616,699.1,1209.494,698.79Zm-119.806-5.7c-.08-.272-.459-.252-.624-.06a40.817,40.817,0,0,0-9.179,9.8c-1.063,1.663-2.6,3.522-2.256,5.617.95,2.8,3.827-.641,5.393-.667,1.746-.056.18,1.814-1.112,2.7a39.433,39.433,0,0,0-12.555,12.7c-1.206,2.364-2.792,4.965-2.369,7.714.672,2.26,2.114-.947,2.629-1.712a13.189,13.189,0,0,1,2.545-3.259c1.348-.906,1.759.084,1.243,1.533-1.124,2.64-3.387,5.324-4.595,8.263a35.167,35.167,0,0,0-3.04,11.158,25.892,25.892,0,0,0-.23,2.768.252.252,0,0,0,.191.19c.883.072.533-1.206.688-1.758.121-1.258.281-2.513.49-3.76a33.882,33.882,0,0,1,3.63-10.461c1.2-2.453,3.309-4.549,3.844-7.279.291-1.678-1.168-2.278-2.447-1.348-1.869,1.372-2.832,3.636-4.1,5.514a3.8,3.8,0,0,1-.078-1.771c.782-3.575,2.974-6.916,5.436-10.013,2.39-3.022,6.029-5.721,9.431-8.15a4.82,4.82,0,0,0,1.876-2.321c.529-1.355-1.1-1.786-2.1-1.331-1.183.422-2.917,1.671-3.406,1.612-2.427-1.156,2.7-7.238,4.128-9.156a41.929,41.929,0,0,1,4.526-4.5c.649-.6,1.424-1.086,2.01-1.734A.358.358,0,0,0,1089.688,693.1Z" transform="translate(-867.534 -692.573)" fill="#e8e8e8"/>
        <path id="Path_5280" data-name="Path 5280" d="M1081.461,838.733c-.174-.319-.644-.117-.733.175-1.4,4.107-2.35,8.616-1.67,12.94.162.239.532.1.656-.114.15-.234.02-.513.007-.768a27.011,27.011,0,0,1,.749-8.669c.064-.314.541-1.967.8-2.7C1081.333,839.313,1081.562,839.024,1081.461,838.733Zm2.507,4.457a19.657,19.657,0,0,1-.257-3.219c-.145-.42-.756-.131-.77.231a16.527,16.527,0,0,0,.883,5.728c.173.321.643.116.732-.175C1084.516,844.956,1084.093,844.194,1083.968,843.19Zm70.656,160.128a16.85,16.85,0,0,0-6.112,1.539c-1.647.663-2.857,1.612-4.5,2.029-.936.166-2.1-.811-2.68-1.707a12.692,12.692,0,0,0-2.666-3.854,3.412,3.412,0,0,0-2.024-.823,1.811,1.811,0,0,0-1.257,1.828,10.619,10.619,0,0,1,.506,2.936,2.411,2.411,0,0,1-1.892,2.583c-2.657.02-6.09-.35-9.094-.176a147.263,147.263,0,0,0-19.5,2.6c-3.95.744-7.9,1.475-11.87,2.121-3.292.45-9.143,1.919-10.548-.772-.465-1.723.785-5.252,1.017-7.671.058-.56-.79-.361-.786.087-.315,1.91-.67,3.813-1.036,5.714a3.675,3.675,0,0,0,.279,2.7c2.262,3.336,12.825.149,16.522-.219,10.141-1.832,20.886-4.191,30.9-3.749,2.2,0,4.632.88,6.187-1.218.852-1.1.647-2.677.428-3.967-.155-.721-.536-1.085-.21-1.69.4-.584.5-.269,1.126-.047a6.174,6.174,0,0,1,2.432,2.691,7.562,7.562,0,0,0,1.683,2.479c2.121,2.219,4.646-.142,6.62-.919a16.753,16.753,0,0,1,6.078-1.695,9.19,9.19,0,0,1,2.276.141c.279.061.613.179.807-.107C1158.062,1003.215,1155.1,1003.349,1154.624,1003.318Z" transform="translate(-876.785 -794.153)" fill="#e8e8e8"/>
        <path id="Path_5281" data-name="Path 5281" d="M1300.359,1205.621a11.591,11.591,0,0,0-4.238,2.255,11.769,11.769,0,0,0-2.47,2.972c-.12.46.525.516.7.163a10.306,10.306,0,0,1,5.175-4.329c.385-.207.925-.185,1.21-.535A.333.333,0,0,0,1300.359,1205.621Zm-7.649-2.948a10.287,10.287,0,0,0-2.02,3.141c.064.37.567.286.712.014A15.326,15.326,0,0,1,1293,1203.4c.264-.39.77-.641.912-1.094C1293.791,1201.447,1292.966,1202.366,1292.711,1202.673Zm35.675-64.556a34.732,34.732,0,0,0-4.5.6c-.357.127-.408.784.063.738,3.354-.394,7.319-1.78,8.381,1.8a14.262,14.262,0,0,1,.191,5.223c-.1.88-.244,1.755-.4,2.627a.319.319,0,0,0,.084.265c.672.382.768-.632.827-1.082.174-1.033.31-2.072.383-3.117C1333.686,1141.5,1332.995,1137.554,1328.386,1138.117Z" transform="translate(-1024.187 -1002.528)" fill="#e8e8e8"/>
        <path id="Path_5282" data-name="Path 5282" d="M718.489,1097.8c-.085-.3.029-.749-.254-.949a.483.483,0,0,0-.623.505,19.315,19.315,0,0,1-.87,9.3,6.156,6.156,0,0,0-.274.868c-.01.348.451.378.639.154a18.937,18.937,0,0,0,1.454-6.084A19.445,19.445,0,0,0,718.489,1097.8Zm1.424,9.021a10.575,10.575,0,0,0-.607,1.408.265.265,0,0,0,.122.244c.229.166.557-.04.64-.279a9.935,9.935,0,0,0,.607-1.408C720.661,1106.315,720,1106.458,719.913,1106.817Zm-284.738,29.058a17.44,17.44,0,0,0-1.587,3.508c-.168.356-.173.953-.605,1.059-.032,0-.068.006-.1.007a1.456,1.456,0,0,1-.385-.073c-1.4-.57-2.738-2.411-3.742-4.109-3.03-4.975-4.219-10.289-5.512-15.936a85.5,85.5,0,0,1-2.172-18.784c.066-3.305.336-6.6.633-9.9a16.5,16.5,0,0,0,.193-2.393c-.724-1.344-2.179,1.851-2.464,2.444a32.893,32.893,0,0,0-1.758,5.141c-.134.356-.176,1.052-.463,1.289a.913.913,0,0,1-.094-.087,5.606,5.606,0,0,1-.888-1.747,24.693,24.693,0,0,1-.726-6.575,33.625,33.625,0,0,1,2.459-11.088c.88-2.142,1.831-4.146,2.807-6.017.1-.265.4-.523.213-.8-.605-.937-1.991,3.031-2.349,3.5a36.991,36.991,0,0,0-3.891,14.1,22.67,22.67,0,0,0,.846,7.6c.326.956,1.353,2.911,2.326,1.382.834-2.132,1.411-5.064,2.367-6.823a11.158,11.158,0,0,1,.788-1.394,113.7,113.7,0,0,0-.745,13.845,94.868,94.868,0,0,0,5.058,27.222c.9,2.425,5.053,11.709,8.255,9.645a6.291,6.291,0,0,0,.923-2.049,13.9,13.9,0,0,1,1.254-2.657C436.125,1135.665,435.431,1135.439,435.174,1135.875Z" transform="translate(-414.719 -956.336)" fill="#e8e8e8"/>
        <path id="Path_5283" data-name="Path 5283" d="M438.227,1049.146a29.641,29.641,0,0,0-2.142,4.943c-.216.423-.232,1.006.4.729.778-1.307,1.214-3.34,1.916-4.5l-.024.048c.16-.364.4-.695.55-1.06C439.05,1048.848,438.4,1048.793,438.227,1049.146Zm3.506,2.4a8.745,8.745,0,0,0-1.16,2.1c.063.37.567.285.712.014.333-.619.705-1.216,1.089-1.8C442.686,1051.361,441.992,1051.1,441.733,1051.55Zm35.182,62.366a53.268,53.268,0,0,0-18.736,13.676c-.684.662-1.261,1.741-2,2.025-.274.053-.38-.007-.857-.2-.479-.33-.994-.028-.857.475a2.453,2.453,0,0,0,1.413.533,2.489,2.489,0,0,0,1.746-1.126c.731-.88,1.5-1.73,2.289-2.559a64.242,64.242,0,0,1,7.494-6.608,35.67,35.67,0,0,1,6.285-3.889q1.28-.629,2.572-1.234c.333-.2.775-.26,1.025-.567A.333.333,0,0,0,476.915,1113.915Zm-6.1-.7a23.267,23.267,0,0,0-4.574,2.907c-.194,1.286,1.92-.685,2.393-.849q1.215-.763,2.494-1.417a.537.537,0,0,0,.213-.263A.333.333,0,0,0,470.814,1113.216Zm25.3-70.483c-.474-.206-1.077.034-1.6-.017-2.512,0-5.888,1.079-7.434.1-.753-1.284-1.007-4.224-1.513-6.256.018-.673-.872-.488-.819.1.365,1.868.742,3.735,1.165,5.591a2.765,2.765,0,0,0,.444,1.069c.752.83,2.04.678,3.059.666,1.878-.158,3.744-.458,5.632-.5.33-.048.736.054,1-.19A.406.406,0,0,0,496.117,1042.733Z" transform="translate(-429.491 -931.605)" fill="#e8e8e8"/>
        <path id="Path_5284" data-name="Path 5284" d="M608.736,813.19a1.758,1.758,0,0,1-.239-.709c-.15-.476-.02-1.556-.354-1.842a.484.484,0,0,0-.623.505,6.255,6.255,0,0,0,.625,2.738.37.37,0,0,0,.567.159C609.069,813.817,608.947,813.473,608.736,813.19ZM695,713.837c-2.77,2.546-5.027,4.911-8.349,6.6-5.336,2.733-12.157,4.617-18.282,3.917a49.708,49.708,0,0,1-6.839-1.207,17.133,17.133,0,0,0-1.925-.424.446.446,0,0,0-.277.18c-.174.177-.145.556.142.593a46.045,46.045,0,0,0,11.807,1.777,31.326,31.326,0,0,0,10.095-1.85,32.928,32.928,0,0,0,7.977-3.759,70.409,70.409,0,0,0,7.15-6.313,3.622,3.622,0,0,1,.611-.543h.007c.172.9-.464,2.739-.88,4.2-.023.289.351.379.548.228.273-.183.28-.551.394-.834C698.213,713.367,698.7,709.762,695,713.837Z" transform="translate(-548.86 -706.099)" fill="#e8e8e8"/>
        <path id="Path_5285" data-name="Path 5285" d="M697.8,732.4a19.893,19.893,0,0,1-.893,2.706.319.319,0,0,0,.227.449c.684-.018.669-.99.936-1.463a5.974,5.974,0,0,0,.463-1.867C698.358,731.905,697.888,732.11,697.8,732.4Zm3.16.692c-.173-.32-.644-.115-.733.175-.038.3-.244.611-.152.909.119.24.451.184.611.015A1.776,1.776,0,0,0,700.959,733.093Zm212.249,85.041c-.295-.3-.809-.345-1.182-.549a22.361,22.361,0,0,1-9.644-7.306,33.27,33.27,0,0,1-1.825-2.9c-.321-.224-.795.225-.634.568a22.6,22.6,0,0,0,12.829,10.807A.48.48,0,0,0,913.208,818.134Zm-5.732-7.2a21.105,21.105,0,0,1-1.371-1.909,8.183,8.183,0,0,0-.48-.8c-.321-.224-.794.226-.634.568a15.335,15.335,0,0,0,1.54,2.34c.217.31.5.744.884.36A.4.4,0,0,0,907.476,810.939ZM705.094,860.7a14.3,14.3,0,0,0-2.376,4.356c-.071.167-.128.406.055.52.407.238.68-.268.754-.606.189-.531.412-1.049.652-1.559a29.731,29.731,0,0,1,1.617-2.547C705.918,860.408,705.27,860.353,705.094,860.7Zm-.129-3.191a19.168,19.168,0,0,0-2.462.694c-.335.1-.835.3-.671.738.145.278.469.124.688.036.559-.206,1.129-.377,1.7-.527.38-.145.51-.017.943-.3C705.415,857.947,705.339,857.46,704.966,857.512Zm3.879-.49a9.267,9.267,0,0,0-2.855-2.516c-.159-.075-.306-.219-.486-.223a.5.5,0,0,0-.484.534c.044.246.335.289.511.418a8.809,8.809,0,0,1,1.171.8,19.463,19.463,0,0,1,1.647,1.672C708.7,857.828,709.113,857.317,708.844,857.022ZM678.57,830.355c-.25-.427-.92.066-.727.464.466.8.873,2.36,1.139,2.628C680.422,833.7,678.777,830.973,678.57,830.355Zm1.739-.253c-.086-.116-.15-.271-.311-.287a.484.484,0,0,0-.505.623c.213.269.411.827.834.541C680.7,830.757,680.554,830.362,680.309,830.1Zm-55.1-84.856c-.477.923-.947,1.85-1.373,2.8a39.247,39.247,0,0,0-3.293,15.912,4.976,4.976,0,0,1-.145,1.159s-.008.006-.007.006l-.019.008h-.017c-.138-.063-1.81-1.427-2.753-1.943-.573-.31-1.177-.552-1.774-.809a.377.377,0,0,0-.29-.006c-.29.088-.495.558-.175.733a12.715,12.715,0,0,1,3.527,2.014c.518.355,1.108,1.1,1.782.661.776-.489.59-1.573.675-2.365a40.078,40.078,0,0,1,1.7-11.26,55.284,55.284,0,0,1,2.87-6.894C625.859,744.9,625.358,744.973,625.212,745.247Zm-1.932,1.106c.106-.323-.293-.514-.537-.327a11.6,11.6,0,0,0-1.408,2.97c.012.467.67.324.761-.035.267-.686.577-1.354.9-2.016l.029-.06-.012.023A4.59,4.59,0,0,0,623.28,746.353Zm-3.37.885c-.743-.106-.645.987-.667,1.472.145.42.756.13.77-.231C619.972,748.1,620.346,747.449,619.91,747.238Z" transform="translate(-554.21 -720.049)" fill="#e8e8e8"/>
      </g>
    </g>
  </g>
</svg>
