<svg xmlns="http://www.w3.org/2000/svg" xmlns:xlink="http://www.w3.org/1999/xlink" width="729" height="680" viewBox="0 0 729 680">
  <defs>
    <linearGradient id="linear-gradient" x1="-3.051" y1="-1.082" x2="-2.899" y2="-0.483" gradientUnits="objectBoundingBox">
      <stop offset="0.37" stop-color="#c7cfe4"/>
      <stop offset="1" stop-color="#fff"/>
    </linearGradient>
  </defs>
  <g id="Group_414" data-name="Group 414" transform="translate(-983 -2250)">
    <path id="Path_6062" data-name="Path 6062" d="M20,0H709a20,20,0,0,1,20,20V660a20,20,0,0,1-20,20H20A20,20,0,0,1,0,660V20A20,20,0,0,1,20,0Z" transform="translate(983 2250)" fill="#8fe875" opacity="0"/>
    <g id="Layer_1" data-name="Layer 1" transform="translate(1064.265 2306.944)">
      <circle id="Ellipse_56" data-name="Ellipse 56" cx="245.187" cy="245.187" r="245.187" transform="translate(-4.264 477.421) rotate(-79)" fill="#f5ffb4" opacity="0"/>
      <rect id="Rectangle_194" data-name="Rectangle 194" width="1.407" height="160.479" transform="translate(211.986 59.636)" fill="#b0bed9"/>
      <path id="Path_5287" data-name="Path 5287" d="M73.575,34.782a9.392,9.392,0,1,1-2.763-6.654,9.427,9.427,0,0,1,2.763,6.654Z" transform="translate(148.507 73.856)" fill="#b0bed9"/>
      <path id="Path_5288" data-name="Path 5288" d="M65.011,31.732c-.563.879-2.322-.211-4.468-1.618s-3.87-2.5-3.307-3.518,3.236-1.2,5.382.211S65.609,30.817,65.011,31.732Z" transform="translate(154.573 74.867)" fill="#b0bed9"/>
      <rect id="Rectangle_195" data-name="Rectangle 195" width="1.407" height="160.479" transform="translate(322.584 64.808)" fill="#b0bed9"/>
      <path id="Path_5289" data-name="Path 5289" d="M105.015,42.252a9.428,9.428,0,1,1-9.392-9.392,9.428,9.428,0,0,1,9.392,9.392Z" transform="translate(227.665 92.664)" fill="#b0bed9"/>
      <path id="Path_5295" data-name="Path 5295" d="M17.95,67.826,62.766,97.445l44.816-28.916L62.766,38.91Z" transform="translate(55.93 107.896)" fill="#3def65"/>
      <path id="Path_5296" data-name="Path 5296" d="M63.27,95.061a.528.528,0,0,1-.387,0L18.067,65.336a.7.7,0,0,1-.317-.6.774.774,0,0,1,.317-.6L62.883,35.083a.7.7,0,0,1,.774,0L108.473,64.7a.633.633,0,0,1,.317.563.668.668,0,0,1-.317.6L63.657,94.885a.7.7,0,0,1-.387.176ZM19.755,64.738,63.27,93.513l43.514-28.142L63.27,36.631Z" transform="translate(55.426 97.969)" fill="#313341"/>
      <path id="Path_5297" data-name="Path 5297" d="M30.69,376.52l44.816-28.951V47.33L30.69,76.246Z" transform="translate(88.006 129.096)" fill="#11845b"/>
      <path id="Path_5298" data-name="Path 5298" d="M17.95,347.4l44.816,29.619V76.749L17.95,47.13Z" transform="translate(55.93 128.592)" fill="#05c168"/>
      <path id="Path_5299" data-name="Path 5299" d="M50.351,84.026a.7.7,0,0,1-.387,0L14.787,60.844a.7.7,0,0,1-.317-.563.774.774,0,0,1,.317-.6l14.071-9.111a.712.712,0,1,1,.774,1.2L16.44,60.281l33.77,22.3,14-9.111a.7.7,0,1,1,.774,1.161L50.914,83.85a.809.809,0,0,1-.563.176Z" transform="translate(47.168 136.97)" fill="#eef0f2"/>
      <path id="Path_5300" data-name="Path 5300" d="M25.174,353.714a.6.6,0,0,1-.352,0,.669.669,0,0,1-.352-.6V67.546a.7.7,0,0,1,.317-.6l15.619-10.1a.668.668,0,0,1,.95,0,.7.7,0,0,1-.211.985l-15.337,9.92V351.533l15.971-10.307a.7.7,0,1,1,.774,1.161L25.49,353.433a.809.809,0,0,1-.317.281Z" transform="translate(72.345 152.57)" fill="#eef0f2"/>
      <path id="Path_5301" data-name="Path 5301" d="M50.351,363.006a.7.7,0,0,1-.387,0L14.787,339.824a.774.774,0,0,1-.317-.6V53.691a.739.739,0,0,1,1.09-.633L50.738,76.2a.774.774,0,0,1,.317.6V362.3a.633.633,0,0,1-.387.6A.563.563,0,0,1,50.351,363.006ZM15.983,338.769,49.647,361V77.224L15.983,54.992Z" transform="translate(47.168 143.279)" fill="#eef0f2"/>
      <path id="Path_5302" data-name="Path 5302" d="M15.163,142.289a.72.72,0,0,1-.387-1.337l16.252-9.709a.7.7,0,0,1,.7,1.2l-16.217,9.744a.669.669,0,0,1-.352.105Z" transform="translate(47.108 340.251)" fill="#eef0f2"/>
      <path id="Path_5303" data-name="Path 5303" d="M50.32,67.361,95.136,96.945l44.816-28.916L95.136,38.41Z" transform="translate(137.429 106.637)" fill="#ffdc5e"/>
      <path id="Path_5304" data-name="Path 5304" d="M95.64,94.451a.809.809,0,0,1-.387,0L50.437,64.726a.739.739,0,0,1-.317-.6.7.7,0,0,1,.317-.563L95.429,34.614a.774.774,0,0,1,.774,0l44.64,29.76a.739.739,0,0,1,0,1.2L96.027,94.345a.7.7,0,0,1-.387.106ZM52.125,64.163,95.64,92.9l43.55-28.142L95.64,36.232Z" transform="translate(136.925 96.819)" fill="#313341"/>
      <path id="Path_5305" data-name="Path 5305" d="M63.06,303.8l44.816-28.916V46.83L63.06,75.746Z" transform="translate(169.505 127.837)" fill="#f88136"/>
      <path id="Path_5306" data-name="Path 5306" d="M50.32,274.66l44.816,29.619V76.224L50.32,46.64Z" transform="translate(137.429 127.358)" fill="#ffa065"/>
      <path id="Path_5307" data-name="Path 5307" d="M82.4,83.624a.739.739,0,0,1-.387,0L47.227,60.336a.774.774,0,0,1-.317-.6.809.809,0,0,1,.352-.6l14.071-9.076a.7.7,0,1,1,.739,1.161L48.88,59.738,82.4,82.006l14.071-8.9a.712.712,0,1,1,.774,1.2L83,83.483a.6.6,0,0,1-.6.141Z" transform="translate(128.844 135.472)" fill="#eef0f2"/>
      <path id="Path_5308" data-name="Path 5308" d="M57.5,280.963a.6.6,0,0,1-.352,0,.668.668,0,0,1-.352-.6V67.014a.668.668,0,0,1,.317-.6L72.806,56.285a.739.739,0,0,1,.985.211.774.774,0,0,1-.211.985L58.208,67.4V278.958l15.971-10.307a.7.7,0,1,1,.774,1.161l-16.92,10.87a.6.6,0,0,1-.528.281Z" transform="translate(153.744 151.378)" fill="#eef0f2"/>
      <path id="Path_5309" data-name="Path 5309" d="M82.681,290.314a.528.528,0,0,1-.387,0L47.117,267.167a.774.774,0,0,1-.317-.6V53.183a.7.7,0,0,1,.7-.6.633.633,0,0,1,.739,0L83.42,75.732a.774.774,0,0,1,.317.6V289.575a.633.633,0,0,1-.387.6A.563.563,0,0,1,82.681,290.314ZM48.348,266.042l33.63,22.232V76.717L48.489,54.344Z" transform="translate(128.567 142.027)" fill="#eef0f2"/>
      <path id="Path_5310" data-name="Path 5310" d="M47.505,121.278a.668.668,0,0,1-.6-.317.7.7,0,0,1,.246-.985l16.217-9.709a.7.7,0,0,1,.985.246.739.739,0,0,1-.246.95l-16.252,9.709a.668.668,0,0,1-.352.105Z" transform="translate(128.565 287.284)" fill="#eef0f2"/>
      <path id="Path_5311" data-name="Path 5311" d="M82.3,69.481,127.116,99.1l44.816-28.951L127.116,40.53Z" transform="translate(217.946 111.975)" fill="#ffc1bc"/>
      <path id="Path_5312" data-name="Path 5312" d="M127.479,96.58a.7.7,0,0,1-.387,0L82.417,66.855a.668.668,0,0,1-.317-.6.633.633,0,0,1,.317-.563l44.816-28.951a.7.7,0,0,1,.774,0l44.816,29.584a.7.7,0,0,1,.317.6.774.774,0,0,1-.317.6L128.007,96.474A.809.809,0,0,1,127.479,96.58ZM84.106,66.292l43.374,28.74L170.994,66.89l-43.514-28.7Z" transform="translate(217.442 102.148)" fill="#313341"/>
      <path id="Path_5313" data-name="Path 5313" d="M95.04,232.506l44.816-28.916V48.95L95.04,77.9Z" transform="translate(250.023 133.174)" fill="#ff8378"/>
      <path id="Path_5314" data-name="Path 5314" d="M82.3,203.365l44.816,29.619V78.379L82.3,48.76Z" transform="translate(217.946 132.696)" fill="#ff9d94"/>
      <path id="Path_5315" data-name="Path 5315" d="M114.555,85.784a.528.528,0,0,1-.387,0l-35-23.147a.69.69,0,0,1,0-1.161l14.282-9.392a.7.7,0,1,1,.774,1.161L80.855,61.934l33.7,22.3,14.071-8.97a.7.7,0,0,1,.739,1.2l-14.071,9.181a.492.492,0,0,1-.739.141Z" transform="translate(209.26 140.769)" fill="#eef0f2"/>
      <path id="Path_5316" data-name="Path 5316" d="M89.5,209.631a.562.562,0,0,1-.352,0A.739.739,0,0,1,88.8,209V69.132a.7.7,0,0,1,.317-.6L104.806,58.4a.7.7,0,0,1,.739,1.2l-15.337,9.92V207.661l15.971-10.342a.739.739,0,0,1,.985.211.774.774,0,0,1-.211.985l-17.1,11.011A.668.668,0,0,1,89.5,209.631Z" transform="translate(234.312 156.718)" fill="#eef0f2"/>
      <path id="Path_5317" data-name="Path 5317" d="M114.681,218.975a.7.7,0,0,1-.387,0L79.117,195.828a.774.774,0,0,1-.317-.6V55.294a.741.741,0,0,1,1.091-.6l35.177,23.147a.774.774,0,0,1,.317.6v139.8a.774.774,0,0,1-.387.633.527.527,0,0,1-.317.106ZM80.313,194.738l33.665,22.232V78.828l-33.665-22.2Z" transform="translate(209.134 147.374)" fill="#eef0f2"/>
      <path id="Path_5318" data-name="Path 5318" d="M79.486,102.523a.7.7,0,0,1-.6-.352.739.739,0,0,1,.246-.95l16.252-9.709a.694.694,0,1,1,.7,1.2l-16.252,9.709a.81.81,0,0,1-.352.106Z" transform="translate(209.152 240.08)" fill="#eef0f2"/>
      <path id="Path_5319" data-name="Path 5319" d="M114.87,47.9l44.816,29.619L204.5,48.6,159.686,18.98Z" transform="translate(299.949 57.718)" fill="#79f9d3"/>
      <path id="Path_5320" data-name="Path 5320" d="M160.181,74.941a.528.528,0,0,1-.387,0L114.978,45.356a.739.739,0,0,1,0-1.2l44.816-28.916a.633.633,0,0,1,.774,0l44.816,29.619a.669.669,0,0,1,.317.6.7.7,0,0,1-.317.563L160.568,74.976a.809.809,0,0,1-.387-.035Zm-43.55-30.323,43.55,28.775L203.7,45.251,160.181,16.476Z" transform="translate(299.454 47.98)" fill="#313341"/>
      <path id="Path_5321" data-name="Path 5321" d="M127.61,214.9l44.816-28.916V27.4L127.61,56.316Z" transform="translate(332.025 78.917)" fill="#3ddeae"/>
      <path id="Path_5322" data-name="Path 5322" d="M114.87,185.78,159.686,215.4V56.819L114.87,27.2Z" transform="translate(299.949 78.413)" fill="#65eac3"/>
      <path id="Path_5323" data-name="Path 5323" d="M147.261,64.026h-.387L111.7,40.879a.738.738,0,0,1-.317-.6.774.774,0,0,1,.317-.6l14.071-9.111a.712.712,0,0,1,.774,1.2l-12.98,8.478,33.77,22.3,13.825-9.076a.7.7,0,0,1,.739,1.161L147.824,63.85a.7.7,0,0,1-.563.176Z" transform="translate(291.162 86.615)" fill="#eef0f2"/>
      <path id="Path_5324" data-name="Path 5324" d="M122.084,192.1a.527.527,0,0,1-.317,0,.7.7,0,0,1-.387-.633V47.629a.739.739,0,0,1,.352-.6l15.654-10.1a.668.668,0,0,1,.985,0,.739.739,0,0,1-.211.985l-15.337,9.92V189.957l15.971-10.342a.7.7,0,0,1,.739,1.2l-17.061,11.01a.7.7,0,0,1-.387.281Z" transform="translate(316.34 102.378)" fill="#eef0f2"/>
      <path id="Path_5325" data-name="Path 5325" d="M147.261,201.381h-.387L111.7,178.234a.774.774,0,0,1-.317-.6V33.761a.739.739,0,0,1,.387-.633.7.7,0,0,1,.7,0l35.177,23.147a.774.774,0,0,1,.317.6V200.678a.739.739,0,0,1-.387.633.563.563,0,0,1-.317.07Zm-34.333-24.237,33.63,22.232V57.294l-33.63-22.232Z" transform="translate(291.162 93.1)" fill="#eef0f2"/>
      <path id="Path_5326" data-name="Path 5326" d="M112.05,82.079a.7.7,0,0,1-.352-1.3l16.252-9.744a.7.7,0,0,1,.7,1.2l-16.217,9.709A.809.809,0,0,1,112.05,82.079Z" transform="translate(291.125 188.657)" fill="#eef0f2"/>
      <path id="Path_5327" data-name="Path 5327" d="M34.519,84.173c-1.231-.633-1.829-2.146-1.829-4.5a12.523,12.523,0,0,1,.844-4.538A13.86,13.86,0,0,1,35.856,71.3a12.452,12.452,0,0,1,3.307-2.814,6.121,6.121,0,0,1,3.307-1.055,2.709,2.709,0,0,1,2.322,1.231,6.3,6.3,0,0,1,.844,3.518,12.8,12.8,0,0,1-1.829,6.578A13.086,13.086,0,0,1,39.163,83.5,4.819,4.819,0,0,1,34.519,84.173ZM53.445,60.428l5.839-3.518L42.716,93.776l-5.875,3.518ZM40.253,78.016a7.634,7.634,0,0,0,.422-2.814,4.151,4.151,0,0,0-.422-2.322.774.774,0,0,0-1.091,0,2.814,2.814,0,0,0-1.09,1.442,7.774,7.774,0,0,0-.457,2.849,4.256,4.256,0,0,0,.457,2.322.774.774,0,0,0,1.09,0,2.849,2.849,0,0,0,1.09-1.653Zm12.066,8.689c-1.2-.633-1.794-2.111-1.794-4.468a13.473,13.473,0,0,1,.809-4.573,13.684,13.684,0,0,1,2.322-3.9,12.629,12.629,0,0,1,3.307-2.849A7.036,7.036,0,0,1,60.3,69.855a2.779,2.779,0,0,1,2.287,1.266,6.3,6.3,0,0,1,.844,3.518,12.84,12.84,0,0,1-1.794,6.578,13.051,13.051,0,0,1-4.679,4.714,4.714,4.714,0,0,1-4.643.6Zm5.734-6.3a7.036,7.036,0,0,0,.457-2.849,3.94,3.94,0,0,0-.457-2.322.774.774,0,0,0-1.091,0,2.849,2.849,0,0,0-1.091,1.442,7.634,7.634,0,0,0-.422,2.814,4.151,4.151,0,0,0,.422,2.322.739.739,0,0,0,1.091,0,2.568,2.568,0,0,0,1.091-1.583Z" transform="translate(93.041 153.216)" fill="#fff"/>
      <path id="Path_5328" data-name="Path 5328" d="M37.433,98.382a.739.739,0,0,1-.352,0,.492.492,0,0,1,0-.6l16.569-36.8.246-.246,5.839-3.518a.6.6,0,0,1,.633,0,.528.528,0,0,1,0,.6L43.73,94.654l-.211.211-5.875,3.518ZM54.459,61.446,38.594,96.624l4.292-2.5L58.75,58.949Zm0,26.629a3.518,3.518,0,0,1-1.724-.422c-1.372-.739-2.075-2.392-2.075-4.96a12.734,12.734,0,0,1,.879-4.714,14.071,14.071,0,0,1,2.392-4.116,13.472,13.472,0,0,1,3.518-2.92,6.367,6.367,0,0,1,3.518-1.126A3.307,3.307,0,0,1,63.71,71.3a6.684,6.684,0,0,1,.915,3.87,13.473,13.473,0,0,1-1.864,6.86A13.86,13.86,0,0,1,57.8,86.95a7.035,7.035,0,0,1-3.518,1.126Zm6.367-17.342a5.98,5.98,0,0,0-2.99.985,12.031,12.031,0,0,0-3.166,2.709,12.665,12.665,0,0,0-2.216,3.764,12.453,12.453,0,0,0-.809,4.362c0,2.146.528,3.518,1.513,4.01h0a4.256,4.256,0,0,0,4.116-.668,12.84,12.84,0,0,0,4.468-4.538,12.242,12.242,0,0,0,1.724-6.332,5.839,5.839,0,0,0-.739-3.271,2.146,2.146,0,0,0-1.864-1.02ZM36.694,85.683a3.517,3.517,0,0,1-1.689-.422h0c-1.372-.7-2.075-2.392-2.075-4.925a13.508,13.508,0,0,1,.844-4.749A14.422,14.422,0,0,1,36.2,71.507a12.523,12.523,0,0,1,3.518-2.955,7.035,7.035,0,0,1,3.518-1.126h0A3.307,3.307,0,0,1,45.981,68.9a7.036,7.036,0,0,1,.915,3.9,13.367,13.367,0,0,1-1.864,6.824,13.86,13.86,0,0,1-4.819,4.925A7.281,7.281,0,0,1,36.694,85.683Zm6.437-17.2a6.226,6.226,0,0,0-2.955.985,12.206,12.206,0,0,0-3.166,2.709,12.84,12.84,0,0,0-2.216,3.8,11.433,11.433,0,0,0-.809,4.362c0,2.111.492,3.518,1.513,4.01h0a4.362,4.362,0,0,0,4.151-.7A12.769,12.769,0,0,0,45.84,72.809,5.98,5.98,0,0,0,45.1,69.5a2.146,2.146,0,0,0-1.9-.985ZM57.2,82.975a1.3,1.3,0,0,1-.985-.492,4.292,4.292,0,0,1-.563-2.673,7.986,7.986,0,0,1,.492-3.025,3.2,3.2,0,0,1,1.3-1.653,1.3,1.3,0,0,1,1.794.246,4.749,4.749,0,0,1,.528,2.673,8.161,8.161,0,0,1-.457,3.025h0a3.518,3.518,0,0,1-1.337,1.689,1.618,1.618,0,0,1-.915.211Zm1.02-7.035h-.246a2.322,2.322,0,0,0-.844,1.2,6.578,6.578,0,0,0-.422,2.6,3.729,3.729,0,0,0,.317,2.005h.422a2.357,2.357,0,0,0,.879-1.2,7.387,7.387,0,0,0,.387-2.6c0-1.442-.211-1.864-.317-2.005h-.176ZM39.4,80.618a1.231,1.231,0,0,1-.985-.492,4.432,4.432,0,0,1-.563-2.673,8.161,8.161,0,0,1,.457-3.025,3.518,3.518,0,0,1,1.337-1.689,1.266,1.266,0,0,1,1.759.281,4.221,4.221,0,0,1,.563,2.638,7.985,7.985,0,0,1-.492,3.025h0a3.307,3.307,0,0,1-1.3,1.689,1.407,1.407,0,0,1-.915.246Zm1.02-7.035h-.246a2.251,2.251,0,0,0-.879,1.161,7.6,7.6,0,0,0-.387,2.638c0,1.442.211,1.864.317,2.005s0,.176.422,0a2.286,2.286,0,0,0,.879-1.161,7.458,7.458,0,0,0,.387-2.638,3.518,3.518,0,0,0-.317-1.97l-.387-.07Z" transform="translate(93.645 153.78)" fill="#233d77"/>
      <path id="Path_5329" data-name="Path 5329" d="M66.719,87.782c-1.231-.668-1.829-2.146-1.829-4.5a12.382,12.382,0,0,1,.844-4.538,13.4,13.4,0,0,1,2.322-3.94,11.926,11.926,0,0,1,3.307-2.814,6.121,6.121,0,0,1,3.307-1.055,2.709,2.709,0,0,1,2.322,1.231,6.613,6.613,0,0,1,.809,3.518,12.769,12.769,0,0,1-1.794,6.578,13.086,13.086,0,0,1-4.643,4.749,4.819,4.819,0,0,1-4.643.774ZM85.645,64.038l5.839-3.518L74.916,97.386,69.041,100.9ZM72.312,81.451a7.774,7.774,0,0,0,.422-2.814,4.151,4.151,0,0,0-.422-2.357.774.774,0,0,0-1.091-.176,2.814,2.814,0,0,0-1.09,1.442,7.035,7.035,0,0,0-.457,2.814,3.8,3.8,0,0,0,.457,2.322.739.739,0,0,0,1.09,0,3.025,3.025,0,0,0,1.091-1.231Zm12.066,8.689c-1.2-.633-1.794-2.146-1.794-4.468a13.473,13.473,0,0,1,.809-4.573,14.353,14.353,0,0,1,2.322-3.94,12.452,12.452,0,0,1,3.307-2.814,7.035,7.035,0,0,1,3.342-1.055,2.779,2.779,0,0,1,2.287,1.266,6.227,6.227,0,0,1,.844,3.518A13.4,13.4,0,0,1,89.022,89.4a4.714,4.714,0,0,1-4.5.739Zm5.734-6.332a7.423,7.423,0,0,0,.457-2.814,4.186,4.186,0,0,0-.457-2.322.774.774,0,0,0-1.09,0,2.885,2.885,0,0,0-1.09,1.407,7.845,7.845,0,0,0-.422,2.849,4.151,4.151,0,0,0,.422,2.322.774.774,0,0,0,1.09,0,2.674,2.674,0,0,0,1.231-1.442Z" transform="translate(174.113 162.305)" fill="#fff"/>
      <path id="Path_5330" data-name="Path 5330" d="M69.686,102.1a.633.633,0,0,1-.352,0,.6.6,0,0,1,0-.633l16.5-36.9.211-.246,5.875-3.518a.528.528,0,0,1,.633,0,.492.492,0,0,1,0,.6L76.053,98.34a.774.774,0,0,1-.211.246L69.967,102.1ZM86.711,65.273,70.846,100.45l4.432-2.673L91.144,62.6Zm0,26.594a3.518,3.518,0,0,1-1.724-.387c-1.372-.739-2.075-2.392-2.075-4.96a12.734,12.734,0,0,1,.879-4.714,14.07,14.07,0,0,1,2.392-4.116,13.473,13.473,0,0,1,3.518-2.92,6.437,6.437,0,0,1,3.518-1.126,3.307,3.307,0,0,1,2.744,1.478,6.684,6.684,0,0,1,.915,3.869,13.719,13.719,0,0,1-6.719,11.749,6.719,6.719,0,0,1-3.518,1.02ZM93.149,74.7a5.98,5.98,0,0,0-2.99.985,12.03,12.03,0,0,0-3.166,2.709,12.241,12.241,0,0,0-2.216,3.764A12.453,12.453,0,0,0,83.9,86.38c0,2.146.528,3.518,1.513,4.01h0a4.327,4.327,0,0,0,4.151-.492,12.84,12.84,0,0,0,4.468-4.538,12.242,12.242,0,0,0,1.724-6.332,5.839,5.839,0,0,0-.739-3.272,2.146,2.146,0,0,0-1.864-1.02ZM68.876,89.51a3.518,3.518,0,0,1-1.689-.422h0c-1.372-.739-2.075-2.392-2.075-4.925a13.508,13.508,0,0,1,.774-4.819,14.422,14.422,0,0,1,2.357-4.116,11.961,11.961,0,0,1,3.518-2.92,7.036,7.036,0,0,1,3.518-1.126,3.307,3.307,0,0,1,2.744,1.477,7.035,7.035,0,0,1,.915,3.87,13.191,13.191,0,0,1-1.9,7.036,13.508,13.508,0,0,1-4.819,4.925,7.281,7.281,0,0,1-3.412.915Zm6.4-17.2a6.227,6.227,0,0,0-2.955.985A11.573,11.573,0,0,0,69.158,76a12.91,12.91,0,0,0-2.251,3.8,12.137,12.137,0,0,0-.774,4.362c0,2.111.492,3.518,1.513,4.01h0a4.362,4.362,0,0,0,4.151-.7A12.769,12.769,0,0,0,77.987,76.6a5.91,5.91,0,0,0-.739-3.272A2.287,2.287,0,0,0,75.279,72.309ZM89.35,86.8a1.3,1.3,0,0,1-.985-.492,4.292,4.292,0,0,1-.563-2.674,7.985,7.985,0,0,1,.492-3.025,3.307,3.307,0,0,1,1.3-1.689,1.3,1.3,0,0,1,1.759.281,4.432,4.432,0,0,1,.563,2.673A8.16,8.16,0,0,1,91.46,84.9h0a3.518,3.518,0,0,1-1.337,1.689,1.618,1.618,0,0,1-.774.106Zm1.02-7.035a.422.422,0,0,0-.246,0,2.568,2.568,0,0,0-.879,1.2,7.387,7.387,0,0,0-.387,2.6,4.01,4.01,0,0,0,.317,2.005H89.6a2.357,2.357,0,0,0,.879-1.2,7.386,7.386,0,0,0,.387-2.6c0-1.442-.211-1.9-.317-2.005a.176.176,0,0,0-.211-.106ZM71.55,84.445a1.161,1.161,0,0,1-.985-.528A4.221,4.221,0,0,1,70,81.279a7.915,7.915,0,0,1,.457-3.025A3.517,3.517,0,0,1,71.8,76.565a1.266,1.266,0,0,1,1.759.281,4.221,4.221,0,0,1,.563,2.638,7.985,7.985,0,0,1-.492,3.025h0a3.307,3.307,0,0,1-1.3,1.689,1.407,1.407,0,0,1-.809.141Zm1.02-7.035h-.246a2.251,2.251,0,0,0-.879,1.161,7.458,7.458,0,0,0-.387,2.638c0,1.442.211,1.864.317,2.005s.176,0,.422,0a2.462,2.462,0,0,0,.879-1.161,7.458,7.458,0,0,0,.387-2.638,3.518,3.518,0,0,0-.317-1.97s-.141-.176-.211-.176Z" transform="translate(174.664 162.758)" fill="#233d77"/>
      <path id="Path_5331" data-name="Path 5331" d="M98.919,91.357c-1.231-.633-1.829-2.111-1.829-4.468a12.383,12.383,0,0,1,.844-4.538,13.4,13.4,0,0,1,2.357-3.94,12.064,12.064,0,0,1,3.307-2.849,6.367,6.367,0,0,1,3.307-1.02,2.709,2.709,0,0,1,2.322,1.231,6.613,6.613,0,0,1,.809,3.518,12.84,12.84,0,0,1-1.794,6.578,12.7,12.7,0,0,1-4.643,4.714A4.643,4.643,0,0,1,98.919,91.357Zm18.961-23.71,5.839-3.518L107.116,101l-5.875,3.518ZM104.688,85.236a7.774,7.774,0,0,0,.422-2.814,4.151,4.151,0,0,0-.422-2.322.739.739,0,0,0-1.09-.176,2.673,2.673,0,0,0-1.09,1.442,7.7,7.7,0,0,0-.457,2.814,4.081,4.081,0,0,0,.457,2.322.774.774,0,0,0,1.09,0,3.025,3.025,0,0,0,1.055-1.442Zm12.066,8.689c-1.2-.633-1.794-2.146-1.794-4.5a13.4,13.4,0,0,1,.809-4.538,13.86,13.86,0,0,1,2.322-3.94,12.453,12.453,0,0,1,3.307-2.814,7.035,7.035,0,0,1,3.518-1.055,2.709,2.709,0,0,1,2.287,1.266,6.156,6.156,0,0,1,.844,3.518,12.453,12.453,0,0,1-1.829,6.578,13.085,13.085,0,0,1-4.819,4.608,4.819,4.819,0,0,1-4.679.7Zm5.734-6.332a7.422,7.422,0,0,0,.457-2.814,4.081,4.081,0,0,0-.457-2.322.739.739,0,0,0-1.09,0,2.884,2.884,0,0,0-1.09,1.407,7.845,7.845,0,0,0-.422,2.849,4.327,4.327,0,0,0,.422,2.322.774.774,0,0,0,1.09,0,2.674,2.674,0,0,0,1.055-1.618Z" transform="translate(255.184 171.394)" fill="#fff"/>
      <path id="Path_5332" data-name="Path 5332" d="M101.883,105.6a.669.669,0,0,1-.352,0,.6.6,0,0,1,0-.633l16.6-36.76.211-.246,5.875-3.518a.528.528,0,0,1,.633,0,.493.493,0,0,1,0,.6l-16.6,36.8a.775.775,0,0,1-.211.246l-5.875,3.518A.422.422,0,0,1,101.883,105.6Zm17.026-36.9-15.865,35.177,4.292-2.5L123.2,66.2Zm0,26.594a4.01,4.01,0,0,1-1.724-.387c-1.372-.739-2.075-2.392-2.075-4.96a13.051,13.051,0,0,1,.879-4.749,13.545,13.545,0,0,1,2.392-4.081,14.388,14.388,0,0,1,3.518-2.955,7.458,7.458,0,0,1,3.518-1.091,3.2,3.2,0,0,1,2.744,1.442,7.035,7.035,0,0,1,.915,3.9,13.719,13.719,0,0,1-6.719,11.749,6.719,6.719,0,0,1-3.518,1.126Zm6.437-17.167a6.226,6.226,0,0,0-2.99.95,13.507,13.507,0,0,0-3.166,2.709,12.84,12.84,0,0,0-2.216,3.8,12.276,12.276,0,0,0-.809,4.362c0,2.146.528,3.518,1.513,4.01h0a4.256,4.256,0,0,0,4.151-.7,12.558,12.558,0,0,0,4.468-4.538,12.03,12.03,0,0,0,1.724-6.3,5.98,5.98,0,0,0-.739-3.307,2.181,2.181,0,0,0-1.864-.985Zm-24.272,14.81a3.518,3.518,0,0,1-1.689-.422h0c-1.372-.739-2.075-2.392-2.075-4.925a13.507,13.507,0,0,1,.844-4.749,14.423,14.423,0,0,1,2.427-4.081,11.961,11.961,0,0,1,3.518-2.955,7.036,7.036,0,0,1,3.518-1.126h0a3.307,3.307,0,0,1,2.744,1.477,7.036,7.036,0,0,1,.915,3.87,13.191,13.191,0,0,1-1.9,7.036,13.508,13.508,0,0,1-4.819,4.925,7.281,7.281,0,0,1-3.553.95Zm6.437-17.2a5.839,5.839,0,0,0-2.955.985,11.011,11.011,0,0,0-3.166,2.709,12.91,12.91,0,0,0-2.251,3.8,12.137,12.137,0,0,0-.844,4.538c0,2.111.493,3.518,1.513,4.01h0a4.362,4.362,0,0,0,4.151-.7,12.84,12.84,0,0,0,4.467-4.538A12.593,12.593,0,0,0,110.15,80.2a5.91,5.91,0,0,0-.739-3.272,2.287,2.287,0,0,0-1.9-1.02Zm14.071,14.493a1.231,1.231,0,0,1-.985-.528,4.221,4.221,0,0,1-.563-2.638,7.984,7.984,0,0,1,.492-3.025,3.306,3.306,0,0,1,1.3-1.689,1.266,1.266,0,0,1,1.759.281,4.363,4.363,0,0,1,.563,2.638,7.915,7.915,0,0,1-.457,3.025h0a3.518,3.518,0,0,1-1.337,1.689,1.618,1.618,0,0,1-.844.246ZM122.6,83.2a.422.422,0,0,0-.246,0,2.322,2.322,0,0,0-.844,1.2,6.578,6.578,0,0,0-.422,2.6A4.011,4.011,0,0,0,121.407,89h.422a2.357,2.357,0,0,0,.879-1.2,7.457,7.457,0,0,0,.387-2.638c0-1.407-.211-1.864-.317-1.97a.176.176,0,0,0-.246,0Zm-18.89,4.573a1.161,1.161,0,0,1-.985-.528,4.221,4.221,0,0,1-.563-2.638,7.915,7.915,0,0,1,.457-3.025,3.518,3.518,0,0,1,1.337-1.689,1.266,1.266,0,0,1,1.759.281,4.221,4.221,0,0,1,.563,2.638,7.985,7.985,0,0,1-.493,3.025h0a3.307,3.307,0,0,1-1.3,1.689,1.794,1.794,0,0,1-.774.246Zm1.02-7.035h-.246a2.111,2.111,0,0,0-.879,1.161,7.458,7.458,0,0,0-.387,2.638c0,1.407.211,1.864.317,1.97s0,0,.422,0a2.463,2.463,0,0,0,.879-1.161,7.458,7.458,0,0,0,.387-2.638,3.518,3.518,0,0,0-.317-1.97Z" transform="translate(255.738 171.922)" fill="#233d77"/>
      <path id="Path_5333" data-name="Path 5333" d="M132.1,69.3c-1.2-.668-1.794-2.146-1.794-4.5a12.945,12.945,0,0,1,3.131-8.478,12.452,12.452,0,0,1,3.307-2.814,6.226,6.226,0,0,1,3.518-1.055,2.638,2.638,0,0,1,2.287,1.231A6.3,6.3,0,0,1,143.4,57.2a12.769,12.769,0,0,1-1.794,6.578,13.439,13.439,0,0,1-4.679,4.749,4.819,4.819,0,0,1-4.819.774Zm18.925-23.78L156.9,42,140.3,78.76l-5.875,3.518ZM137.838,63.106a7.035,7.035,0,0,0,.457-2.814,3.8,3.8,0,0,0-.457-2.322.774.774,0,0,0-1.09,0,3.026,3.026,0,0,0-1.091,1.442,7.773,7.773,0,0,0-.422,2.814,4.152,4.152,0,0,0,.422,2.322.739.739,0,0,0,1.09,0A2.814,2.814,0,0,0,137.838,63.106ZM149.9,71.8c-1.2-.633-1.794-2.146-1.794-4.468a12.7,12.7,0,0,1,.844-4.573,14.07,14.07,0,0,1,2.286-3.94A12.6,12.6,0,0,1,154.758,56a6.789,6.789,0,0,1,3.307-1.055,2.814,2.814,0,0,1,2.322,1.266,6.543,6.543,0,0,1,.809,3.518,12.875,12.875,0,0,1-1.794,6.613,12.7,12.7,0,0,1-4.643,4.714,4.784,4.784,0,0,1-4.854.6Zm5.769-6.332a7.529,7.529,0,0,0,.422-2.814,4.327,4.327,0,0,0-.422-2.322.774.774,0,0,0-1.091,0,2.673,2.673,0,0,0-1.09,1.442,6.79,6.79,0,0,0-.457,2.814,3.8,3.8,0,0,0,.457,2.322.739.739,0,0,0,1.09,0,2.849,2.849,0,0,0,1.091-1.583Z" transform="translate(338.823 115.676)" fill="#fff"/>
      <path id="Path_5334" data-name="Path 5334" d="M135.128,83.5a.527.527,0,0,1-.352,0,.563.563,0,0,1,0-.633l16.6-36.76a.457.457,0,0,1,.211-.246l5.875-3.518a.528.528,0,0,1,.739.668l-16.6,36.76a.387.387,0,0,1-.211.246l-5.875,3.518Zm16.991-36.936-15.83,35.177,4.292-2.5,15.83-35.177Zm0,26.594a3.518,3.518,0,0,1-1.689-.387c-1.372-.739-2.075-2.392-2.075-4.96A13.472,13.472,0,0,1,149.2,63.1a15.97,15.97,0,0,1,2.392-4.116,13.049,13.049,0,0,1,3.518-2.92,6.719,6.719,0,0,1,3.518-1.126,3.307,3.307,0,0,1,2.744,1.477,7.036,7.036,0,0,1,.915,3.869,13.191,13.191,0,0,1-1.9,7.035,13.507,13.507,0,0,1-4.819,4.925,7.035,7.035,0,0,1-3.518.7Zm6.473-17.167a5.874,5.874,0,0,0-2.99.985,11.609,11.609,0,0,0-3.2,2.709,13.436,13.436,0,0,0-2.216,3.764,12.417,12.417,0,0,0-.774,4.362c0,2.146.492,3.518,1.513,4.01h0a4.327,4.327,0,0,0,4.151-.668,12.84,12.84,0,0,0,4.468-4.538,12.593,12.593,0,0,0,1.724-6.332,5.839,5.839,0,0,0-.739-3.272,2.181,2.181,0,0,0-1.9-1.02ZM134.319,70.8a3.518,3.518,0,0,1-1.724-.422h0c-1.372-.739-2.075-2.392-2.075-4.925a12.77,12.77,0,0,1,.879-4.749,13.544,13.544,0,0,1,2.392-4.081,12.945,12.945,0,0,1,3.518-2.955,7.036,7.036,0,0,1,3.518-1.126,3.307,3.307,0,0,1,2.744,1.477,6.789,6.789,0,0,1,.915,3.869A13.825,13.825,0,0,1,137.7,69.433a7.036,7.036,0,0,1-3.447,1.231Zm6.437-17.2a6.332,6.332,0,0,0-2.99.985A12.136,12.136,0,0,0,134.6,57.3a12.839,12.839,0,0,0-2.216,3.8,12.135,12.135,0,0,0-.809,4.362c0,2.111.528,3.518,1.548,4.01h0a4.292,4.292,0,0,0,4.116-.7,12.77,12.77,0,0,0,6.191-10.87,5.91,5.91,0,0,0-.739-3.271,2.216,2.216,0,0,0-1.864-1.02ZM154.828,68.1a1.337,1.337,0,0,1-1.02-.492,4.608,4.608,0,0,1-.528-2.673,8.057,8.057,0,0,1,.457-3.025,3.518,3.518,0,0,1,1.337-1.689,1.3,1.3,0,0,1,1.759.281,4.433,4.433,0,0,1,.563,2.673,8.127,8.127,0,0,1-.563,2.744h0a3.307,3.307,0,0,1-1.3,1.689,1.724,1.724,0,0,1-.774.352Zm1.02-7.035a.387.387,0,0,0-.246,0,2.357,2.357,0,0,0-.879,1.2,6.651,6.651,0,0,0-.387,2.6c0,1.442.211,1.864.317,2.005s0,0,.422,0a2.322,2.322,0,0,0,.844-1.2,6.579,6.579,0,0,0,.422-2.6,3.869,3.869,0,0,0-.317-2.005s-.176-.141-.246-.141Zm-18.855,4.679a1.231,1.231,0,0,1-.985-.528,4.221,4.221,0,0,1-.563-2.638,7.845,7.845,0,0,1,.492-3.025,3.307,3.307,0,0,1,1.3-1.689,1.3,1.3,0,0,1,1.794.281,4.538,4.538,0,0,1,.528,2.638A8.055,8.055,0,0,1,139.1,63.8h0a3.517,3.517,0,0,1-1.337,1.689,1.337,1.337,0,0,1-.844.106Zm1.02-7.035h-.246a2.216,2.216,0,0,0-.844,1.161A6.65,6.65,0,0,0,136.5,62.5a4.01,4.01,0,0,0,.317,2.005.32.32,0,0,0,.422,0,2.111,2.111,0,0,0,.879-1.161,7.457,7.457,0,0,0,.387-2.638c0-1.442-.211-1.864-.317-1.97a.246.246,0,0,0-.246-.211Z" transform="translate(339.352 116.385)" fill="#233d77"/>
      <g id="Axonometric_Cube" data-name="Axonometric Cube" transform="translate(265.667 363.628)">
        <path id="Cube_face_-_top" data-name="Cube face - top" d="M168.223,217.77l141.554-81.752-30.886-17.835c-36.057-20.79-87.064-24.624-123.121-3.8l-83.3,48.088Z" transform="translate(-72.47 -100.547)" fill="#b0bed9"/>
        <path id="Cube_face_-_left" data-name="Cube face - left" d="M99.69,215.318l141.554-81.752V110.63L99.69,192.382Z" transform="translate(-3.937 -75.159)" fill="#a0c2aa"/>
        <path id="Cube_face_-_right" data-name="Cube face - right" d="M72.47,141.086l95.753,55.3V173.449L72.47,118.15Z" transform="translate(-72.47 -56.226)" fill="#e4f0fd"/>
      </g>
      <path id="Path_5335" data-name="Path 5335" d="M72.76,169.523c36.514-12.84,100.15-49.248,136.313-75.913L308.8,151.266s-14.7,10.94-26.77,17.87c-28.74,16.533-75.7,43.268-114.01,63.812C139.527,220.425,96.012,193.479,72.76,169.523Z" transform="translate(193.927 245.617)" fill="#fff"/>
      <path id="Path_5336" data-name="Path 5336" d="M168.519,231.669h-.281c-28.81-12.594-72.4-39.821-95.472-63.53a.6.6,0,0,1-.176-.633.668.668,0,0,1,.457-.492c37.147-13.086,101.557-50.48,136.137-75.807a.633.633,0,0,1,.739,0l99.869,57.445a.633.633,0,0,1,.352.563.6.6,0,0,1-.281.6,318.792,318.792,0,0,1-26.84,17.94c-31.66,18.257-77.39,44.148-114.045,63.847ZM74.56,167.892c23.041,23.287,65.536,49.811,93.924,62.3,36.655-19.664,82.034-45.449,113.693-63.671a308.482,308.482,0,0,0,25.855-17.2l-98.5-56.776C175.238,117.694,111.849,154.489,74.56,167.892Z" transform="translate(193.428 239.262)" fill="#233d77"/>
      <path id="Path_5337" data-name="Path 5337" d="M90.241,175.283s42.213,4.714,50.585,15.795c0,0,10.553-65.078,31.66-91.637L75.22,164.976Z" transform="translate(200.121 260.295)" fill="#b0bed9"/>
      <path id="Path_5339" data-name="Path 5339" d="M166.822,142.908a583.038,583.038,0,0,1-56.565-35.177l.809-1.161a573.636,573.636,0,0,0,56.284,34.966Zm-6.4,3.87a568.776,568.776,0,0,1-56.53-35.177l.809-1.126a578.548,578.548,0,0,0,56.284,34.966Zm-6.4,3.834a583.047,583.047,0,0,1-56.565-35.177l.809-1.161a573.638,573.638,0,0,0,56.284,34.966Zm-6.367,3.834a568.769,568.769,0,0,1-56.53-35.177l.809-1.161a568.867,568.867,0,0,0,56.284,35.177Z" transform="translate(240.153 278.247)" fill="#5a5c71"/>
      <path id="Path_5340" data-name="Path 5340" d="M64.88,232.7c15.3-30.006,33.524-91.215,40.419-129.664L202.74,79.5s-2.709,15.724-6.156,27.333c-8.2,27.685-21.775,72.747-33.63,108.7C137.521,224.748,93.866,233.823,64.88,232.7Z" transform="translate(174.087 210.091)" fill="url(#linear-gradient)"/>
      <path id="Path_5341" data-name="Path 5341" d="M68.94,232.464h-5a.686.686,0,0,1-.6-1.02c15.584-30.569,33.77-92.763,40.349-129.488a.668.668,0,0,1,.528-.563l97.441-23.534a.668.668,0,0,1,.668.176.774.774,0,0,1,.211.633s-2.779,15.9-6.191,27.4c-9.076,30.6-22.267,74.26-33.63,108.733a.633.633,0,0,1-.422.422C138.029,223.986,97.5,232.464,68.94,232.464Zm-3.834-1.442c28.564.844,71.058-7.95,96.386-17.061,11.327-34.368,24.624-77.883,33.524-108.346,2.885-9.709,5.277-22.514,5.945-26.207L105,102.589c-6.578,36.479-24.448,97.547-39.891,128.433Z" transform="translate(170.027 205.892)" fill="#233d77"/>
      <path id="Path_5343" data-name="Path 5343" d="M78.932,116.92v-1.407A564.509,564.509,0,0,0,144.08,103.06l.387,1.372A572.387,572.387,0,0,1,78.932,116.92Zm-2.075,7.247-.211-1.372a579.927,579.927,0,0,0,65.184-12.453l.387,1.337a564.126,564.126,0,0,1-65.36,12.488Zm-2.111,7.176-.176-1.407a564.5,564.5,0,0,0,65.149-12.453l.387,1.372a579.383,579.383,0,0,1-65.36,12.488Zm-2.075,7.141v-1.372a581.451,581.451,0,0,0,65.149-12.453l.387,1.337A564.089,564.089,0,0,1,72.67,138.484Z" transform="translate(193.701 269.409)" fill="#5a5c71"/>
      <path id="Path_5344" data-name="Path 5344" d="M46.122,21.613,14.92,15,25.227,45.147Z" transform="translate(48.301 47.697)" fill="#ff8378"/>
      <path id="Path_5345" data-name="Path 5345" d="M71.807,144.8a9.568,9.568,0,1,1-2.79-6.788,9.6,9.6,0,0,1,2.79,6.788Z" transform="translate(143.169 350.33)" fill="#70d994"/>
      <path id="Path_5346" data-name="Path 5346" d="M89.6,24.6a9.568,9.568,0,1,1-2.8-6.8A9.6,9.6,0,0,1,89.6,24.6Z" transform="translate(187.96 47.697)" fill="#3def65"/>
      <path id="Path_5347" data-name="Path 5347" d="M48.448,64.048a5.628,5.628,0,0,1-3.975-1.653l-6.754-6.719a5.7,5.7,0,0,1,0-7.985l6.754-6.719a5.593,5.593,0,0,1,7.95,0l6.754,6.719a5.7,5.7,0,0,1,0,7.985l-6.754,6.719a5.628,5.628,0,0,1-3.975,1.653Zm0-21.106a2.04,2.04,0,0,0-1.477.633l-6.754,6.754a2.146,2.146,0,0,0,0,2.99l6.754,6.754a2.111,2.111,0,0,0,2.955,0l6.754-6.754a2.146,2.146,0,0,0,0-2.99l-6.824-6.86a2.04,2.04,0,0,0-1.407-.633Zm347.8,415.164H383.618v-3.518h12.629a5.629,5.629,0,0,0,5.628-5.593v-12.1h3.518v12.1A9.146,9.146,0,0,1,396.247,458.105ZM257.577,49.7,254.8,47.514l7.035-8.865a7.282,7.282,0,0,1,8.865-2.075,3.764,3.764,0,0,0,4.432-.844l7.985-8.935,2.427,2.427-8.02,8.935a7.246,7.246,0,0,1-8.583,1.653,3.729,3.729,0,0,0-4.538,1.055Zm0-11.855L254.8,35.66l7.035-8.865a7.247,7.247,0,0,1,8.865-2.04,3.834,3.834,0,0,0,4.432-.879l7.985-8.935,2.638,2.357-8.02,8.935a7.317,7.317,0,0,1-8.583,1.689,3.518,3.518,0,0,0-4.538,1.02Z" transform="translate(101.591 47.546)" fill="#4b4b4c"/>
    </g>
  </g>
</svg>
