<svg xmlns="http://www.w3.org/2000/svg" xmlns:xlink="http://www.w3.org/1999/xlink" width="688.105" height="484.932" viewBox="0 0 688.105 484.932">
  <defs>
    <linearGradient id="linear-gradient" x1="-17.201" y1="0.5" x2="-16.201" y2="0.5" gradientUnits="objectBoundingBox">
      <stop offset="0" stop-color="#6a6ae2"/>
      <stop offset="0.284" stop-color="#5857c7"/>
      <stop offset="0.756" stop-color="#3e3c9e"/>
      <stop offset="1" stop-color="#34318f"/>
    </linearGradient>
    <linearGradient id="linear-gradient-2" x1="-19.673" y1="0.5" x2="-18.673" y2="0.5" xlink:href="#linear-gradient"/>
    <linearGradient id="linear-gradient-3" x1="-10.52" y1="0.5" x2="-9.52" y2="0.5" gradientUnits="objectBoundingBox">
      <stop offset="0" stop-color="#3366a3"/>
      <stop offset="0.016" stop-color="#4a5abb"/>
      <stop offset="0.027" stop-color="#5555c6"/>
      <stop offset="1" stop-color="#1e1c6b"/>
    </linearGradient>
    <linearGradient id="linear-gradient-4" x1="-10.103" y1="0.5" x2="-9.103" y2="0.5" gradientUnits="objectBoundingBox">
      <stop offset="0" stop-color="#e33c5c"/>
      <stop offset="0.156" stop-color="#e4425d"/>
      <stop offset="0.36" stop-color="#e8525f"/>
      <stop offset="0.591" stop-color="#ef6d63"/>
      <stop offset="0.84" stop-color="#f89369"/>
      <stop offset="1" stop-color="#ffaf6d"/>
    </linearGradient>
    <linearGradient id="linear-gradient-5" x1="-8.338" y1="0.832" x2="-9.498" y2="0.151" gradientUnits="objectBoundingBox">
      <stop offset="0" stop-color="#ff5a72"/>
      <stop offset="0.407" stop-color="#fc5770"/>
      <stop offset="0.711" stop-color="#f34d69"/>
      <stop offset="0.981" stop-color="#e43d5d"/>
      <stop offset="1" stop-color="#e33c5c"/>
    </linearGradient>
    <clipPath id="clip-path">
      <path id="Path_4354" data-name="Path 4354" d="M2102.308,1757.459l-4.008,2.312a9.06,9.06,0,0,0,1.7-1.259L2104,1756.2A9.652,9.652,0,0,1,2102.308,1757.459Z" transform="translate(-2098.3 -1756.2)" fill="#1d2a4d"/>
    </clipPath>
    <clipPath id="clip-path-2">
      <path id="Path_4357" data-name="Path 4357" d="M1981.6,1559.937l4.008-2.312a10.487,10.487,0,0,1,2.133-.925l-4.008,2.312A7.9,7.9,0,0,0,1981.6,1559.937Z" transform="translate(-1981.6 -1556.7)" fill="#11845b"/>
    </clipPath>
    <linearGradient id="linear-gradient-6" x1="-9.405" y1="-0.329" x2="-8.274" y2="-3.721" gradientUnits="objectBoundingBox">
      <stop offset="0.409" stop-color="#bbc0e6"/>
      <stop offset="0.565" stop-color="#c4cae9"/>
    </linearGradient>
    <linearGradient id="linear-gradient-7" x1="-19.69" y1="-4.144" x2="-18.467" y2="-7.813" xlink:href="#linear-gradient-6"/>
    <linearGradient id="linear-gradient-8" x1="-57.039" y1="-19.034" x2="-55.535" y2="-23.545" xlink:href="#linear-gradient-6"/>
    <linearGradient id="linear-gradient-9" x1="0.333" y1="0.057" x2="0.821" y2="0.815" gradientUnits="objectBoundingBox">
      <stop offset="0" stop-color="#6b67e9"/>
      <stop offset="1" stop-color="#362e93"/>
    </linearGradient>
    <linearGradient id="linear-gradient-10" x1="0.658" y1="0.925" x2="0.281" y2="0.177" gradientUnits="objectBoundingBox">
      <stop offset="0" stop-color="#bbc0e6"/>
      <stop offset="1" stop-color="#f6f6fb"/>
    </linearGradient>
    <linearGradient id="linear-gradient-11" x1="0.648" y1="0.961" x2="0.289" y2="0.318" gradientUnits="objectBoundingBox">
      <stop offset="0" stop-color="#362e93"/>
      <stop offset="1" stop-color="#807cfb"/>
    </linearGradient>
    <linearGradient id="linear-gradient-12" x1="0.683" y1="0.743" x2="0.321" y2="0.147" gradientUnits="objectBoundingBox">
      <stop offset="0.074" stop-color="#a3a9d0"/>
      <stop offset="0.137" stop-color="#ced3f8"/>
      <stop offset="0.559" stop-color="#ced3f8"/>
      <stop offset="0.69" stop-color="#f6f6fb"/>
    </linearGradient>
    <linearGradient id="linear-gradient-13" x1="0.982" y1="0.859" x2="-0.01" y2="0.049" gradientUnits="objectBoundingBox">
      <stop offset="0.559" stop-color="#d1d7f3"/>
      <stop offset="0.69" stop-color="#f1f1f6"/>
    </linearGradient>
    <linearGradient id="linear-gradient-14" x1="0.982" y1="0.859" x2="-0.01" y2="0.049" xlink:href="#linear-gradient-13"/>
    <linearGradient id="linear-gradient-15" x1="0.982" y1="0.859" x2="-0.009" y2="0.049" xlink:href="#linear-gradient-13"/>
    <linearGradient id="linear-gradient-16" x1="0.218" y1="-4.875" x2="0.718" y2="-6.861" gradientUnits="objectBoundingBox">
      <stop offset="0.409" stop-color="#bbc0e6"/>
      <stop offset="0.413" stop-color="#bcc1e7"/>
      <stop offset="0.565" stop-color="#ced3f8"/>
    </linearGradient>
  </defs>
  <g id="Group_1428" data-name="Group 1428" transform="translate(-1070.583 -337.223)">
    <g id="web-development" transform="translate(1070.583 337.223)">
      <path id="Path_4078" data-name="Path 4078" d="M539.731,350.569c0-6.476-4.59-14.422-10.2-17.661L461.6,293.689c-5.608-3.235-10.2-.588-10.2,5.889V364.39c0,6.479,4.587,14.424,10.2,17.661l67.933,39.22c5.608,3.239,10.2.592,10.2-5.882Z" transform="translate(-288.244 -203.871)" fill="#05c168"/>
      <path id="Path_4079" data-name="Path 4079" d="M543.011,413.568v-64.82c0-6.476-4.589-14.422-10.2-17.661L464.88,291.868c-2.771-1.6-5.289-1.756-7.131-.731l2.67-1.553.006.009c1.864-1.193,4.485-1.108,7.39.57l67.933,39.22c5.608,3.237,10.2,11.185,10.2,17.661v64.813c0,3.392-1.265,5.718-3.264,6.712l-2.421,1.414c1.7-1.124,2.753-3.327,2.753-6.413Z" transform="translate(-291.523 -202.051)" fill="#11845b"/>
      <path id="Path_4080" data-name="Path 4080" d="M493.972,385.344v-5.336a5.475,5.475,0,0,0,2.118.734,1.511,1.511,0,0,0,1.232-.634,4.052,4.052,0,0,0,.713-1.956,27.809,27.809,0,0,0,.155-3.625,31.253,31.253,0,0,1,.346-5.814,2.907,2.907,0,0,1,1.251-2.012,3.724,3.724,0,0,1,2.638-.112,16.187,16.187,0,0,1,3.7,1.734l1.021.589v5.314a10.719,10.719,0,0,0-2.745-1.306.889.889,0,0,0-.9.328,3.5,3.5,0,0,0-.289,1.779q0,1.4-.173,5.214a11.876,11.876,0,0,1-.5,3.28,3.792,3.792,0,0,1-1.03,1.662,3.957,3.957,0,0,1-1.916.74,16.224,16.224,0,0,1,1.858,2.84,13.65,13.65,0,0,1,1.107,3.1,23.8,23.8,0,0,1,.5,4.158q.134,3.768.135,4.792a6.169,6.169,0,0,0,.308,2.223,4.574,4.574,0,0,0,.934,1.418,13.49,13.49,0,0,0,2.7,1.862v5.336l-1.02-.589a22.838,22.838,0,0,1-3.986-2.779,12.293,12.293,0,0,1-2.34-2.941,10.8,10.8,0,0,1-1.281-3.485,32.481,32.481,0,0,1-.328-5.337,31.123,31.123,0,0,0-.308-5.492,9.171,9.171,0,0,0-1.28-3.285,8.936,8.936,0,0,0-2.629-2.4Zm44.4,25.637a5.479,5.479,0,0,0-2.118-.733,1.483,1.483,0,0,0-1.223.639,4.3,4.3,0,0,0-.722,1.951,27.516,27.516,0,0,0-.154,3.6,32.451,32.451,0,0,1-.337,5.831,2.9,2.9,0,0,1-1.242,2.029,3.748,3.748,0,0,1-2.658.1,16.172,16.172,0,0,1-3.7-1.734l-1.02-.589V416.74A9.754,9.754,0,0,0,527.9,418a.959.959,0,0,0,.934-.327,3.335,3.335,0,0,0,.308-1.746q.01-1.351.164-5.086a11.813,11.813,0,0,1,.52-3.4,3.813,3.813,0,0,1,1.126-1.707,3.294,3.294,0,0,1,1.8-.662,19.244,19.244,0,0,1-2.079-3.29,15.691,15.691,0,0,1-1.233-4.447q-.212-1.678-.308-7.026a8.416,8.416,0,0,0-.26-2.374,3.822,3.822,0,0,0-.866-1.356,14.188,14.188,0,0,0-2.8-1.918v-5.315l1.02.589a23.285,23.285,0,0,1,3.986,2.768,11.868,11.868,0,0,1,2.33,2.935,11.18,11.18,0,0,1,1.281,3.5,31.7,31.7,0,0,1,.337,5.342,33.21,33.21,0,0,0,.289,5.481,9.108,9.108,0,0,0,1.29,3.291,9.015,9.015,0,0,0,2.638,2.4ZM507.719,390.1c0-1.4.982-1.967,2.195-1.267a4.851,4.851,0,0,1,2.194,3.8c0,1.4-.982,1.967-2.194,1.267a4.851,4.851,0,0,1-2.195-3.8Zm7.661,4.422c0-1.4.982-1.967,2.194-1.267a4.851,4.851,0,0,1,2.195,3.8c0,1.4-.983,1.966-2.195,1.267a4.851,4.851,0,0,1-2.194-3.8Z" transform="translate(-310.25 -242.183)" fill="#fff"/>
      <path id="Path_4083" data-name="Path 4083" d="M1126.6,405.475c0,3.962-2.807,5.581-6.238,3.6L910.852,288.114a13.829,13.829,0,0,1-6.238-10.8V119.283c0-3.961,2.8-5.581,6.238-3.6l209.512,120.962a13.839,13.839,0,0,1,6.238,10.8Z" transform="translate(-522.547 -112.121)" fill="#aeaeae"/>
      <path id="Path_4084" data-name="Path 4084" d="M1127.231,231.02,917.715,110.057c-1.738-1-3.312-1.079-4.446-.4v0l-4.482,2.6.013,0a4.489,4.489,0,0,1,4.209.52l209.513,120.962a13.839,13.839,0,0,1,6.238,10.8V402.567c0,1.966-.693,3.355-1.808,4.013v0l4.477-2.6-.012,0c1.255-.594,2.051-2.03,2.051-4.132V241.822a13.84,13.84,0,0,0-6.237-10.8Z" transform="translate(-524.705 -109.214)" fill="#05c168"/>
      <path id="Path_4085" data-name="Path 4085" d="M917.528,131.5V287.046l209.513,120.963V252.46Z" transform="translate(-529.224 -120.734)" fill="#d0d0d0"/>
      <path id="Path_4086" data-name="Path 4086" d="M816.8,672.484a13.834,13.834,0,0,1-12.473,0L594.808,551.521c-3.428-1.979-3.428-5.22,0-7.2l142.808-82.45a13.846,13.846,0,0,1,12.473,0L959.6,582.834c3.43,1.979,3.43,5.219,0,7.2Z" transform="translate(-361.052 -290.765)" fill="#d0d0d0"/>
      <path id="Path_4087" data-name="Path 4087" d="M831.535,489.477l-10.246-5.915,5.123-2.958,10.246,5.915Zm17.257,9.964-10.247-5.917,5.122-2.958,10.247,5.917Zm17.256,9.962L855.8,503.487l5.123-2.957,10.247,5.917-5.125,2.957Zm17.257,9.964-10.244-5.915,5.124-2.958,10.244,5.915Zm17.258,9.962-10.246-5.915,5.124-2.956,10.246,5.915ZM917.82,539.3l-10.246-5.917,5.122-2.958,10.249,5.915Zm17.258,9.964-10.244-5.917,5.123-2.958L940.2,546.3Zm17.258,9.96-10.247-5.913,5.125-2.96,10.244,5.917Zm17.253,9.964-10.245-5.913,5.122-2.96,10.247,5.917-5.124,2.957Zm17.258,9.964L976.6,573.231l5.125-2.956,10.246,5.915Zm17.258,9.964-10.246-5.917,5.122-2.956,10.247,5.915-5.123,2.958Zm17.258,9.964-10.249-5.917,5.125-2.958,10.247,5.917ZM822.452,504.16,804.03,493.525l10.246-5.915L832.7,498.245Zm-9.53,13.6L787.49,503.073l10.248-5.915,25.431,14.685Zm-10.247,14.011-32.442-18.732,10.246-5.915,32.44,18.732Zm-34.9,3.96L749.35,525.1l13.872-8.009,18.421,10.634ZM793.2,550.414l-18.422-10.636,13.871-8.009L807.076,542.4ZM818.636,565.1l-18.421-10.634,13.872-8.011,18.421,10.637Zm87.688,50.63-18.42-10.64,13.871-8.007L920.2,607.715Zm43.1,24.882-36.131-20.862,13.872-8.007L963.3,632.6Zm-68.491-39.543-55.286-31.922,13.871-8.007,55.288,31.92Zm-36.393-84.154-15.076-8.7,10.244-5.917,15.077,8.7Zm-9.53,13.6-15.078-8.7,10.247-5.917,15.076,8.7Zm-9.776,13.739-15.075-8.7,10.247-5.915,15.076,8.7-10.248,5.915ZM847.321,557l-15.076-8.7,10.246-5.917,15.076,8.706Zm22.084,12.751-15.074-8.7,10.246-5.914,15.076,8.7ZM891.5,582.5l-15.076-8.7,10.245-5.919,15.075,8.705L891.5,582.5Zm22.083,12.751L898.5,586.549l10.245-5.915,15.074,8.706Zm22.088,12.751-15.074-8.7,10.245-5.919,15.076,8.705-10.247,5.917Zm35.115,20.273-28.1-16.226,10.245-5.915,28.1,16.226ZM857.1,543.259l-15.075-8.7,10.247-5.917,15.074,8.7Zm22.088,12.753-15.076-8.706,10.247-5.915,15.076,8.706Zm22.083,12.753-15.074-8.7,10.247-5.918,15.076,8.705Zm22.088,12.75-15.076-8.7,10.248-5.917,15.074,8.7Zm22.088,12.753-15.078-8.706,10.249-5.917,15.076,8.706Zm42.123,24.32-35.114-20.275L962.7,592.4l35.115,20.273ZM866.624,529.664l-15.075-8.7,10.247-5.915,15.074,8.7Zm22.09,12.75-15.076-8.7,10.246-5.915,15.076,8.7-10.246,5.917ZM910.8,555.165l-15.073-8.7,10.244-5.911,15.076,8.7Zm22.083,12.754L917.8,559.214,928.05,553.3,943.126,562Zm22.088,12.749-15.076-8.7,10.245-5.913,15.078,8.7Zm22.088,12.752-15.074-8.7,10.245-5.915,15.076,8.7Zm27.049,15.617-20.039-11.57,10.246-5.915,20.037,11.57Z" transform="translate(-442.278 -301.218)" fill="#9f9f9f"/>
      <path id="Path_4088" data-name="Path 4088" d="M1119.811,588.184,954.248,492.6l4.975-2.872,165.56,95.589-4.973,2.87Z" transform="translate(-548.208 -305.933)" fill="#1d2a4d"/>
      <path id="Path_4089" data-name="Path 4089" d="M875.152,703.362l-84.484-48.778-52.5,30.311,84.484,48.776Z" transform="translate(-436.498 -391.164)" fill="#9f9f9f"/>
      <path id="Path_4090" data-name="Path 4090" d="M959.6,683.861l-142.807,82.45a14.008,14.008,0,0,1-10.113.968c-.024-.008-2.046-.787-2.36-.968L594.806,645.348a7.638,7.638,0,0,1-.662-.432.252.252,0,0,0-.031-.024c-.056-.042-.1-.083-.155-.125q-.179-.138-.346-.29c-.056-.049-.108-.1-.159-.153a4.886,4.886,0,0,1-.359-.39l-.043-.049-.024-.032a4.4,4.4,0,0,1-.325-.483,3.238,3.238,0,0,1-.457-1.5h-.012v3.019h.024c-.019,1.317.819,2.637,2.549,3.637L804.321,769.492c5,2.479,12.141,2,14.269,1.53s4.036-1,6.265-1.485l134.748-77.8c1.734-1,2.589-2.324,2.567-3.647v-7.8c-.015,1.292-.871,2.581-2.567,3.562Z" transform="translate(-361.05 -384.592)" fill="#05c168"/>
      <path id="Path_4091" data-name="Path 4091" d="M1123.126,270.314l-38.578-22.273L933.984,161.113c-2.379-1.372-4.325-.249-4.324,2.5v14.951a9.592,9.592,0,0,0,4.324,7.491l150.563,86.928,38.578,22.273c2.379,1.374,4.325.251,4.325-2.495V277.8a9.6,9.6,0,0,0-4.325-7.492Z" transform="translate(-535.496 -135.743)" fill="#a06ef8"/>
      <g id="Group_552" data-name="Group 552" transform="translate(193.265 181.834)">
        <path id="Path_4117" data-name="Path 4117" d="M666.713,583.663c0-5.686-4.029-12.665-8.953-15.507L522.681,490.168c-4.924-2.843-8.953-.517-8.953,5.169v117.58c0,5.686,4.029,12.665,8.954,15.507L657.76,706.412c4.924,2.843,8.953.517,8.953-5.169Z" transform="translate(-513.728 -487.37)" fill="#5652cc"/>
        <path id="Path_4118" data-name="Path 4118" d="M669.592,699.547V581.966c0-5.686-4.029-12.664-8.953-15.508L525.56,488.471c-2.433-1.405-4.645-1.543-6.263-.642l2.525-1.457.006.009c1.634-1.049,3.938-.973,6.488.5l135.079,77.987c4.924,2.844,8.953,9.822,8.953,15.508v117.58c0,2.975-1.11,5.018-2.867,5.895l-2.3,1.33c1.492-.988,2.415-2.923,2.415-5.633Z" transform="translate(-516.608 -485.673)" fill="#3def65"/>
        <path id="Path_8003" data-name="Path 8003" d="M584.01,591.348l-2.649-2.868-16.01,32.978L568,624.326Zm2.147,35.47,12.938-6.28-12.938-21.219-1.958,1.327,10.627,17.428L584.2,623.231Zm-24.587-14.2,1.959-1.325L552.9,593.868l10.627-5.156-1.959-3.589-12.938,6.28Z" transform="translate(-532.578 -536.655)" fill="#807dfb"/>
        <g id="Group_551" data-name="Group 551" transform="translate(73.918 56.713)">
          <path id="Path_7939" data-name="Path 7939" d="M686.546,616.873l-18.668-10.778v-3.979l18.668,10.778Z" transform="translate(-667.878 -602.115)" fill="#6b67e9"/>
          <path id="Path_7940" data-name="Path 7940" d="M676.877,657.873l-9-5.2v3.98l9,5.2Z" transform="translate(-667.878 -628.142)" fill="#ced3f8"/>
          <path id="Path_7941" data-name="Path 7941" d="M761.273,660.017,712.86,632.065v-3.979l48.413,27.951v3.98Z" transform="translate(-691.033 -615.484)" fill="#ff826a"/>
          <path id="Path_7942" data-name="Path 7942" d="M737.1,662.689,688.69,634.737v-3.979L737.1,658.709Z" transform="translate(-678.591 -616.859)" fill="#c4cae9"/>
          <path id="Path_7943" data-name="Path 7943" d="M725.7,672.733l-44.8-25.868v-3.979l44.8,25.867Z" transform="translate(-674.581 -623.102)" fill="#6b67e9"/>
          <path id="Path_7944" data-name="Path 7944" d="M691.516,687.614l-23.638-13.647v-3.979l23.638,13.647Z" transform="translate(-667.878 -637.053)" fill="#00d6dc"/>
          <path id="Path_7945" data-name="Path 7945" d="M766.545,730.932,723.1,705.85v-3.979l43.443,25.082Z" transform="translate(-696.305 -653.466)" fill="#6b67e9"/>
          <path id="Path_7946" data-name="Path 7946" d="M677.563,698.745l-9.685-5.592v-3.98l9.685,5.592Zm60.555,34.962-57.4-33.138V696.59l57.4,33.138v3.98Zm-51.572-20.465-18.668-10.778v-3.979l18.668,10.778Z" transform="translate(-667.878 -646.93)" fill="#ced3f8"/>
          <path id="Path_7947" data-name="Path 7947" d="M761.273,766.263,712.86,738.311v-3.979l48.413,27.951Z" transform="translate(-691.033 -670.175)" fill="#6b67e9"/>
          <path id="Path_7948" data-name="Path 7948" d="M737.1,772.128,688.69,744.177V740.2L737.1,768.148Z" transform="translate(-678.591 -673.194)" fill="#ff826a"/>
          <path id="Path_7949" data-name="Path 7949" d="M753.9,798.452,706.35,771v-3.979L753.9,794.473Z" transform="translate(-687.682 -687.001)" fill="#6b67e9"/>
        </g>
      </g>
      <path id="Path_4092" data-name="Path 4092" d="M987.493,198.107l146.729,84.714v17.335L987.493,215.442V198.107Z" transform="translate(-565.395 -155.17)" fill="#d0d0d0"/>
      <path id="Path_4093" data-name="Path 4093" d="M1299.84,383.832v1.949l13.783,7.958V391.79Zm0,6.659,13.783,7.958V396.5l-13.783-7.958Zm0,4.71,13.783,7.958V401.21l-13.783-7.958Z" transform="translate(-726.874 -251.188)" fill="#07143a"/>
      <path id="Path_4094" data-name="Path 4094" d="M950.088,181.57l3.978,2.3a14.882,14.882,0,0,0-4.6-4.428c-4.243-2.45-7.683-.464-7.683,4.436a13.334,13.334,0,0,0,.64,3.914l.531-1.983Zm4.1,2.476-1.056,3.939a1.306,1.306,0,0,1-1.339,1.021l-2.492-.07,4.82,2.782-.759,2.835-1.722-.995-.532,1.985-3.2-1.845.532-1.985-5.841-3.372a16.959,16.959,0,0,0,6.861,8.841c4.243,2.45,7.683.464,7.683-4.436A16.3,16.3,0,0,0,954.187,184.046Zm-7.239,3.532,2.352,1.357.9-3.375Z" transform="translate(-541.761 -144.977)" fill="#07143a"/>
      <path id="Path_4095" data-name="Path 4095" d="M1002.382,379.321l-68.368-39.472V239.213l68.368,39.472ZM1127.1,396.8l-118.585-68.465V282.225L1127.1,350.69Zm0,54.033-118.585-68.465V334.744L1127.1,403.209Z" transform="translate(-537.747 -176.422)" fill="#b8b8b8"/>
      <path id="Path_4097" data-name="Path 4097" d="M1127.248,397.893l-19.743-11.4V382.63l19.743,11.4Zm62.593,36.138-53.936-31.141v-3.864l53.936,31.141Zm-71.095,7.194-11.242-6.49V430.87l11.242,6.49Zm71.095,41.046L1127.4,446.222v-3.864l62.438,36.049Zm-57.174-19.724-25.161-14.527v-3.864l25.161,14.527Zm57.174,33.01-48.519-28.013V463.68l48.519,28.012Z" transform="translate(-627.44 -250.567)" fill="#d0d0d0"/>
      <path id="Path_4098" data-name="Path 4098" d="M1018.692,228.78l-1.355-.782,2.148,8.414,1.495.863,1.471-4.059,1.471,5.758,1.495.863,2.148-5.933-1.354-.783-1.541,4.531-1.542-6.31-1.354-.782-1.541,4.531Zm-10.65-6.149-1.354-.783,2.148,8.414,1.494.863,1.472-4.059,1.471,5.757,1.494.863,2.149-5.933-1.354-.782-1.542,4.531-1.541-6.31-1.355-.783-1.541,4.531Zm-10.65-6.149-1.354-.782,2.149,8.414,1.494.863,1.472-4.058,1.471,5.758,1.495.863,2.149-5.933-1.355-.782-1.541,4.531-1.542-6.311-1.354-.782-1.541,4.531Zm29.734,23.237a1.939,1.939,0,0,0,.876,1.517.581.581,0,0,0,.613.058.611.611,0,0,0,.251-.57,1.89,1.89,0,0,0-.865-1.5.61.61,0,0,0-.618-.068A.581.581,0,0,0,1027.126,239.72Z" transform="translate(-569.812 -164.266)" fill="#243665"/>
      <path id="Path_4135" data-name="Path 4135" d="M510.822,916.3c0-5.118,3.244-5.266,3.244-5.266a13.394,13.394,0,0,0,4.608-1.183c2.816-1.17,6.783-.718,4.566,3.372a1.05,1.05,0,0,1-.076.151,2,2,0,0,1-.719.631l-7.087,4.157c-1.081.618-4.511-.809-4.537-1.862Z" transform="translate(-318.961 -522.843)" fill="url(#linear-gradient)"/>
      <path id="Path_4136" data-name="Path 4136" d="M510.849,919.591c.062,1.051,3.446,2.449,4.518,1.837l7.087-4.157a6.5,6.5,0,0,0,1-.728c-.065.141-.121.276-.2.428a1.044,1.044,0,0,1-.077.151,2,2,0,0,1-.719.631l-7.087,4.157c-1.011.578-4.086-.637-4.492-1.659a1.2,1.2,0,0,1-.032-.208A3.479,3.479,0,0,1,510.849,919.591Z" transform="translate(-318.97 -526.594)" fill="#1e1c6b"/>
      <path id="Path_4137" data-name="Path 4137" d="M513.335,911.507a29.7,29.7,0,0,1,3.775.747,1.662,1.662,0,0,0,.263.762c.029.032.055.066.082.1.58.4,1.169,1.041-.207,1.905a1.909,1.909,0,0,1-2.478-.176,2.253,2.253,0,0,0-.8-.908,2.068,2.068,0,0,0-.767-.324.438.438,0,0,0-.007-.07S512.985,911.507,513.335,911.507Z" transform="translate(-320.157 -523.99)" fill="#fff"/>
      <path id="Path_4138" data-name="Path 4138" d="M512.841,807.9l14.417.257c-1.193,9.633-3.592,18.382-5.2,27.71-1.72,9.066-3.658,15.436-5.35,22.982-.618,1.405-3.453.873-4.028-.479-.448-6.948-.964-15.414,1.1-23.43C513.436,826.3,512.639,816.627,512.841,807.9Z" transform="translate(-319.715 -470.427)" fill="#1e1c6b"/>
      <path id="Path_4139" data-name="Path 4139" d="M544.267,935.768c0-5.118,3.244-5.265,3.244-5.265a13.4,13.4,0,0,0,4.61-1.184c2.814-1.169,6.783-.717,4.565,3.373a1.049,1.049,0,0,1-.076.151,1.987,1.987,0,0,1-.719.631L548.8,937.63C547.724,938.248,544.292,936.821,544.267,935.768Z" transform="translate(-336.252 -532.908)" fill="url(#linear-gradient-2)"/>
      <path id="Path_4140" data-name="Path 4140" d="M544.3,939.06c.061,1.051,3.446,2.449,4.517,1.837l7.087-4.156a6.6,6.6,0,0,0,1-.728c-.066.141-.123.276-.2.428a1.045,1.045,0,0,1-.076.151,1.988,1.988,0,0,1-.719.631l-7.087,4.157c-1.01.578-4.086-.636-4.492-1.659a1.061,1.061,0,0,1-.031-.208,3.249,3.249,0,0,1,.006-.454Z" transform="translate(-336.261 -536.659)" fill="#1e1c6b"/>
      <path id="Path_4141" data-name="Path 4141" d="M546.783,930.976a29.757,29.757,0,0,1,3.775.747,1.65,1.65,0,0,0,.261.762c.03.032.056.066.082.1.581.4,1.171,1.041-.2,1.906a1.909,1.909,0,0,1-2.478-.176,2.27,2.27,0,0,0-.8-.908,2.064,2.064,0,0,0-.766-.323.4.4,0,0,0-.009-.07s-.212-2.036.139-2.036Z" transform="translate(-337.448 -534.055)" fill="#fff"/>
      <path id="Path_4142" data-name="Path 4142" d="M523.417,832.889c-.877-4.14-10.98-4.655-10.318-20.936,3.17-.466,19.165,7.035,22.334,6.568.4,9.7-.541,18.722-.6,28.186-.215,9.226-1.088,15.826-1.524,23.548-.382,1.488-3.264,1.425-4.053.186-1.576-6.783-3.468-15.051-2.745-23.3-.944-4.567-2.067-9.408-3.094-14.256Z" transform="translate(-320.123 -472.511)" fill="url(#linear-gradient-3)"/>
      <path id="Path_4143" data-name="Path 4143" d="M517.438,746.518c-11.283,7.54-12.628,22.512-6.527,32.014C510.91,778.532,509.6,757.479,517.438,746.518Z" transform="translate(-317.15 -438.692)" fill="#e33c5c"/>
      <path id="Path_4144" data-name="Path 4144" d="M519.752,785.618c6.868,3.854,14.054,3.863,16.5-.876-.917-8.822-1.775-16-.007-24.456-.523-4.669-1.575-7.506-.978-10.231-3.778-.517-7.032-6.319-9.225-6.766-9.391-1.918-13.953,14.816-13.167,32.657a12.99,12.99,0,0,0,6.873,9.671Z" transform="translate(-319.98 -436.946)" fill="url(#linear-gradient-4)"/>
      <path id="Path_4145" data-name="Path 4145" d="M529.132,728.546c2.037-1.472,1.735-2.435,1.43-4.438a9.965,9.965,0,0,1-.613-3.458c0-4.462,2.841-8.317,6.324-8.077,7.017.482,5.769,4.174,5.769,8.636,0,4.134-1.875,6.978-5.01,7.458,0,.679,1.3,2.132,2.153,2.986-3.429,2.672-6.757-.338-8.078-.935-1.409-.638-2.929-1.183-1.974-2.172Z" transform="translate(-328.273 -421.137)" fill="#ffd3ab"/>
      <path id="Path_4146" data-name="Path 4146" d="M550.6,739.447c10.832-2.025,17.88-10.013,22.272-17.793l3.669,1.623c-2.232,10-9.995,23.8-24.2,26.376-7.186,0-6.621-9.293-1.739-10.206Z" transform="translate(-337.628 -425.838)" fill="url(#linear-gradient-5)"/>
      <path id="Path_4147" data-name="Path 4147" d="M601.063,709.671l-.014.041c0-1.815.38-2.871,1.08-3.18.151-.434.309-.887.464-1.319.9-2.531,3.739-4.7,4.34-4.1.363.364-1.078,1.478-1.838,2.683a4.288,4.288,0,0,0-.633,1.9s3.391.316,3.391,3.135c0,2.29-1.237,1.386-1.237.934-.874,2.321-1.915.95-2.317,2.841l-3.669-1.623s.172-.524.433-1.31Z" transform="translate(-365.391 -415.166)" fill="#ffd3ab"/>
      <path id="Path_4148" data-name="Path 4148" d="M532.6,708.619c.905-.466,1.721-.226,2.225-.549,1.2-.733,2.333-1.2,2.969-.853a6.865,6.865,0,0,1,.891.71c.625.623,1.9-.7,2.211.906a6.063,6.063,0,0,1,.106,1.252c3,.385,1.521,3.114-.887,8.371,0-.854-1.816-2.826-1.816.966,0,.408.306.488.037,1.029a35.031,35.031,0,0,1-3.127,3.035c-1.585,1.585-2.516.164-5.137.449a4.185,4.185,0,0,0-.689-2.39,6.991,6.991,0,0,1-1.691-4.318c2.034.251-1.582-5.265,4.908-8.609Z" transform="translate(-327.681 -418.314)" fill="#4b4b4c"/>
      <path id="Path_4149" data-name="Path 4149" d="M722.727,226.734v44.045L684.584,292.8c0-24.325,17.077-53.906,38.143-66.068Z" transform="translate(-408.794 -169.97)" fill="#807dfb"/>
      <path id="Path_4150" data-name="Path 4150" d="M707.817,218.126l26.077,15.055L696.526,299.7l-26.853-15.5C669.673,259.868,686.75,230.289,707.817,218.126Z" transform="translate(-401.086 -165.52)" fill="#1d88fe"/>
      <path id="Path_4151" data-name="Path 4151" d="M722.727,226.734v44.045L684.584,292.8c0-24.325,17.077-53.906,38.143-66.068Z" transform="translate(-408.794 -169.97)" fill="#8fc3ff"/>
      <path id="Path_4152" data-name="Path 4152" d="M684.583,339.945l38.144-22.023L688.953,357.89C686.167,353.38,684.583,347.336,684.583,339.945Z" transform="translate(-408.794 -217.113)" fill="#fdb52a"/>
      <path id="Path_4153" data-name="Path 4153" d="M727.4,265.2V221.158c21.067-12.163,38.144-2.3,38.144,22.022s-17.077,53.9-38.144,66.067c-14.666,8.467-27.392,6.251-33.775-4.078Z" transform="translate(-413.471 -164.394)" fill="#05c168"/>
      <path id="Path_4154" data-name="Path 4154" d="M748.644,212.553c10.6-6.117,20.18-6.659,27.092-2.6l6.722,3.881,0,.011c-6.873-3.762-16.255-3.114-26.607,2.863l-7.2-4.158Z" transform="translate(-441.913 -159.947)" fill="#11845b"/>
      <path id="Path_4155" data-name="Path 4155" d="M684.841,398.378a19.655,19.655,0,0,1-6.121-6.318l7.2,4.158a19.653,19.653,0,0,0,6.122,6.318Z" transform="translate(-405.763 -255.442)" fill="#11845b"/>
      <path id="Path_4156" data-name="Path 4156" d="M674.043,372.854c-2.786-4.508-4.37-10.554-4.37-17.944l7.2,4.158h0c0,7.39,1.584,13.435,4.37,17.944Z" transform="translate(-401.086 -236.236)" fill="#ff9e2c"/>
      <path id="Path_4175" data-name="Path 4175" d="M391.487,1031.214c0-1.256-2.217-2.837-3.325-3.481l.028,9.437c1.106.644,3.32,2.225,3.323,3.481Z" transform="translate(-255.548 -584.077)" fill="#9f9f9f"/>
      <path id="Path_4176" data-name="Path 4176" d="M464.836,1037.17l-.027-9.437c-1.12.646-3.367,2.241-3.363,3.5l.026,9.437C461.469,1039.41,463.717,1037.817,464.836,1037.17Z" transform="translate(-293.435 -584.077)" fill="#9f9f9f"/>
      <path id="Path_4177" data-name="Path 4177" d="M410.641,1045.489a15.411,15.411,0,0,1,14,0c1.914,1.112,2.873,2.568,2.879,4.027l-.029-9.438c0-1.456-.964-2.912-2.877-4.026a15.423,15.423,0,0,0-14,0c-1.95,1.127-2.922,2.6-2.919,4.08l.025,9.437C407.718,1048.092,408.692,1046.614,410.641,1045.489Z" transform="translate(-265.646 -587.509)" fill="#747474"/>
      <path id="Path_4178" data-name="Path 4178" d="M391.892,1067.031l-3.935-2.288.026,9.437,3.937,2.289Z" transform="translate(-255.442 -603.211)" fill="#d0d0d0"/>
      <path id="Path_4179" data-name="Path 4179" d="M463.988,1074.18l-.028-9.437L460,1067.031l.028,9.438Z" transform="translate(-292.686 -603.211)" fill="#d0d0d0"/>
      <path id="Path_4180" data-name="Path 4180" d="M403.435,1075.089c.753.217,1.527.4,2.318.556,2.462.37,2.993,3.054,3,4.183l-.026-9.437c0-1.129-.536-3.811-3-4.181q-1.171-.228-2.318-.558c-2.219-.755-5.953.969-7.3,1.749l.028,9.438c1.35-.782,5.085-2.507,7.3-1.75Z" transform="translate(-259.654 -603.584)" fill="#9f9f9f"/>
      <path id="Path_4181" data-name="Path 4181" d="M435.744,1076.034a3.14,3.14,0,0,1,1.121-.383q1.171-.229,2.319-.555c2.232-.758,5.946.967,7.289,1.748l-.027-9.438c-1.341-.781-5.057-2.5-7.287-1.747q-1.148.326-2.32.555a3.165,3.165,0,0,0-1.123.382c-1.521.877-1.844,2.885-1.93,3.842l.028,9.435c.086-.956.407-2.964,1.93-3.841Z" transform="translate(-279.135 -603.588)" fill="#9f9f9f"/>
      <path id="Path_4182" data-name="Path 4182" d="M385.444,1035.684c1.3,1.286-1.694,3.444-3.043,4.224l3.935,2.287c1.351-.781,5.085-2.5,7.3-1.749.753.217,1.529.4,2.318.557,2.492.373,3.005,3.122,3,4.224h5.583c.087-.958.409-2.965,1.93-3.842a3.167,3.167,0,0,1,1.123-.382q1.171-.23,2.32-.555c2.231-.757,5.946.966,7.287,1.747l3.963-2.287c-1.343-.779-4.311-2.938-3-4.224a9.451,9.451,0,0,0,.971-1.345,1.554,1.554,0,0,1,.672-.652c1.539-.891,5.057-1.1,6.627-1.1l.017-3.234c-2.039.08-6.641-.306-7.279-1.753a9.091,9.091,0,0,0-.954-1.343c-1.3-1.288,1.693-3.445,3.044-4.225l-3.937-2.287c-1.351.779-5.086,2.505-7.3,1.749q-1.146-.327-2.317-.556c-2.495-.376-3.008-3.123-3-4.223l-5.587,0a4.622,4.622,0,0,1-1.914,3.839,3.2,3.2,0,0,1-1.129.386c-.791.155-1.569.339-2.323.557-2.573.555-5.942-.97-7.285-1.749l-3.962,2.287c1.343.781,4.31,2.937,3,4.223a8.976,8.976,0,0,0-.967,1.346,1.575,1.575,0,0,1-.673.653c-1.541.889-5.057,1.1-6.636,1.1l-.01,3.234c1.9,0,6.641.3,7.279,1.751A9.027,9.027,0,0,0,385.444,1035.684Zm9.409-8.767a15.427,15.427,0,0,1,14,0c3.852,2.24,3.835,5.87-.045,8.11a15.419,15.419,0,0,1-13.993,0c-3.855-2.24-3.835-5.868.041-8.107Z" transform="translate(-249.886 -578.38)" fill="#3def65"/>
      <path id="Path_4183" data-name="Path 4183" d="M382.4,1056.9c1.35-.78,4.343-2.938,3.043-4.224a9.024,9.024,0,0,1-.955-1.345c-.638-1.447-5.379-1.751-7.279-1.751l.027,9.437a23.7,23.7,0,0,1,5.17.556Z" transform="translate(-249.886 -595.374)" fill="#9f9f9f"/>
      <path id="Path_4184" data-name="Path 4184" d="M427.839,1085.191l-.028-9.435h-5.583l.028,9.437Z" transform="translate(-273.159 -608.905)" fill="#d0d0d0"/>
      <path id="Path_4185" data-name="Path 4185" d="M469.941,1059.02l-.027-9.436c-1.57,0-5.087.208-6.627,1.1a1.552,1.552,0,0,0-.672.652,9.44,9.44,0,0,1-.971,1.345c-1.313,1.286,1.655,3.446,3,4.224l.008,2.711a23.354,23.354,0,0,1,5.29-.594Z" transform="translate(-293.368 -595.374)" fill="#9f9f9f"/>
      <text id="planning-01" transform="translate(142.656 121.372)" font-size="4" font-family="Segoe UI"><tspan x="0" y="0">planning-01</tspan></text>
      <g id="Group_426" data-name="Group 426" transform="translate(0 161.887)">
        <path id="Path_3989" data-name="Path 3989" d="M206.329,197.574l-.069,23.156c0,1.645-1.089,3.278-3.237,4.533l-46.2,26.845c-4.354,2.524-11.412,2.524-15.779.016l-46.5-26.845c-2.2-1.268-3.306-2.945-3.293-4.6l.057-23.156c0,1.673,1.1,3.334,3.306,4.6L141.1,228.981c4.367,2.512,11.44,2.512,15.779-.013l46.2-26.845C205.239,200.868,206.329,199.219,206.329,197.574Z" transform="translate(-91.248 -89.184)" fill="#a06ef8"/>
        <path id="Path_3990" data-name="Path 3990" d="M203,215.661c4.364,2.521,4.389,6.615.044,9.139l-46.2,26.848c-4.345,2.524-11.415,2.524-15.779.006l-46.5-26.848c-4.373-2.524-4.4-6.618-.05-9.145l46.2-26.848c4.345-2.524,11.415-2.524,15.788,0Z" transform="translate(-91.207 -111.863)" fill="#d0d0d0"/>
        <path id="Path_3991" data-name="Path 3991" d="M197.753,189.481,197.69,210.9c0,1.5-.992,2.989-2.951,4.131L152.64,239.5a15.882,15.882,0,0,1-14.382.013L95.876,215.049c-2.009-1.155-3.014-2.684-3-4.2l.05-21.423c0,1.526,1,3.039,3.014,4.2L138.308,218.1a15.881,15.881,0,0,0,14.382-.013l42.1-24.465C196.761,192.483,197.753,190.982,197.753,189.481Z" transform="translate(-87.773 -106.498)" fill="#4b4b4c"/>
        <path id="Path_3992" data-name="Path 3992" d="M206.329,185.623l-.069,23.156c0,1.645-1.089,3.278-3.237,4.533l-46.2,26.845c-4.354,2.524-11.412,2.524-15.779.016l-46.5-26.845c-2.2-1.268-3.306-2.945-3.293-4.605l.057-23.156c0,1.673,1.1,3.334,3.306,4.605L141.1,217.029c4.367,2.511,11.44,2.511,15.779-.013l46.2-26.845C205.239,188.913,206.329,187.268,206.329,185.623Z" transform="translate(-91.248 -114.76)" fill="#3ddeae"/>
        <path id="Path_3993" data-name="Path 3993" d="M203,203.707c4.364,2.521,4.389,6.615.044,9.139l-46.2,26.848c-4.345,2.524-11.415,2.524-15.779.006l-46.5-26.848c-4.373-2.524-4.4-6.618-.05-9.145l46.2-26.848c4.345-2.524,11.415-2.524,15.788,0Z" transform="translate(-91.207 -137.438)" fill="#96ffa0"/>
        <g id="Group_424" data-name="Group 424">
          <path id="Path_3994" data-name="Path 3994" d="M197.753,177.527l-.063,21.423c0,1.5-.992,2.989-2.951,4.131l-42.1,24.465a15.881,15.881,0,0,1-14.382.013L95.876,203.095c-2.009-1.155-3.014-2.684-3-4.2l.05-21.423c0,1.526,1,3.039,3.014,4.194l42.369,24.478a15.881,15.881,0,0,0,14.382-.013l42.1-24.465C196.761,180.529,197.753,179.028,197.753,177.527Z" transform="translate(-87.773 -132.072)" fill="#4b4b4c"/>
          <path id="Path_3995" data-name="Path 3995" d="M206.331,173.667l-.069,23.156c0,1.645-1.089,3.281-3.237,4.533l-46.2,26.845c-4.354,2.524-11.412,2.524-15.779.016l-46.5-26.845c-2.2-1.268-3.306-2.945-3.293-4.605l.056-23.156c0,1.673,1.1,3.334,3.306,4.6L141.1,205.071c4.367,2.512,11.44,2.512,15.779-.013l46.2-26.845C205.241,176.961,206.331,175.316,206.331,173.667Z" transform="translate(-91.25 -140.337)" fill="#ff8378"/>
          <path id="Path_3996" data-name="Path 3996" d="M203,191.753c4.364,2.521,4.389,6.615.044,9.139l-46.2,26.848c-4.345,2.524-11.415,2.524-15.779.006L94.566,200.9c-4.373-2.524-4.4-6.618-.05-9.145l46.2-26.848c4.345-2.524,11.415-2.524,15.788,0Z" transform="translate(-91.207 -163.012)" fill="#ffdc5e"/>
        </g>
        <g id="Group_425" data-name="Group 425" transform="translate(21.404 8.374)">
          <path id="Path_3997" data-name="Path 3997" d="M170.337,172.37l-.044,3.9a3.48,3.48,0,0,1-2.031,2.847l-29.011,16.859a10.95,10.95,0,0,1-9.911.009l-29.2-16.859a3.5,3.5,0,0,1-2.069-2.891l.035-3.9a3.516,3.516,0,0,0,2.075,2.891l29.193,16.865a10.95,10.95,0,0,0,9.911-.009l29.011-16.859A3.476,3.476,0,0,0,170.337,172.37Z" transform="translate(-98.068 -151.44)" fill="#9f9f9f"/>
          <path id="Path_3998" data-name="Path 3998" d="M168.244,183.727c2.741,1.582,2.756,4.153.025,5.739l-29.011,16.859a10.924,10.924,0,0,1-9.908,0l-29.2-16.859c-2.747-1.585-2.763-4.157-.031-5.742l29.011-16.858a10.927,10.927,0,0,1,9.914,0Z" transform="translate(-98.041 -165.679)" fill="#d0d0d0"/>
        </g>
      </g>
      <g id="Group_489" data-name="Group 489" transform="translate(407.701 104.806)">
        <path id="Path_4350" data-name="Path 4350" d="M2050.2,1739.438l3.982-2.338-.874,5.961-4.008,2.338Z" transform="translate(-2025.714 -1690.725)" fill="#05c168"/>
        <path id="Path_4351" data-name="Path 4351" d="M1958.2,1603.338l4.008-2.338,5.652,2.261-3.982,2.338Z" transform="translate(-1958.02 -1589.592)" fill="#05c168"/>
        <path id="Path_4352" data-name="Path 4352" d="M2022.177,1644.226l4.008-2.312a5.169,5.169,0,0,1-.54.257c-.026,0-.052.026-.077.026-.18.051-.334.1-.514.154-.026,0-.077.026-.1.026a5.078,5.078,0,0,1-.617.077h-.822a6.48,6.48,0,0,1-.694-.1.1.1,0,0,1-.077-.026c-.231-.051-.488-.128-.719-.205-.026,0-.026,0-.052-.026a4.833,4.833,0,0,1-.771-.308c-.026,0-.026-.026-.051-.026-.257-.128-.54-.257-.822-.411a8.869,8.869,0,0,1-.822-.514c-.026,0-.026-.026-.052-.026a8.088,8.088,0,0,1-.745-.565l-.077-.077-.694-.617-.077-.077c-.231-.231-.463-.437-.694-.693l-.051-.052c-.231-.257-.463-.514-.694-.8h0c-.231-.283-.462-.565-.668-.848h0a9.246,9.246,0,0,1-.565-.822c-.1-.18-.231-.36-.334-.514s-.18-.308-.283-.437a1.45,1.45,0,0,0-.128-.205c-.154-.257-.282-.514-.411-.771-.026-.026-.026-.051-.051-.077-.154-.308-.309-.642-.437-.951,0-.026-.026-.026-.026-.051-.128-.308-.257-.642-.385-.951a.09.09,0,0,0-.026-.051c-.128-.334-.231-.642-.334-.976,0-.026,0-.052-.026-.052-.1-.308-.18-.616-.257-.951,0-.026-.026-.051-.026-.077-.077-.334-.128-.642-.18-.976v-.026c-.052-.334-.077-.642-.128-.976v-.077a5.863,5.863,0,0,1-.026-.951c0-.308.026-.617.052-.9v-.077c.026-.257.051-.514.1-.771,0-.026.026-.077.026-.1a6.846,6.846,0,0,1,.18-.694c.026-.051.026-.077.052-.128.077-.206.154-.411.231-.591,0-.026.026-.051.026-.077a4.416,4.416,0,0,1,.334-.591c.026-.026.026-.051.051-.077.1-.154.206-.282.308-.411.051-.051.077-.1.129-.129l.308-.308c.052-.026.077-.077.128-.1a3.28,3.28,0,0,1,.488-.334l-4.008,2.312a5.385,5.385,0,0,0-.488.334c-.052.026-.077.077-.128.1l-.309.308c-.051.051-.077.1-.128.128a4.176,4.176,0,0,0-.308.411c-.026.026-.026.051-.052.077v.026c-.1.18-.206.36-.308.565v.026a.094.094,0,0,0-.026.077l-.154.385c-.026.077-.052.128-.077.205-.026.051-.026.077-.051.129,0,.026-.026.077-.026.1a2.408,2.408,0,0,0-.1.411c0,.051-.026.1-.026.154,0,.026-.026.077-.026.1,0,.051-.025.1-.025.154a1.97,1.97,0,0,0-.052.385c0,.077-.026.154-.026.231v.18c0,.128-.026.257-.026.385v.822a1.932,1.932,0,0,0,.026.385.439.439,0,0,0,.026.18v.205a2.544,2.544,0,0,0,.052.411c.025.128.025.283.051.411h0v.026l.077.385c.026.154.052.283.077.437,0,.051.026.1.026.154,0,.026.026.052.026.077.026.052.026.129.052.18.026.154.077.282.1.437a1.455,1.455,0,0,0,.1.308c0,.026,0,.051.026.051,0,.026,0,.026.026.051.051.154.077.283.128.437.051.128.1.282.154.411,0,.026.026.051.026.077a.089.089,0,0,0,.026.051c.026.077.077.18.1.257.052.128.1.257.154.411.051.1.077.18.129.282,0,.026.026.026.026.052s.025.026.025.051c.052.128.129.257.18.385.077.154.129.283.206.437,0,.026.026.052.026.077.026.026.026.051.051.077.052.1.128.231.18.334.077.154.154.283.231.411a1.389,1.389,0,0,0,.128.206c.026.026.026.051.051.077.077.129.154.231.231.36a6.15,6.15,0,0,0,.334.54c.025.026.025.052.051.077.18.257.334.488.514.745h0c.128.154.231.334.36.488l.308.385h0a4.412,4.412,0,0,0,.308.36c.1.129.206.231.308.36l.051.051.052.051.231.231a2.192,2.192,0,0,0,.36.334l.1.1.077.077a1.1,1.1,0,0,0,.18.154c.128.1.231.206.36.308.051.051.1.077.154.128l.077.077c.052.026.077.077.129.1.128.1.231.18.36.283a1.544,1.544,0,0,0,.257.18c.026,0,.026.026.051.026s.026.026.052.026c.128.077.231.154.36.231a1.631,1.631,0,0,0,.36.206c.026.026.051.026.077.051.077.051.18.1.257.154.1.051.231.128.334.18a1.511,1.511,0,0,1,.205.1c.026,0,.026.026.052.026a.09.09,0,0,1,.052.026,1.775,1.775,0,0,0,.334.129c.1.051.231.077.334.128.026,0,.026,0,.051.026.026,0,.026,0,.052.026l.231.077c.1.026.231.077.334.1a.327.327,0,0,0,.154.026.094.094,0,0,1,.077.026c.026,0,.077.026.1.026a1.727,1.727,0,0,0,.36.052c.077,0,.154.026.206.026h.154a1.926,1.926,0,0,0,.385,0h.411a2.879,2.879,0,0,0,.462-.077h0c.026,0,.077-.026.1-.026a3.144,3.144,0,0,0,.462-.128c.026,0,.026-.026.051-.026s.052-.026.077-.026A1.948,1.948,0,0,0,2022.177,1644.226Z" transform="translate(-1995.174 -1605.123)" fill="#11845b"/>
        <g id="Group_486" data-name="Group 486" transform="translate(36.175 51.282)" clip-path="url(#clip-path)">
          <path id="Path_4353" data-name="Path 4353" d="M2100,1758.612,2104,1756.3a11.136,11.136,0,0,1-1.7,1.259l-4.008,2.312a9.064,9.064,0,0,0,1.7-1.259" transform="translate(-2098.3 -1756.274)" fill="#1d2a4d"/>
        </g>
        <g id="Group_487" data-name="Group 487" transform="translate(6.192 0.026)" clip-path="url(#clip-path-2)">
          <path id="Path_4355" data-name="Path 4355" d="M1981.6,1560.309l4.008-2.312a8.916,8.916,0,0,1,1.747-.8l-4.008,2.312a8.3,8.3,0,0,0-1.747.8" transform="translate(-1981.6 -1557.072)" fill="#11845b"/>
          <path id="Path_4356" data-name="Path 4356" d="M1988.4,1559.041l4.008-2.312c.129-.051.257-.077.385-.128l-4.008,2.312a2.24,2.24,0,0,1-.385.129" transform="translate(-1986.653 -1556.626)" fill="#11845b"/>
        </g>
        <path id="Path_4358" data-name="Path 4358" d="M2091.9,1730.438l4.008-2.338,3.34,7.245-4.008,2.312Z" transform="translate(-2057.369 -1684.037)" fill="#05c168"/>
        <path id="Path_4359" data-name="Path 4359" d="M1989.9,1558.912l3.982-2.312,4.6,6.526-4.008,2.312Z" transform="translate(-1981.576 -1556.6)" fill="#05c168"/>
        <path id="Path_4360" data-name="Path 4360" d="M2016.515,1582.168a1.457,1.457,0,0,1-.308-.1c-.051-.026-.128-.026-.18-.051l-.308-.077a.2.2,0,0,1-.129-.051c-.051-.026-.128-.026-.18-.052-.1-.026-.205-.052-.334-.077a1.123,1.123,0,0,1-.128-.026c-.052,0-.1-.026-.154-.026a1.733,1.733,0,0,0-.36-.052c-.052,0-.1-.025-.154-.025a.231.231,0,0,1-.128-.026c-.128-.026-.282-.026-.411-.051-.052,0-.1-.026-.155-.026h-.077c-.18,0-.36-.026-.54-.026h-.154c-.257,0-.488.026-.72.026h-.077a2.554,2.554,0,0,0-.411.051h0l-4.008,2.312c.154-.026.308-.026.463-.051a6.708,6.708,0,0,1,.719-.026h.154a3.785,3.785,0,0,1,.54.026.873.873,0,0,1,.257.026,2.552,2.552,0,0,1,.411.052c.1,0,.18.026.283.026.128.026.231.026.36.051.1.026.206.026.308.051s.206.051.334.077c.1.026.205.051.334.077l.309.077c.154.051.308.1.488.154h0Z" transform="translate(-1994.728 -1575.103)" fill="#11845b"/>
        <path id="Path_4361" data-name="Path 4361" d="M2097.838,1709.811c.026-.128.051-.283.077-.411l-4.008,2.312a4.076,4.076,0,0,1-.128.539,3.119,3.119,0,0,1-.128.463c-.026.1-.051.18-.077.283a6.374,6.374,0,0,1-.257.745h0c-.1.282-.231.539-.334.8-.052.077-.077.18-.128.257s-.077.18-.128.257a2.764,2.764,0,0,1-.155.282,1.065,1.065,0,0,0-.128.231.77.77,0,0,1-.128.18,7.25,7.25,0,0,1-.514.719l4.008-2.312a7.263,7.263,0,0,0,.514-.719c.025-.026.051-.052.051-.077a.2.2,0,0,0,.052-.1,1.082,1.082,0,0,0,.128-.231,2.671,2.671,0,0,1,.154-.283c.052-.077.077-.18.128-.257l.077-.154c.025-.026.025-.077.051-.1a7.445,7.445,0,0,0,.334-.8h0c.077-.231.18-.488.257-.745,0-.026.026-.051.026-.077.026-.077.026-.129.051-.206.052-.154.077-.308.128-.462C2097.812,1709.888,2097.838,1709.862,2097.838,1709.811Z" transform="translate(-2057.295 -1670.142)" fill="#11845b"/>
        <path id="Path_4362" data-name="Path 4362" d="M2055.967,1604.125a1.085,1.085,0,0,1,.154.18c.36.385.694.771,1.054,1.156a1.133,1.133,0,0,1,.154.18c.36.437.719.848,1.053,1.31l4.008-2.312a1.983,1.983,0,0,1-.205-.283c-.205-.257-.385-.488-.591-.745a1.358,1.358,0,0,0-.257-.283,1.139,1.139,0,0,1-.154-.18c-.051-.077-.128-.154-.18-.231-.205-.231-.411-.463-.617-.668a2.4,2.4,0,0,0-.257-.257,1.128,1.128,0,0,1-.154-.18l-.231-.231-.668-.668c-.077-.052-.128-.129-.206-.18a1.207,1.207,0,0,1-.18-.18c-.1-.1-.205-.18-.308-.283l-.694-.617c-.052-.051-.128-.1-.18-.154l-4.008,2.312c.411.334.8.694,1.208,1.054a1.172,1.172,0,0,1,.18.18Z" transform="translate(-2028.835 -1588.478)" fill="#05c168"/>
        <path id="Path_4363" data-name="Path 4363" d="M2093,1659.128c0,.026.026.077.026.1.128.565.257,1.1.36,1.67l4.008-2.312c-.026-.077-.026-.154-.051-.257-.052-.257-.1-.54-.155-.8q-.077-.308-.154-.616c0-.026-.026-.077-.026-.1a.1.1,0,0,0-.025-.077c-.077-.283-.129-.54-.206-.822s-.154-.54-.231-.822c-.077-.257-.18-.539-.257-.8s-.18-.514-.283-.771c-.026-.051-.026-.077-.052-.129s-.025-.077-.051-.128a4.292,4.292,0,0,0-.205-.514c-.1-.257-.206-.488-.309-.745a2.8,2.8,0,0,0-.18-.411l-4.008,2.313c.231.539.463,1.1.668,1.67.026.052.026.077.051.129A22.68,22.68,0,0,1,2093,1659.128Z" transform="translate(-2056.849 -1627.192)" fill="#05c168"/>
        <path id="Path_4364" data-name="Path 4364" d="M2050.2,1574.712l3.982-2.312.848,6.963-3.982,2.338Z" transform="translate(-2026.383 -1568.341)" fill="#05c168"/>
        <path id="Path_4365" data-name="Path 4365" d="M2035.487,1566.241l4.008-2.312c-.18-.129-.385-.283-.591-.411a5.789,5.789,0,0,0-.514-.334l-.231-.154c-.052-.025-.077-.051-.128-.077-.283-.18-.591-.36-.9-.54-.077-.051-.129-.077-.206-.128-.231-.129-.463-.257-.668-.385-.154-.077-.308-.154-.437-.231-.077-.051-.18-.077-.257-.128l-.154-.077c-.283-.128-.565-.257-.822-.385-.051-.025-.128-.051-.18-.077l-4.008,2.313c.385.18.771.359,1.182.565.077.051.18.077.257.128a12.228,12.228,0,0,1,1.131.616c.411.231.822.488,1.208.745l.231.154C2034.742,1565.753,2035.1,1565.984,2035.487,1566.241Z" transform="translate(-2011.67 -1559.869)" fill="#05c168"/>
        <path id="Path_4366" data-name="Path 4366" d="M2099.7,1681.112l4.008-2.312,5.652,4.265-4.008,2.338Z" transform="translate(-2063.165 -1647.404)" fill="#05c168"/>
        <path id="Path_4367" data-name="Path 4367" d="M2125.862,1697.812c0-.154-.026-.334-.026-.488a.956.956,0,0,0-.026-.282v-.231q-.038-.5-.077-1c0-.1-.026-.206-.026-.308h0l-4.008,2.313c.051.514.1,1.027.128,1.541a.966.966,0,0,0,.026.283c.026.488.026.976.026,1.464,0,.411,0,.8-.026,1.182a1.254,1.254,0,0,1-.026.308c-.026.334-.052.694-.077,1.028l4.008-2.312c.026-.154.026-.334.052-.488a3.593,3.593,0,0,0,.026-.514c0-.1.026-.206.026-.308v-.128c.025-.334.025-.668.025-1v-.051C2125.862,1698.454,2125.862,1698.146,2125.862,1697.812Z" transform="translate(-2079.513 -1659.813)" fill="#05c168"/>
        <path id="Path_4368" data-name="Path 4368" d="M2072.5,1618.145l3.982-2.312,4.625-1.233-4.008,2.338Z" transform="translate(-2042.954 -1599.698)" fill="#11845b"/>
        <path id="Path_4369" data-name="Path 4369" d="M2094.765,1641.112l4.008-2.312-3.366,3.314-4.008,2.338Z" transform="translate(-2056.997 -1617.681)" fill="#11845b"/>
        <path id="Path_4370" data-name="Path 4370" d="M2091.867,1619.327c.129.231.283.437.411.668.077.129.128.257.205.385.231.411.488.848.694,1.259.257.488.514.977.771,1.49l4.008-2.312c-.026-.077-.077-.128-.1-.206-.206-.411-.411-.8-.617-1.182-.026-.025-.026-.051-.052-.1-.231-.437-.462-.848-.693-1.259-.077-.1-.128-.231-.206-.334a.025.025,0,0,0-.026-.026c-.128-.231-.257-.437-.411-.668-.18-.283-.359-.591-.54-.874-.128-.231-.282-.437-.437-.668-.179-.257-.334-.539-.514-.8a.133.133,0,0,1-.051-.1h0l-4.008,2.312c.206.283.385.591.565.873.154.231.283.437.437.668C2091.533,1618.762,2091.688,1619.045,2091.867,1619.327Z" transform="translate(-2056.18 -1599.698)" fill="#05c168"/>
        <g id="Group_488" data-name="Group 488" transform="translate(0 2.338)">
          <path id="Path_4371" data-name="Path 4371" d="M1999.738,1607.167l-5.6-2.235a10.873,10.873,0,0,1-2.107,4.8l3.34,7.245a9.816,9.816,0,0,1-3.494,2.056l-4.573-6.474a10.614,10.614,0,0,1-5.344-.488l-.9,5.961a24.866,24.866,0,0,1-2.467-1.259c-.848-.488-1.67-1.028-2.467-1.593l-.847-6.963a32.221,32.221,0,0,1-5.344-5.678l-4.573,1.208a50.921,50.921,0,0,1-3.469-6.089l3.366-3.34a31.776,31.776,0,0,1-2.055-7.219l-5.6-4.239c-.077-.9-.1-1.773-.1-2.646a29.317,29.317,0,0,1,.18-3.083l5.652,2.261a10.5,10.5,0,0,1,2.158-4.5l-3.314-7.194a9.759,9.759,0,0,1,3.648-2l4.6,6.526a11.151,11.151,0,0,1,4.907.539l.9-5.961a22.084,22.084,0,0,1,2.569,1.31,26.81,26.81,0,0,1,2.544,1.644l.848,6.963a34.062,34.062,0,0,1,4.882,5.087l4.625-1.208a53.388,53.388,0,0,1,3.622,6.192l-3.365,3.34a32.4,32.4,0,0,1,2.132,6.963l5.652,4.265a28.607,28.607,0,0,1,.18,3.314C1999.866,1605.523,1999.815,1606.371,1999.738,1607.167Zm-21.094-5.293c4.548,2.621,8.247.514,8.247-4.7.026-5.216-3.648-11.587-8.2-14.208s-8.247-.514-8.247,4.7c-.026,5.241,3.648,11.587,8.2,14.208" transform="translate(-1957.499 -1565.7)" fill="#3def65"/>
        </g>
      </g>
      <g id="Group_553" data-name="Group 553" transform="translate(248.437 420.526)">
        <path id="Path_7983" data-name="Path 7983" d="M655.453,985.067a7.024,7.024,0,0,0-6.333,0l-20.76,11.986c-1.742,1.005-1.741,2.651,0,3.657l23.359,13.487,27.094-15.643Z" transform="translate(-627.054 -984.313)" fill="#05c168"/>
        <path id="Path_7984" data-name="Path 7984" d="M662.092,1008.579c-.335-.946.179-2.012,1.536-2.8a7.9,7.9,0,0,1,7.137-.188c1.879,1.084,1.732,2.932-.329,4.121a8.163,8.163,0,0,1-4.839.884c1.909,2.222,1.26,4.71-.764,5.877-.487-.286-6.457-3.731-6.457-3.731l-6.463-3.729C653.935,1007.85,658.247,1007.477,662.092,1008.579Z" transform="translate(-639.49 -994.578)" fill="#3def65"/>
        <path id="Path_7985" data-name="Path 7985" d="M755.2,1042.662l-51.7-29.848-27.094,15.643,51.7,29.847a7.026,7.026,0,0,0,6.334,0l20.762-11.987C756.944,1045.313,756.943,1043.667,755.2,1042.662Z" transform="translate(-651.744 -998.57)" fill="#f1f1f6"/>
        <path id="Path_7986" data-name="Path 7986" d="M628.36,1015.313a2.235,2.235,0,0,1-1.3-1.8v3.826h0a2.177,2.177,0,0,0,1.3,1.9l23.358,13.486v-3.92Z" transform="translate(-627.055 -998.918)" fill="#11845b"/>
        <path id="Path_7987" data-name="Path 7987" d="M755.2,1061.971l-20.762,11.987a7.027,7.027,0,0,1-6.334,0l-51.7-29.848v3.92l51.7,29.848a7.024,7.024,0,0,0,6.334,0l20.76-11.986a2.164,2.164,0,0,0,1.3-1.92v-3.737a2.266,2.266,0,0,1-1.3,1.736Z" transform="translate(-651.744 -1014.226)" fill="#d0d0d0"/>
        <path id="Path_7988" data-name="Path 7988" d="M715.535,1028.083l41.295,23.842,2.867-1.655L718.4,1026.428Z" transform="translate(-671.317 -1005.381)" fill="url(#linear-gradient-6)"/>
        <path id="Path_7989" data-name="Path 7989" d="M700.7,1036.643l16.005,9.24,2.867-1.655-16.005-9.241Z" transform="translate(-663.897 -1009.663)" fill="url(#linear-gradient-7)"/>
        <path id="Path_7990" data-name="Path 7990" d="M739.064,1058.793l4.018,2.32,2.867-1.656-4.018-2.32-2.867,1.655Z" transform="translate(-683.087 -1020.743)" fill="url(#linear-gradient-8)"/>
      </g>
      <g id="Group_555" data-name="Group 555" transform="translate(468.581 330.958)">
        <path id="Path_7916" data-name="Path 7916" d="M1273.193,811.758l-162.534,96.4h4.422l162.54-93.839-4.428-2.557Z" transform="translate(-1084.154 -796.457)" fill="#dae0f5"/>
        <path id="Path_7917" data-name="Path 7917" d="M1248.124,797.286l-26.5-15.3-162.534,93.843,26.5,15.3,162.536-93.843Z" transform="translate(-1059.085 -781.984)" fill="#00d6dc"/>
        <path id="Path_7918" data-name="Path 7918" d="M1065.22,875.586l4.708,2.716-.653.382-4.71-2.72Zm14.174-8.179,4.7,2.719-.652.379-4.707-2.722Zm14.163-8.181,4.705,2.721-.654.378-4.706-2.72Zm14.168-8.177,4.707,2.716-.652.381-4.708-2.721.653-.375Zm14.168-8.183,4.712,2.722-.657.374-4.711-2.715Zm14.168-8.178,4.708,2.718-.651.381-4.711-2.724Zm14.163-8.178,4.708,2.717-.653.375-4.713-2.718Zm14.168-8.182,4.711,2.719-.652.378-4.713-2.718Zm14.163-8.179,4.715,2.719-.657.378-4.708-2.719Zm14.174-8.179,4.708,2.718-.655.377-4.706-2.716Zm14.168-8.18,4.71,2.719-.654.378-4.712-2.72.656-.377Zm13.511-7.8,4.708,2.72.654-.378-4.706-2.72Z" transform="translate(-1061.749 -783.745)" fill="#f6f6fb"/>
        <path id="Path_7919" data-name="Path 7919" d="M1131.986,886.438l4.185,2.416,39.062-22.553-4.188-2.415-39.059,22.552Zm-46.4,47.055-26.5-15.3v-2.555l26.5,15.3Z" transform="translate(-1059.086 -821.796)" fill="#00b6bf"/>
        <path id="Path_7920" data-name="Path 7920" d="M1273.193,814.317l-162.534,93.837V905.6l162.534-93.843Z" transform="translate(-1084.154 -796.457)" fill="#009aaa"/>
        <path id="Path_7921" data-name="Path 7921" d="M1069.151,875.5l2.357,1.359-.653.382-2.358-1.363Zm2.03-1.172,2.356,1.359-.653.382-2.358-1.363Zm2.03-1.172,2.357,1.359-.653.382-2.358-1.363Zm2.03-1.173,2.356,1.359-.653.382-2.358-1.363Zm2.03-1.172,2.356,1.359-.653.382-2.358-1.363Zm2.035-1.173,2.356,1.359-.654.382-2.358-1.363Zm4.014-2.319,2.356,1.359-.653.382-2.358-1.363Zm2.03-1.172,2.357,1.359-.654.382-2.358-1.363Zm2.03-1.172,2.356,1.359-.653.382-2.358-1.363Zm2.035-1.173,2.356,1.359-.653.382-2.358-1.363Zm2.03-1.172,2.356,1.359-.653.382L1090.79,863Zm2.03-1.173,2.357,1.359-.653.382-2.358-1.363Zm4.019-2.319,2.356,1.359-.653.382-2.358-1.363Zm2.03-1.173,2.356,1.359-.653.382-2.358-1.363Zm2.03-1.172,2.357,1.359-.653.382-2.358-1.363Zm2.03-1.173,2.356,1.359-.653.382L1102.929,856l.654-.378Zm2.03-1.172,2.356,1.359-.653.382-2.358-1.363Zm2.03-1.173,2.356,1.359-.653.382-2.357-1.363Zm4.019-2.319,2.356,1.359-.653.382-2.358-1.363Zm2.03-1.172,2.356,1.359-.653.382-2.358-1.363Zm2.03-1.172,2.356,1.359-.653.382-2.358-1.363Zm2.03-1.173,2.356,1.359-.653.382-2.358-1.363Zm2.03-1.172,2.356,1.359-.653.382-2.358-1.363.654-.378Zm2.03-1.172,2.357,1.359-.653.382-2.358-1.363Zm4.019-2.319,2.356,1.359-.653.382-2.358-1.363Zm2.03-1.173,2.357,1.359-.653.382-2.358-1.363Zm2.03-1.172,2.356,1.359-.653.382-2.358-1.363Zm2.035-1.173,2.356,1.359-.653.382-2.358-1.363Zm2.03-1.172,2.356,1.359-.653.382-2.358-1.363Zm2.03-1.172,2.357,1.359-.653.382-2.358-1.363Zm4.019-2.319,2.357,1.359-.653.382-2.358-1.363Zm2.03-1.173,2.356,1.359-.653.382-2.358-1.363Zm2.03-1.172,2.356,1.359-.653.382-2.358-1.363Zm2.03-1.172,2.356,1.359-.653.382-2.358-1.363Zm2.03-1.173,2.357,1.359-.653.382-2.358-1.363Zm2.03-1.172,2.356,1.359-.653.382-2.358-1.363Zm4.019-2.319,2.356,1.359-.653.382-2.358-1.363Zm2.03-1.172,2.356,1.359-.653.382-2.358-1.363Zm2.03-1.173,2.356,1.359-.653.382-2.358-1.363.654-.378Zm2.03-1.172,2.357,1.359-.653.382-2.358-1.363Zm2.035-1.172,2.356,1.359-.653.382-2.357-1.363Zm2.03-1.173,2.357,1.359-.653.382-2.358-1.363Zm4.014-2.319,2.356,1.359-.653.382-2.358-1.363Zm2.03-1.172,2.356,1.359-.653.382-2.357-1.363Zm2.035-1.173,2.356,1.359-.653.382-2.358-1.363Zm2.03-1.172,2.356,1.359-.653.382-2.357-1.363Zm2.03-1.172,2.356,1.359-.653.382-2.358-1.363Zm2.03-1.173,2.356,1.359-.653.382-2.357-1.363.654-.378Zm4.019-2.319,2.356,1.359-.653.382-2.358-1.363Zm2.03-1.172,2.356,1.359-.653.382-2.358-1.363Zm2.03-1.172,2.356,1.359-.653.382-2.358-1.363.654-.378Zm2.03-1.173,2.356,1.359-.653.382-2.358-1.363Zm2.03-1.172,2.356,1.359-.653.382-2.357-1.363Zm2.03-1.173,2.356,1.359-.653.382-2.358-1.363Zm4.019-2.319,2.356,1.359-.653.382-2.358-1.363Zm2.03-1.172,2.356,1.359-.653.382-2.358-1.363Zm2.03-1.172,2.356,1.359-.653.382-2.358-1.363Zm2.03-1.173,2.357,1.359-.653.382-2.358-1.363Zm2.035-1.172,2.356,1.359-.653.381-2.358-1.363Zm2.03-1.172,2.357,1.359-.653.382-2.358-1.363Zm4.014-2.319,2.357,1.359-.653.382-2.358-1.363Zm2.03-1.173,2.356,1.359-.653.382-2.358-1.363Zm2.035-1.172,2.357,1.359-.653.382-2.358-1.364Zm2.03-1.172,2.356,1.359-.653.382-2.358-1.363Zm2.03-1.173,2.357,1.359-.653.382-2.358-1.363Zm2.03-1.172,2.356,1.359-.653.382-2.358-1.363Z" transform="translate(-1063.66 -784.822)" fill="#f6f6fb"/>
        <path id="Path_7923" data-name="Path 7923" d="M1468.476,819.392a5.307,5.307,0,0,0-2.744.689l-3.868,2.234a5.051,5.051,0,0,1,1.068.465,10.571,10.571,0,0,1,4.781,8.282,4.6,4.6,0,0,1-.312,1.711l4.185-2.416a5.981,5.981,0,0,0,2.81-5.047,5.92,5.92,0,0,0-5.92-5.917Z" transform="translate(-1254.872 -800.167)" fill="url(#linear-gradient-9)"/>
        <path id="Path_7924" data-name="Path 7924" d="M1213.73,968.127a3.422,3.422,0,0,1,1.547,2.682c0,.6-.261.977-.649,1.071l10.793-1.578,2.309-3.284-2.309-5.946-4.61-2.663-8.3,9.713a1,1,0,0,1,1.215.005Z" transform="translate(-1133.666 -867.743)" fill="url(#linear-gradient-10)"/>
        <path id="Path_7925" data-name="Path 7925" d="M1209.975,977.122a1,1,0,0,0-1.215-.005l-.128.147-3.842,4.5,5.972-.877.112-.014c.388-.1.649-.474.649-1.071a3.422,3.422,0,0,0-1.547-2.682Z" transform="translate(-1129.911 -876.738)" fill="url(#linear-gradient-11)"/>
        <path id="Path_7926" data-name="Path 7926" d="M1437.6,846.068a2.838,2.838,0,0,1-1.049-1.22l-1.872-4.826a1.775,1.775,0,0,1,.185-1.49l1.8-2.563a.957.957,0,0,1,1.23-.275l3.762,2.17a2.822,2.822,0,0,1,1.045,1.225l1.872,4.823a1.778,1.778,0,0,1-.182,1.495l-1.8,2.561a.957.957,0,0,1-1.23.272Z" transform="translate(-1241.619 -808.035)" fill="#ced3f8"/>
        <path id="Path_7927" data-name="Path 7927" d="M1348.505,847.57l-108.567,62.68-2.31-5.946L1346.2,841.626Z" transform="translate(-1145.874 -810.975)" fill="#ff826a"/>
        <path id="Path_7928" data-name="Path 7928" d="M1346.2,856.476l-108.569,62.681,2.31-3.284,108.567-62.68Z" transform="translate(-1145.874 -816.598)" fill="#e33c5c"/>
        <path id="Path_7929" data-name="Path 7929" d="M1341.837,839.105l-108.569,62.679-4.61-2.663,108.567-62.68Z" transform="translate(-1141.513 -808.455)" fill="#ffaf6d"/>
        <path id="Path_7930" data-name="Path 7930" d="M1457.786,831.661l-1.87-4.82a2.83,2.83,0,0,0-1.049-1.225l-3.757-2.17a.955.955,0,0,0-.917.009c-.073.033-10.86,6.263-10.86,6.263a1,1,0,0,1,.865.024l3.762,2.17a2.822,2.822,0,0,1,1.045,1.225l1.871,4.823a1.777,1.777,0,0,1-.182,1.495l-1.8,2.561a.984.984,0,0,1-.249.236l10.81-6.239a1.086,1.086,0,0,0,.346-.3l1.8-2.558a1.8,1.8,0,0,0,.18-1.5Z" transform="translate(-1243.921 -802.083)" fill="url(#linear-gradient-12)"/>
        <path id="Path_7931" data-name="Path 7931" d="M1446.989,846.44a.877.877,0,0,0,.247-.237l1.8-2.559a1.778,1.778,0,0,0,.18-1.494l-1.869-4.821a2.8,2.8,0,0,0-1.047-1.225l-3.76-2.168a.928.928,0,0,0-.853-.019c-.016-.01-.786.436-.786.436a.989.989,0,0,1,.865.028l3.762,2.168a2.843,2.843,0,0,1,1.047,1.225l1.869,4.823a1.786,1.786,0,0,1-.18,1.492l-1.8,2.563a.935.935,0,0,1-.247.236Z" transform="translate(-1244.681 -807.182)" fill="url(#linear-gradient-13)"/>
        <path id="Path_7932" data-name="Path 7932" d="M1450.159,844.606a.849.849,0,0,0,.251-.237l1.793-2.558a1.763,1.763,0,0,0,.182-1.492l-1.869-4.826a2.854,2.854,0,0,0-1.047-1.223l-3.759-2.167a.938.938,0,0,0-.855-.019c-.012-.009-.786.438-.786.438a.988.988,0,0,1,.865.026l3.762,2.17a2.841,2.841,0,0,1,1.049,1.223l1.871,4.823a1.784,1.784,0,0,1-.185,1.5l-1.8,2.558a.845.845,0,0,1-.248.236Z" transform="translate(-1246.223 -806.291)" fill="url(#linear-gradient-14)"/>
        <path id="Path_7933" data-name="Path 7933" d="M1453.329,842.776a.882.882,0,0,0,.249-.237l1.8-2.559a1.8,1.8,0,0,0,.182-1.5l-1.872-4.824a2.869,2.869,0,0,0-1.049-1.223l-3.76-2.17a.935.935,0,0,0-.853-.019c-.011-.007-.789.441-.789.441a1,1,0,0,1,.87.026l3.758,2.173a2.8,2.8,0,0,1,1.05,1.217l1.871,4.828a1.78,1.78,0,0,1-.182,1.492l-1.8,2.561a.9.9,0,0,1-.249.234Z" transform="translate(-1247.763 -805.399)" fill="url(#linear-gradient-15)"/>
      </g>
      <path id="Path_8004" data-name="Path 8004" d="M554.155,432.1c0-1.4.982-1.967,2.195-1.267a4.851,4.851,0,0,1,2.194,3.8c0,1.4-.982,1.966-2.194,1.266a4.851,4.851,0,0,1-2.195-3.8Z" transform="translate(-341.363 -275.33)" fill="#fff"/>
      <g id="Group_557" data-name="Group 557" transform="translate(366.67 379.494)">
        <path id="Path_7877" data-name="Path 7877" d="M945.2,1024.529l40.378-23.31V953.882l-40.378,23.3Z" transform="translate(-904.817 -930.575)" fill="#05c168"/>
        <path id="Path_7878" data-name="Path 7878" d="M914.011,1024.529l-40.38-23.31V953.882l40.38,23.3Z" transform="translate(-873.632 -930.575)" fill="#11845b"/>
        <path id="Path_7879" data-name="Path 7879" d="M914.011,959.184l-40.38-23.3,40.38-23.306,40.378,23.306Z" transform="translate(-873.632 -912.575)" fill="#3def65"/>
        <path id="Path_7881" data-name="Path 7881" d="M1007.86,1059.052l23.229-13.41V1018.41l-23.229,13.406Z" transform="translate(-932.124 -958.694)" fill="#05c168"/>
        <path id="Path_7882" data-name="Path 7882" d="M989.92,1059.052l-23.229-13.41V1018.41l23.229,13.406Z" transform="translate(-914.184 -958.694)" fill="#11845b"/>
        <path id="Path_7883" data-name="Path 7883" d="M989.92,1021.462l-23.229-13.406,23.229-13.407,23.229,13.407Z" transform="translate(-914.184 -948.34)" fill="#3def65"/>
        <path id="Path_7884" data-name="Path 7884" d="M966.7,1008.056l8.058,4.651L997.984,999.3l-8.06-4.652Z" transform="translate(-914.186 -948.34)" fill="#3def65"/>
        <path id="Path_7885" data-name="Path 7885" d="M978.826,1052.65l-4.072-29.584-8.058-4.651v27.232l12.131,7Z" transform="translate(-914.186 -958.696)" fill="#11845b"/>
      </g>
    </g>
    <g id="Group_547" data-name="Group 547" transform="translate(1643.493 476.972)">
      <path id="Path_4612" data-name="Path 4612" d="M1879.8,764.362l98.234,55.716c2.3,1.342,7.134-3.145,7.134-5.811V769.329a8.069,8.069,0,0,0-4.027-7l-97.358-51.009c-2.378-1.381-8.15,1.055-8.15,3.8l-.454,41.209A9.3,9.3,0,0,0,1879.8,764.362Z" transform="translate(-1874.635 -710.922)" fill="#3def65"/>
      <path id="Path_4613" data-name="Path 4613" d="M1875.022,773.347l96.917,56.151a3.46,3.46,0,0,0,5.2-2.992V781.549a8.069,8.069,0,0,0-4.027-7L1875.77,723.54a3.573,3.573,0,0,0-5.37,3.088v38.684A9.3,9.3,0,0,0,1875.022,773.347Z" transform="translate(-1870.4 -720.725)" fill="#5652cc"/>
      <path id="Path_4628" data-name="Path 4628" d="M1938.065,828.111a2.966,2.966,0,0,0,1.822-3.088c0-3.088-2.512-7.038-5.6-8.8s-5.6-.69-5.6,2.4a9.742,9.742,0,0,0,1.822,5.159c-3.7-.48-6.309,2.014-6.309,6.655a15.216,15.216,0,0,0,.556,3.951,11.08,11.08,0,0,0,4.852,6.329l9.359,5.351c2.11,1.208,4.066,1.036,4.756-.575a8.846,8.846,0,0,0,.652-3.529C1944.375,837.317,1941.767,831.851,1938.065,828.111Z" transform="translate(-1913.104 -795.82)" fill="#d0d0d0"/>
      <path id="Path_4629" data-name="Path 4629" d="M2392.96,191.48v3.968l63.146,35.067v-4.227Z" transform="translate(-2357.295 -163.284)" fill="#d0d0d0"/>
      <path id="Path_4630" data-name="Path 4630" d="M2392.96,191.48v1.812l63.146,35.067v-2.07Z" transform="translate(-2357.295 -143.228)" fill="#d0d0d0"/>
      <path id="Path_4631" data-name="Path 4631" d="M2392.96,191.48v1.812l63.146,35.067v-2.07Z" transform="translate(-2357.295 -138.375)" fill="#d0d0d0"/>
      <path id="Path_4632" data-name="Path 4632" d="M2392.96,191.48v2.89l30.8,17.814v-3.149Z" transform="translate(-2357.295 -156.836)" fill="#d0d0d0"/>
    </g>
    <g id="Group_548" data-name="Group 548" transform="translate(1643.493 540.3)">
      <path id="Path_4612-2" data-name="Path 4612" d="M1879.8,764.362l98.234,55.716c2.3,1.342,7.134-3.145,7.134-5.811V769.329a8.069,8.069,0,0,0-4.027-7l-97.358-51.009c-2.378-1.381-8.15,1.055-8.15,3.8l-.454,41.209A9.3,9.3,0,0,0,1879.8,764.362Z" transform="translate(-1874.635 -710.922)" fill="#3def65"/>
      <path id="Path_4613-2" data-name="Path 4613" d="M1875.022,773.347l96.917,56.151a3.46,3.46,0,0,0,5.2-2.992V781.549a8.069,8.069,0,0,0-4.027-7L1875.77,723.54a3.573,3.573,0,0,0-5.37,3.088v38.684A9.3,9.3,0,0,0,1875.022,773.347Z" transform="translate(-1870.4 -720.725)" fill="#243665"/>
      <path id="Path_4628-2" data-name="Path 4628" d="M1938.065,828.111a2.966,2.966,0,0,0,1.822-3.088c0-3.088-2.512-7.038-5.6-8.8s-5.6-.69-5.6,2.4a9.742,9.742,0,0,0,1.822,5.159c-3.7-.48-6.309,2.014-6.309,6.655a15.216,15.216,0,0,0,.556,3.951,11.08,11.08,0,0,0,4.852,6.329l9.359,5.351c2.11,1.208,4.066,1.036,4.756-.575a8.846,8.846,0,0,0,.652-3.529C1944.375,837.317,1941.767,831.851,1938.065,828.111Z" transform="translate(-1913.104 -795.82)" fill="#d0d0d0"/>
      <path id="Path_4629-2" data-name="Path 4629" d="M2392.96,191.48v3.968l63.146,35.067v-4.227Z" transform="translate(-2357.295 -163.284)" fill="#d0d0d0"/>
      <path id="Path_4630-2" data-name="Path 4630" d="M2392.96,191.48v1.812l63.146,35.067v-2.07Z" transform="translate(-2357.295 -143.228)" fill="#d0d0d0"/>
      <path id="Path_4631-2" data-name="Path 4631" d="M2392.96,191.48v1.812l63.146,35.067v-2.07Z" transform="translate(-2357.295 -138.375)" fill="#d0d0d0"/>
      <path id="Path_4632-2" data-name="Path 4632" d="M2392.96,191.48v2.89l30.8,17.814v-3.149Z" transform="translate(-2357.295 -156.836)" fill="#d0d0d0"/>
    </g>
    <g id="Group_556" data-name="Group 556" transform="translate(1073.865 680.532)">
      <path id="Path_7975" data-name="Path 7975" d="M237.664,871.34a15.206,15.206,0,0,1-13.706,0L178.3,844.979c-3.767-2.177-3.768-5.737,0-7.913l44.924-25.937a15.2,15.2,0,0,1,13.705,0l45.654,26.359c3.77,2.176,3.772,5.737,0,7.912Z" transform="translate(-175.478 -809.497)" fill="#f6f6fb"/>
      <path id="Path_7976" data-name="Path 7976" d="M233.36,872.217a10.781,10.781,0,0,1-5.2-1.191L182.5,844.667c-.931-.538-1.166-1.011-1.174-1.1.008-.085.244-.557,1.176-1.1l44.923-25.937a11.96,11.96,0,0,1,10.4,0l45.655,26.359c.934.539,1.17,1.012,1.178,1.1-.008.085-.244.557-1.175,1.094L238.56,871.028a10.778,10.778,0,0,1-5.2,1.19Z" transform="translate(-178.025 -812.044)" fill="#d0d0d0"/>
      <path id="Path_7977" data-name="Path 7977" d="M175.485,881.28h.007c-.068,1.486.862,2.982,2.815,4.11l45.655,26.359a15.2,15.2,0,0,0,13.705,0l44.923-25.937c1.974-1.14,2.9-2.658,2.81-4.155l0-15.654c-.082,1.367-1.011,2.719-2.808,3.756L237.666,895.7a15.206,15.206,0,0,1-13.706,0l-45.654-26.36c-1.861-1.075-2.8-2.488-2.822-3.9Z" transform="translate(-175.48 -833.857)" fill="url(#linear-gradient-16)"/>
      <path id="Path_7978" data-name="Path 7978" d="M175.485,881.033h.007c-.068,1.486.862,2.983,2.815,4.11l45.655,26.36a15.2,15.2,0,0,0,13.705,0l44.923-25.937c1.974-1.14,2.9-2.658,2.81-4.155l0-3.11c-.082,1.368-1.011,2.72-2.808,3.757L237.666,908a15.206,15.206,0,0,1-13.706,0l-45.654-26.36c-1.861-1.075-2.8-2.488-2.822-3.9Z" transform="translate(-175.48 -839.212)" fill="#11845b"/>
      <path id="Path_7979" data-name="Path 7979" d="M273.265,833.5a8.985,8.985,0,0,1,8.131,0c2.246,1.3,2.247,3.4,0,4.694a8.986,8.986,0,0,1-8.13,0c-2.246-1.3-2.246-3.4,0-4.695Z" transform="translate(-217.329 -819.526)" fill="#f88136"/>
      <path id="Path_7980" data-name="Path 7980" d="M255.647,885l14.978-24.539c1.037-1.7-1.8-3.333-4.738-2.735l-42.5,8.648Z" transform="translate(-196.34 -830.446)" fill="#05c168"/>
      <path id="Path_7981" data-name="Path 7981" d="M226.1,870.008l10.337-16.936c1.037-1.7-1.8-3.334-4.738-2.736l-29.335,5.969Z" transform="translate(-187.185 -827.227)" fill="#05c168"/>
    </g>
  </g>
</svg>
