<svg xmlns="http://www.w3.org/2000/svg" width="567.462" height="602.672" viewBox="0 0 567.462 602.672">
  <g id="Secondary_shapes" data-name="Secondary shapes" transform="translate(-127.829 -106.837)">
    <path id="Path_17108" data-name="Path 17108" d="M249.24,1824.339c0-4.1,40.927-7.422,91.409-7.422s91.429,3.32,91.429,7.422-40.924,7.422-91.429,7.422S249.24,1828.435,249.24,1824.339Zm165.477-18.849c0-2.763,60.434-5,134.981-5s134.981,2.237,134.981,5-60.431,5-134.981,5S414.717,1808.253,414.717,1805.49Z" transform="translate(-116.345 -1122.253)" fill="#9ea5b7"/>
    <path id="Path_17113" data-name="Path 17113" d="M1207.787,1460.868c3.313,5.04,59.891,9.7,61.49-1.059,1.245-8.38-7.618-9.892-10.877-10.186-5.138-.466-17.567-.779-16.619-4.524,1.71-6.781,33.043-1.98,40.748-1.282s22.857-.04,28.1-6.8,6.6-10.121-6.957-10.584-40.357,1.92-33.576-5.307,28-4.244,40.823-7.007,36.228-12.361,29.068-19.082c-6.41-6.009-42.651,7.446-42.041.712.489-5.4,11.683-5.273,28.13-10.418s31.926-10.169,29.77-20.226c-1.734-8.073-11.572-2.557-20.475.1s-21.447,5.9-19.652.931,46.592-13.768,46.7-27.435c.074-9.042-8.887-4.123-19.423-1.609s-14.43,2.611-14.224.368,13.866-7.942,21.45-10.874,17.463-9.727,14.976-16.892-14.17-1.208-17.959,1.994-8.772,4.632-9.727,3.492,10.85-12.591,4-17.736-17.058,6.9-17.83,15.425-2.115,20.017-5.226,19.737-2.216-10.155-1.511-17.935-.79-11.029-2.864-11.218c-6.916-.628-13.661,8.967-14.17,14.649s.745,37.925-3.849,37.506-3.789-12.557-3.219-18.843,1.9-20.941-5.806-21.639-13.643,18.67-13.988,30.7.573,31.572-2.982,31.251-6.926-15.857-6.235-23.492,5.776-20.891-3.711-21.751-12.466,10.614-13.833,25.593c-.57,6.258-1.815,21.764,2.682,30.644,5.125,10.121,6.019,15.985,3.711,17.294-4.568,2.6-7.888-6.9-8.718-14.214s-2.045-30.2-13.09-26.99-5.374,21.38-3.816,28.913,9.352,33.576,3.667,35.32-6.134-13.073-6.748-17.655-4.963-13.647-8.276-10.854S1201.88,1451.881,1207.787,1460.868Z" transform="translate(-750.328 -788.103)" fill="#3def65"/>
    <path id="Path_17114" data-name="Path 17114" d="M1394.329,1649.881a1.012,1.012,0,0,1-.459-1.943c17.183-8.6,57.425-28.735,85.137-76.122a1.025,1.025,0,1,1,1.768,1.036c-28,47.907-68.643,68.238-85.987,76.922A1.012,1.012,0,0,1,1394.329,1649.881Z" transform="translate(-874.391 -970.392)" fill="#3def65"/>
    <path id="Path_17115" data-name="Path 17115" d="M1469,1613.074h-.061a1.012,1.012,0,0,1-.962-1.083c.115-1.95-.7-9.19-5.8-16.626a1.023,1.023,0,1,1,1.687-1.157c5.442,7.945,6.285,15.617,6.154,17.9A1.012,1.012,0,0,1,1469,1613.074Zm3.93-4.882a1.017,1.017,0,0,1-.189-2.024c4.464-.83,13.31-2.064,18.188-1.42a1.021,1.021,0,1,1-.27,2.024c-4.021-.533-11.913.354-17.544,1.4a1.16,1.16,0,0,1-.186.02Zm-.58,20.017a1.052,1.052,0,0,1-.4-.081c-2.918-1.248-12.928-.827-16.8-.084a1.031,1.031,0,1,1-.388-2.024c4.136-.793,14.578-1.248,17.992.209a1.012,1.012,0,0,1-.4,1.967Zm-25.044,6.744a.947.947,0,0,1-.287-.044,1.012,1.012,0,0,1-.7-1.269c.094-.337.213-.7.337-1.1,1.218-3.819,3.252-10.216-1.535-18.134a1.026,1.026,0,1,1,1.754-1.063c5.27,8.715,2.969,15.938,1.734,19.821-.122.381-.233.732-.337,1.049a1.012,1.012,0,0,1-.972.739Zm3.357,12.8a1.012,1.012,0,0,1-.806-.388c-3.134-3.964-9.821-2.9-14.7-2.115l-1.208.189a1.024,1.024,0,1,1-.31-2.024l1.194-.189c5.381-.86,12.753-2.024,16.636,2.868a1.012,1.012,0,0,1-.8,1.66Zm-23.327,2.095a1.018,1.018,0,0,1-.931-1.444c1.93-4.221,4.119-9.008,1.137-17.145a1.026,1.026,0,0,1,1.927-.705c3.269,8.93.793,14.349-1.2,18.7A1.012,1.012,0,0,1,1427.342,1649.848Zm6.3,10.715a1.012,1.012,0,0,1-.806-.388c-2.132-2.7-7.966-4.619-14.507-4.784a1.024,1.024,0,0,1,.051-2.048c8.772.219,14.055,3.016,16.069,5.56a1.012,1.012,0,0,1-.8,1.66Zm-29.49,2.54a1.021,1.021,0,0,1-.857-1.589c6.188-9.423,4.342-15.992,3.259-18.377a1.024,1.024,0,1,1,1.866-.847c1.221,2.7,3.337,10.074-3.411,20.35A1.012,1.012,0,0,1,1404.147,1663.1Z" transform="translate(-880.93 -985.271)" fill="#3def65"/>
    <path id="Path_17116" data-name="Path 17116" d="M1484.35,1548.275a5.246,5.246,0,1,1-2.726,6.9A5.246,5.246,0,0,1,1484.35,1548.275Zm3.006,23.151a4.018,4.018,0,1,1-2.088,5.283,4.018,4.018,0,0,1,2.088-5.283Zm-29.777-12.79a4.018,4.018,0,1,1-2.088,5.287A4.018,4.018,0,0,1,1457.579,1558.636Zm12.692,35.647a4.018,4.018,0,1,1-2.092,5.283A4.018,4.018,0,0,1,1470.271,1594.284Zm-45.58,1.022a4.018,4.018,0,1,1-2.088,5.283,4.018,4.018,0,0,1,2.088-5.283Zm6.376,31.535a4.018,4.018,0,1,1-2.088,5.287,4.018,4.018,0,0,1,2.088-5.287Zm9.909-47.786a4.507,4.507,0,1,1-2.342,5.928A4.507,4.507,0,0,1,1440.977,1579.054Zm6.7,33.778a4.507,4.507,0,1,1-2.345,5.928A4.507,4.507,0,0,1,1447.674,1612.833Zm-45.745-6.619a4.507,4.507,0,1,1-2.341,5.928A4.507,4.507,0,0,1,1401.929,1606.213Z" transform="translate(-878.344 -954.841)" fill="#efda3d"/>
    <g id="Group_1416" data-name="Group 1416" transform="translate(337.043 568.458) rotate(22)">
      <path id="Path_17112" data-name="Path 17112" d="M40.262,62.007C53.2,34.048,36.527,10.533,1.8,0-4.826,27.567,6.581,62.1,40.262,62.007Z" transform="translate(53.317 0)" fill="#11845b"/>
      <path id="Path_17117" data-name="Path 17117" d="M102.033,25.816C78.14-10.034,37.931-7.328,0,26.386,28.026,54.436,77.546,66.051,102.033,25.816Z" transform="translate(0 41.737)" fill="#05c168"/>
      <path id="Path_17118" data-name="Path 17118" d="M78.837,2.921c-7.284,0-15.978-.2-24.966-.4-17.719-.395-37.786-.847-52.786.034A1.026,1.026,0,1,1,.967.508C16.034-.372,36.162.077,53.935.475,68.547.812,82.349,1.112,90.517.6a1.026,1.026,0,0,1,.132,2.048C87.42,2.829,83.4,2.921,78.837,2.921Z" transform="translate(11.489 65.948)" fill="#11845b"/>
    </g>
    <path id="Path_17119" data-name="Path 17119" d="M1355.1,1049.846l-19.942-6.576c1.791,1.788,7.874,5.557,5.735,13.576l-29.871,111.473c-2.146,8.019-10.391,14.507-18.411,14.507h26.677c8.019,0,16.261-6.5,18.411-14.507l27.172-101.409C1367.008,1058.891,1363.122,1053.182,1355.1,1049.846Z" transform="translate(-807.706 -620.502)" fill="#747474"/>
    <path id="Path_17120" data-name="Path 17120" d="M961.523,1181.025H804.11c-8.019,0-12.776-6.5-10.631-14.507l29.861-111.5c2.149-8.019,10.391-14.507,18.411-14.507H999.178c8.02,0,12.78,6.5,10.631,14.507L979.937,1166.49C977.788,1174.51,969.543,1181.025,961.523,1181.025Z" transform="translate(-476.629 -618.673)" fill="#1d2a4d"/>
    <path id="Path_17121" data-name="Path 17121" d="M822.96,1180.083l27.867-104c1.393-5.2,6.747-9.42,11.94-9.42h149.958c5.2,0,8.289,4.217,6.9,9.42l-27.867,104c-1.393,5.2-6.748,9.416-11.943,9.416H829.853C824.651,1189.5,821.564,1185.282,822.96,1180.083Z" transform="translate(-496.283 -636)" fill="#5652cc"/>
    <path id="Path_17122" data-name="Path 17122" d="M1037.61,1456.96H1099.5v112.431H1037.61Z" transform="translate(-638.737 -894.622)" fill="#1d2a4d"/>
    <path id="Path_17123" data-name="Path 17123" d="M1221.06,1456.96h7.469v112.431h-7.469Z" transform="translate(-760.295 -894.622)" fill="#747474"/>
    <path id="Path_17124" data-name="Path 17124" d="M880.27,1790.21h135.312v6.937H880.27Z" transform="translate(-534.48 -1115.441)" fill="#a0c2aa"/>
    <path id="Path_17125" data-name="Path 17125" d="M1119.843,1569.391h40.212v6.936h-40.212ZM1037.61,1456.96H1099.5v17.331H1037.61Z" transform="translate(-638.737 -894.622)" opacity="0.3"/>
    <path id="Path_17126" data-name="Path 17126" d="M938.815,1206.927l7.9-27.415a27.883,27.883,0,0,1,4.642-9.143,47.232,47.232,0,0,0,7.76-15.317c5.142-17.692-4.784-31.272-22.3-31.272s-36.572,13.748-41.6,31.271l-2.338,8.161c-.628,2.186-7.7,10.739-12.146,16.322-.493.621-.253,1.349.439,1.349h6.65l-3.509,12.234c-1.171,4.079-.229,5.438,3.876,5.438H904.5l-7.348,8.566c-.364.422-.209.951.28.951h39.895A1.649,1.649,0,0,0,938.815,1206.927Z" transform="translate(-534.611 -673.849)" fill="#3b5497"/>
    <path id="Path_17127" data-name="Path 17127" d="M956.125,1206.927l7.9-27.415a27.886,27.886,0,0,1,4.642-9.143,47.232,47.232,0,0,0,7.76-15.317c5.142-17.692-4.784-31.272-22.3-31.272s-36.572,13.748-41.6,31.271l-2.338,8.161c-.627,2.186-7.7,10.739-12.146,16.322-.493.621-.253,1.349.439,1.349h6.65l-3.509,12.234c-1.171,4.079-.229,5.438,3.876,5.438h16.312l-7.348,8.566c-.364.422-.209.951.28.951h39.9A1.649,1.649,0,0,0,956.125,1206.927Z" transform="translate(-546.081 -673.849)" fill="#3ddeae"/>
    <path id="Path_17128" data-name="Path 17128" d="M941.514,1231.519a1.756,1.756,0,0,0-1.724-2.419,3.462,3.462,0,0,0-3.114,2.419,1.756,1.756,0,0,0,1.724,2.419A3.468,3.468,0,0,0,941.514,1231.519Z" transform="translate(-571.79 -743.637)" fill="#362e93"/>
    <path id="Path_17129" data-name="Path 17129" d="M1313.2,1162.524a10.336,10.336,0,0,1-2.517,4.248l3.522,2.949a17.415,17.415,0,0,0,4.264-7.2c2.024-7.105-2.068-12.864-9.173-12.864l-1.511,5.27c4.194,0,6.619,3.4,5.415,7.594Z" transform="translate(-817.764 -690.998)" fill="#ec9e00"/>
    <path id="Path_17130" data-name="Path 17130" d="M1211.391,1166.772a10.412,10.412,0,0,1-7.25,3.344c-4.193,0-6.619-3.4-5.418-7.591a10.883,10.883,0,0,1,9.784-7.594l1.511-5.27c-7.105,0-14.507,5.759-16.552,12.864s2.072,12.861,9.177,12.861a17.683,17.683,0,0,0,12.284-5.665Zm-47.678-4.248a10.883,10.883,0,0,1,9.784-7.594l1.511-5.27c-7.105,0-14.507,5.759-16.552,12.864-1.457,5.061.236,9.447,3.91,11.545l3.667-4.723c-2.179-1.241-3.181-3.826-2.321-6.822Z" transform="translate(-718.467 -690.998)" fill="#423eaf"/>
    <path id="Path_17131" data-name="Path 17131" d="M1183.652,1149.66l-1.511,5.27c4.193,0,6.616,3.4,5.4,7.594s-5.577,7.591-9.784,7.591a6.218,6.218,0,0,1-3.107-.776l-3.647,4.727a10.539,10.539,0,0,0,5.263,1.316c7.105,0,14.507-5.759,16.552-12.861S1190.753,1149.66,1183.652,1149.66Z" transform="translate(-727.124 -690.998)" fill="#ec9e00"/>
    <path id="Path_17132" data-name="Path 17132" d="M1174.046,1252.025a5.888,5.888,0,0,1-.881-.064,4.766,4.766,0,0,1-3.245-1.91,2.749,2.749,0,0,0-1.879-1.073,5.661,5.661,0,0,0-4.113,1.285,7.582,7.582,0,0,1-5.671,1.687,4.767,4.767,0,0,1-3.246-1.91,2.746,2.746,0,0,0-1.876-1.073,5.661,5.661,0,0,0-4.113,1.285,7.57,7.57,0,0,1-5.668,1.687,4.766,4.766,0,0,1-3.245-1.91,2.757,2.757,0,0,0-1.879-1.073,5.661,5.661,0,0,0-4.113,1.286,7.566,7.566,0,0,1-5.668,1.687,4.774,4.774,0,0,1-3.249-1.91,1.026,1.026,0,0,1,1.67-1.191,2.721,2.721,0,0,0,1.876,1.073,5.64,5.64,0,0,0,4.116-1.285,7.564,7.564,0,0,1,5.661-1.687,4.781,4.781,0,0,1,3.252,1.91,2.718,2.718,0,0,0,1.876,1.073,5.639,5.639,0,0,0,4.113-1.285,7.58,7.58,0,0,1,5.668-1.687,4.781,4.781,0,0,1,3.249,1.91,2.7,2.7,0,0,0,1.876,1.1,5.648,5.648,0,0,0,4.119-1.285,7.571,7.571,0,0,1,5.665-1.687,4.79,4.79,0,0,1,3.252,1.91,2.7,2.7,0,0,0,1.873,1.073,5.63,5.63,0,0,0,4.113-1.285,7.565,7.565,0,0,1,5.668-1.687,4.768,4.768,0,0,1,3.245,1.909,1.024,1.024,0,1,1-1.667,1.191,2.746,2.746,0,0,0-1.876-1.073,5.67,5.67,0,0,0-4.113,1.285A7.912,7.912,0,0,1,1174.046,1252.025Zm-23.384,9.916h-28.208l.985-3.431h28.2Zm4.71,6.238h-34.706l.985-3.431h34.7ZM1167,1274.42h-48.12l.985-3.435h48.117Zm-22.615,6.238H1117.09l.982-3.431h27.3Z" transform="translate(-691.402 -755.408)" fill="#6b67e9"/>
    <path id="Path_17133" data-name="Path 17133" d="M1205.4,1303.529h-7.409l.985-3.431h7.409Zm8.04-12.479h-4.46l.982-3.431h4.46Zm13.843-6.238h-23.013l.982-3.431h23.012Zm4.825,12.479h-11.5l.982-3.434h11.5Z" transform="translate(-745.008 -778.279)" fill="#e09000"/>
    <g id="Group_1413" data-name="Group 1413" transform="translate(429.122 458.662)">
      <path id="Path_17134" data-name="Path 17134" d="M1323.365,1162.524a10.3,10.3,0,0,1-2.517,4.248l3.522,2.949a17.461,17.461,0,0,0,4.268-7.2c2.024-7.105-2.072-12.864-9.177-12.864l-1.511,5.27C1322.15,1154.93,1324.576,1158.331,1323.365,1162.524Z" transform="translate(-1253.619 -1149.66)" fill="#422400"/>
      <path id="Path_17135" data-name="Path 17135" d="M1221.571,1166.772a10.413,10.413,0,0,1-7.25,3.344c-4.194,0-6.619-3.4-5.4-7.591s5.573-7.594,9.784-7.594l1.512-5.27c-7.085,0-14.507,5.759-16.552,12.864s2.071,12.861,9.177,12.861a17.684,17.684,0,0,0,12.284-5.665Zm-47.678-4.248a10.883,10.883,0,0,1,9.784-7.594l1.511-5.27c-7.105,0-14.507,5.759-16.552,12.864-1.458,5.061.236,9.447,3.91,11.545l3.667-4.723c-2.179-1.241-3.181-3.826-2.321-6.822Z" transform="translate(-1154.335 -1149.66)" fill="#0b0a38"/>
      <path id="Path_17136" data-name="Path 17136" d="M1193.792,1149.66l-1.511,5.27c4.194,0,6.616,3.4,5.4,7.594s-5.577,7.591-9.784,7.591a6.228,6.228,0,0,1-3.107-.776l-3.667,4.723a10.534,10.534,0,0,0,5.263,1.316c7.105,0,14.507-5.759,16.552-12.861S1200.894,1149.66,1193.792,1149.66Z" transform="translate(-1162.952 -1149.66)" fill="#422400"/>
      <path id="Path_17137" data-name="Path 17137" d="M1184.226,1252.025a5.888,5.888,0,0,1-.881-.064,4.767,4.767,0,0,1-3.245-1.91,2.749,2.749,0,0,0-1.879-1.073,5.666,5.666,0,0,0-4.113,1.285,7.577,7.577,0,0,1-5.671,1.687,4.767,4.767,0,0,1-3.245-1.91,2.748,2.748,0,0,0-1.876-1.073,5.658,5.658,0,0,0-4.113,1.286,7.57,7.57,0,0,1-5.668,1.687,4.767,4.767,0,0,1-3.246-1.91,2.75,2.75,0,0,0-1.879-1.073,5.661,5.661,0,0,0-4.113,1.286,7.578,7.578,0,0,1-5.671,1.687,4.774,4.774,0,0,1-3.246-1.91,1.033,1.033,0,0,1,1.687-1.191,2.719,2.719,0,0,0,1.876,1.073,5.649,5.649,0,0,0,4.116-1.285,7.564,7.564,0,0,1,5.661-1.687,4.78,4.78,0,0,1,3.252,1.91,2.72,2.72,0,0,0,1.859,1.107,5.633,5.633,0,0,0,4.113-1.285,7.579,7.579,0,0,1,5.668-1.687,4.78,4.78,0,0,1,3.249,1.91,2.7,2.7,0,0,0,1.872,1.073,5.645,5.645,0,0,0,4.119-1.285,7.573,7.573,0,0,1,5.665-1.687,4.791,4.791,0,0,1,3.252,1.909,2.7,2.7,0,0,0,1.872,1.073,5.632,5.632,0,0,0,4.113-1.285,7.57,7.57,0,0,1,5.668-1.687,4.768,4.768,0,0,1,3.245,1.91,1.024,1.024,0,0,1-1.667,1.191,2.746,2.746,0,0,0-1.876-1.073,5.665,5.665,0,0,0-4.113,1.285,7.911,7.911,0,0,1-4.787,1.717Zm-23.384,9.916h-28.2l.982-3.431h28.2Zm4.71,6.238h-34.706l.985-3.431h34.706Zm11.626,6.241h-48.12l.985-3.435h48.117Zm-22.614,6.238H1127.27l.982-3.431h27.3Z" transform="translate(-1127.27 -1214.069)" fill="#20196f"/>
      <path id="Path_17138" data-name="Path 17138" d="M1215.579,1303.529h-7.409l.985-3.431h7.409Zm8.04-12.479h-4.46l.985-3.431h4.46Zm13.843-6.238h-23.012l.982-3.431h23.012Zm4.824,12.479h-11.5l.982-3.434h11.5Z" transform="translate(-1180.876 -1236.941)" fill="#422400"/>
    </g>
    <path id="Path_17139" data-name="Path 17139" d="M438.4,1086.77c-17.392,18.893-15.82,46.788-15.82,49.979,0,7.52,12.368,30.722,12.368,30.722Z" transform="translate(-231.178 -649.326)" fill="#efda3d"/>
    <path id="Path_17140" data-name="Path 17140" d="M423.26,1847.889a2.859,2.859,0,0,0-2.564,2.173l-1.845-.108a10.121,10.121,0,0,1-.452-7.044c.746-2.446,1.349-1.815,1.953-1.13,1.4,1.275,7.368,2.024,7.952.031,1.535.337,17.189,5.823,17.105,7.294-.138,2.385-2.007,2.271-3.283,2.2C427.068,1850.429,429.113,1849.62,423.26,1847.889Z" transform="translate(-228.149 -1149.203)" fill="#1d2a4d"/>
    <path id="Path_17141" data-name="Path 17141" d="M432.011,1819.157c-.385-2.3-6.225-3.9-7.085,0a40.653,40.653,0,0,1-2.186,6c1.211,1.964,14.865,6.309,17.294,3.5C438.526,1827.719,430.56,1825.837,432.011,1819.157Z" transform="translate(-231.31 -1133.055)" fill="#f7d3c9"/>
    <path id="Path_17142" data-name="Path 17142" d="M431.718,1350.22c.523,42.172,0,48.117,0,89.047,0,35.364-1.717,59.48-3.148,70.728h7.658c2.483-16.707,22.871-70.728,27.928-159.775Z" transform="translate(-235.173 -823.894)" fill="#20196f"/>
    <path id="Path_17143" data-name="Path 17143" d="M571.143,1847.889a2.863,2.863,0,0,0-2.567,2.173l-1.845-.108a10.121,10.121,0,0,1-.452-7.044c.746-2.446,1.349-1.815,1.957-1.13,1.4,1.275,7.365,2.024,7.952.031,1.532.337,17.186,5.823,17.1,7.294-.138,2.385-2.007,2.271-3.283,2.2C574.949,1850.429,577,1849.62,571.143,1847.889Z" transform="translate(-326.138 -1149.203)" fill="#1d2a4d"/>
    <path id="Path_17144" data-name="Path 17144" d="M578.288,1819.1c-.385-2.3-6.579-3.968-7.028,0-.24,2.1-.236,5.286-.591,6,1.211,1.964,14.865,6.309,17.3,3.5C586.439,1827.667,576.854,1825.785,578.288,1819.1Z" transform="translate(-329.332 -1133.003)" fill="#f7d3c9"/>
    <path id="Path_17145" data-name="Path 17145" d="M437.9,1350.214c0,38.421,8.414,40.148,25.266,77.452,11.569,25.6,19.139,75.573,19.659,82.32h7.655c.864-24.227.924-90.13-14.959-159.775Z" transform="translate(-241.356 -823.887)" fill="#362e94"/>
    <path id="Path_17146" data-name="Path 17146" d="M419.208,1126.476c.068.027.881-19.23,1.856-26.049,2.9-20.243,5.358-25.239,16.366-29.149,0,0,3.036-1.37,11.133,1.454,3.711,1.292,7.965,1.629,10.5,6.157s2.949,12.689,9.582,35.209c1.535,5.216-7.055,8.323-7.476,12.692-.472,4.889,2.794,14.953-2.463,15.837-.071.719-.037,3.182-.037,3.931,17.125,22.311,20.01,97.559,32.209,130.366-21.464,6.1-65.63,10.833-82.931.3,0-22.348,0-113.777,9.754-131.945.53-6.366,1.4-16.393,1.5-18.805Z" transform="translate(-221.51 -638.84)" fill="#ff8378"/>
    <path id="Path_17147" data-name="Path 17147" d="M556.321,1128.869c-1.91,1.91-5.948,5.351-5.948,11.876s1.727,17.321-2.476,19.23,1.069,9.052,2.476,13.667,9.136,103.295,21.086,121.5c4.092-.81,7.847-1.687,11.076-2.615-12.2-32.807-15.084-108.055-32.209-130.366,0-.749-.034-3.212.037-3.93,5.256-.884,1.991-10.948,2.463-15.836.422-4.386,9.011-7.476,7.476-12.692-6.633-22.52-7.044-30.678-9.582-35.209,1.265,6.63,7.513,32.469,5.6,34.379Z" transform="translate(-313.184 -654.441)" fill="#efda3d"/>
    <path id="Path_17148" data-name="Path 17148" d="M436.173,1278.7c7.223,2.048,27.081,3.29,40.64,1.589a2.962,2.962,0,0,1-.037,3.931c-10.553,1.687-29.929,1.727-40.968-1.275C434.466,1281.467,436.173,1278.7,436.173,1278.7Z" transform="translate(-239.628 -776.503)" fill="#f6f6fb"/>
    <path id="Path_17149" data-name="Path 17149" d="M480.531,1282.468c.321.9.675,3.792.229,4.905a9.476,9.476,0,0,1-2.112.213c-.263-1.434-.715-3.836-.4-5.125A4.179,4.179,0,0,1,480.531,1282.468Zm-23.377-.634a19.338,19.338,0,0,0-.948,4.818,9.431,9.431,0,0,1-2.1-.3,11.672,11.672,0,0,1,.759-4.909A5.2,5.2,0,0,1,457.155,1281.834Z" transform="translate(-252.081 -778.3)" fill="#dde2f8"/>
    <path id="Path_17150" data-name="Path 17150" d="M700.537,1044.208c.314-1.218,3.812-4.423,5.826-8.792,3.036-6.555,2.834-15.04-3.3-16.218-5.31-1.012-5.452,13.158-7.389,12.992-1.65-.148-3.654-5.735-4.841-5.833s1.744,6.747,1.751,10.209c0,2.024,1.215,3.883.54,5.948.705.138,7.412,1.694,7.412,1.694Z" transform="translate(-408.768 -604.517)" fill="#f7d3c9"/>
    <path id="Path_17151" data-name="Path 17151" d="M540.255,1086.239c7.854,9.551,23.208,29.278,27.948,31.2l5,15.678c-8.6,2.837-33.087-22.453-39.554-30.607C524.2,1089.852,531.867,1074.919,540.255,1086.239Z" transform="translate(-301.916 -646.315)" fill="#efda3d"/>
    <path id="Path_17152" data-name="Path 17152" d="M661.934,1087.46a67.536,67.536,0,0,1,9.7.955c-1.957,12.179-15.6,45.725-22.017,48.171l-5-15.678C650.713,1118.924,661.934,1087.46,661.934,1087.46Z" transform="translate(-378.333 -649.783)" fill="#efda3d"/>
    <path id="Path_17153" data-name="Path 17153" d="M639.709,1018.85l-11.08,43.9,31.339,5.165,11.08-43.9Z" transform="translate(-367.737 -604.32)" fill="#1d2a4d"/>
    <path id="Path_17154" data-name="Path 17154" d="M645.441,1026.9l-9.851,39.041,27.867,4.595,9.855-39.041Z" transform="translate(-372.349 -609.655)" fill="#fff"/>
    <path id="Path_17155" data-name="Path 17155" d="M628.63,1148.98l1.393.9,31.339,5.165-1.393-.9Z" transform="translate(-367.738 -690.547)" fill="#984511"/>
    <path id="Path_17156" data-name="Path 17156" d="M721.52,1078.07l1.393.9,11.079-43.9-1.393-.9Z" transform="translate(-429.289 -614.472)" fill="#f88136"/>
    <path id="Path_17157" data-name="Path 17157" d="M652.192,1048.208l19.689,3.246.243-.968-19.686-3.245Zm-.57,2.257,24.332,4.011.243-.965-24.332-4.011Zm-.57,2.26,24.332,4.011.243-.968-24.332-4.011Zm-.57,2.26L674.813,1059l.243-.968-24.328-4.011Zm-.57,2.257,24.332,4.011.246-.965-24.332-4.022Zm-.57,2.26,24.332,4.011.246-.968-24.332-4.012Zm-.57,2.26,24.332,4.011.246-.968-24.332-4.011Zm-.57,2.257,24.332,4.011.246-.965-24.332-4.011Zm-.57,2.26,24.332,4.011.246-.968-24.332-4.011Zm-.57,2.257,24.332,4.011.246-.965-24.342-4.011Zm-.57,2.26,24.332,4.025.246-.968-24.332-4.011Zm-.57,2.26,24.318,4.012.246-.968-24.332-4.011Zm4.723,2.119-.243.968,19.3,3.181.246-.965Z" transform="translate(-379.194 -623.132)" fill="#dde2f8"/>
    <path id="Path_17158" data-name="Path 17158" d="M698.828,1025.372c-1.349-.223-1.3,2.024-1.012,4.048l-10.914-1.8c-.28-2.024-.337-4.254,1.012-4.048Z" transform="translate(-406.243 -607.442)" fill="#07143a"/>
    <path id="Path_17159" data-name="Path 17159" d="M499.648,965.481c.722,4.912,4.409,19.409,1.613,24.713-2.3,4.356-7.156,5.169-15.05,2.635s-8.461-16.781-9.561-20.877C474.918,965.461,498.147,955.134,499.648,965.481Z" transform="translate(-266.971 -566.046)" fill="#f8d8d0"/>
    <path id="Path_17160" data-name="Path 17160" d="M498.75,1038.018c.479,2.5,2.166,7.952,2.166,7.952-1.056,1.481-8.2,3.428-16-.823.476-4.609-.078-15.266-.078-15.266Z" transform="translate(-272.459 -611.629)" fill="#f8d8d0"/>
    <path id="Path_17161" data-name="Path 17161" d="M467.42,959.165c5.037-1.812,7.3-17.206-5.654-13.073s-25.246,9.109-21.623,17.743-3.59,9.979-4.6,18.647c-.867,7.422,3.745,11.093-3.158,16.285-5.179,3.893-.631,9.875-2.564,12.82-4.5,6.859-4.244,16.012,7.358,19.609,16.592,5.145,35.391,3.671,28.475-6.717-5.573-8.37-4.528-8.461-1.012-13.191s-8.151-10.8-3.617-15.479c2.547-2.638-3.607-10.563-2.635-15.354.759-3.738,5.958-2.851,5.85-9.22-.142-7.648-2.379-10.064,3.181-12.068Z" transform="translate(-234.206 -555.644)" fill="#1d2a4d"/>
    <path id="Path_17162" data-name="Path 17162" d="M1198.89,769.118l158.8,83.376,13.633-106.874-95.363,27.486Z" transform="translate(-745.605 -423.272)" fill="none"/>
    <path id="Path_17205" data-name="Path 17205" d="M110.443,1586.139l-10.9-4.329a2.558,2.558,0,0,0-2.54.371l-9.2,7.271a2.571,2.571,0,0,0-.948,2.389l1.687,11.6a2.574,2.574,0,0,0,1.592,2.024l10.9,4.332a2.574,2.574,0,0,0,2.54-.371l9.2-7.274a2.571,2.571,0,0,0,.948-2.385l-1.687-11.606A2.567,2.567,0,0,0,110.443,1586.139Z" transform="translate(41 -1090.271)" fill="#bed48f"/>
    <path id="Path_17206" data-name="Path 17206" d="M508.822,249.379l6.457,17.065a2.564,2.564,0,0,0,4.386.715l11.552-14.123a2.567,2.567,0,0,0-1.572-4.16l-18.009-2.942a2.567,2.567,0,0,0-2.814,3.445Z" transform="translate(-288.24 -92.147)" fill="#efda3d"/>
    <path id="Path_17207" data-name="Path 17207" d="M1858.393,1153.961l-12.483,13.323a2.564,2.564,0,0,0,1.3,4.251l17.77,4.133a2.568,2.568,0,0,0,3.036-3.246l-5.31-17.456a2.564,2.564,0,0,0-4.308-1.005Z" transform="translate(-1172.831 -607.276)" fill="#f88136"/>
    <g id="Group_1415" data-name="Group 1415" transform="translate(287.478 106.837)">
      <g id="Group_1414" data-name="Group 1414">
        <path id="Path_17208" data-name="Path 17208" d="M1302.84,844.217a1.007,1.007,0,0,1-.28-.04l-105.977-29.939a1.025,1.025,0,0,1,.557-1.974L1303.116,842.2a1.022,1.022,0,1,1-.276,2.024Z" transform="translate(-1031.059 -574.243)" fill="#11845b"/>
        <path id="Path_17209" data-name="Path 17209" d="M1355.676,897.684a1.046,1.046,0,0,1-.476-.118L1196.393,814.2a1.025,1.025,0,0,1,.955-1.815l158.8,83.363a1.012,1.012,0,0,1-.476,1.933Z" transform="translate(-1031.065 -574.273)" fill="#11845b"/>
        <path id="Path_17210" data-name="Path 17210" d="M971.844,286.592a.993.993,0,0,1-.445-.1L897.284,250.6a1.025,1.025,0,1,1,.894-1.845l74.112,35.887a1.012,1.012,0,0,1-.445,1.947Z" transform="translate(-832.848 -200.809)" fill="#11845b"/>
        <path id="Path_17211" data-name="Path 17211" d="M708.467,353.511a1.021,1.021,0,0,1-.877-1.565L771.445,249.14a1.025,1.025,0,1,1,1.741,1.083l-63.849,102.8A1.012,1.012,0,0,1,708.467,353.511Z" transform="translate(-707.431 -200.809)" fill="#11845b"/>
        <path id="Path_17212" data-name="Path 17212" d="M903.376,352.121a1.012,1.012,0,0,1-1.012-.968l-5.627-101.416a1.025,1.025,0,1,1,2.048-.111l5.627,101.416a1.012,1.012,0,0,1-.965,1.08Z" transform="translate(-832.869 -200.809)" fill="#11845b"/>
        <path id="Path_17213" data-name="Path 17213" d="M914.379,422.6a1.012,1.012,0,0,1-.708-1.764l68.488-65.529a1.024,1.024,0,1,1,1.417,1.478l-68.488,65.532A1.029,1.029,0,0,1,914.379,422.6Z" transform="translate(-843.867 -271.292)" fill="#11845b"/>
        <path id="Path_17214" data-name="Path 17214" d="M708.469,552.7a1.024,1.024,0,0,1-.02-2.048l69.476-1.39a1.024,1.024,0,0,1,.04,2.048l-69.476,1.39Z" transform="translate(-707.434 -399.996)" fill="#11845b"/>
        <path id="Path_17215" data-name="Path 17215" d="M797.983,638.866a1.012,1.012,0,0,1-.7-.277l-89.5-83.437a1.025,1.025,0,1,1,1.4-1.5l89.5,83.44a1.012,1.012,0,0,1-.7,1.775Z" transform="translate(-707.451 -402.724)" fill="#11845b"/>
        <path id="Path_17216" data-name="Path 17216" d="M845.144,773.609a1.063,1.063,0,0,1-.226-.027l-65.485-14.834a1.024,1.024,0,0,1,.452-2l65.5,14.845a1.018,1.018,0,0,1-.226,2.024Z" transform="translate(-754.612 -537.467)" fill="#11845b"/>
        <path id="Path_17217" data-name="Path 17217" d="M732.483,624.034a1.012,1.012,0,0,1-.965-.675l-24-68.616a1.025,1.025,0,0,1,1.937-.675l24,68.6a1.023,1.023,0,0,1-.968,1.363Z" transform="translate(-707.45 -402.726)" fill="#11845b"/>
        <path id="Path_17218" data-name="Path 17218" d="M934.435,636.144a1.029,1.029,0,0,1-1.012-.789l-20.007-84.827a1.024,1.024,0,1,1,1.994-.469l20.023,84.813a1.012,1.012,0,0,1-.763,1.231A.96.96,0,0,1,934.435,636.144Z" transform="translate(-843.903 -400.002)" fill="#11845b"/>
        <path id="Path_17219" data-name="Path 17219" d="M914.355,540.378a1.024,1.024,0,0,1-.054-2.048l98.282-5.563a1.026,1.026,0,0,1,.115,2.048l-98.281,5.563Z" transform="translate(-843.847 -389.066)" fill="#11845b"/>
        <path id="Path_17220" data-name="Path 17220" d="M973.739,625.233a1.012,1.012,0,0,1-.776-1.687l78.272-90.39a1.028,1.028,0,1,1,1.552,1.349L974.515,624.9A1.011,1.011,0,0,1,973.739,625.233Z" transform="translate(-883.208 -389.091)" fill="#11845b"/>
        <path id="Path_17221" data-name="Path 17221" d="M973.539,688.942a1.012,1.012,0,0,1-.337-1.994l164.866-57.941a1.024,1.024,0,1,1,.675,1.933L973.88,688.882A1.016,1.016,0,0,1,973.539,688.942Z" transform="translate(-883.007 -452.801)" fill="#11845b"/>
        <path id="Path_17222" data-name="Path 17222" d="M1126.109,810.616h-.054L973.7,802.735a1.025,1.025,0,0,1,.108-2.048l152.35,7.881a1.024,1.024,0,1,1-.051,2.048Z" transform="translate(-883.224 -566.597)" fill="#11845b"/>
        <path id="Path_17223" data-name="Path 17223" d="M1510.937,798.027a1.012,1.012,0,0,1-.645-1.822l66.464-53.437a1.025,1.025,0,1,1,1.282,1.6L1511.575,797.8A1.013,1.013,0,0,1,1510.937,798.027Z" transform="translate(-1239.156 -528.069)" fill="#11845b"/>
        <path id="Path_17224" data-name="Path 17224" d="M1667.576,851.509a.872.872,0,0,1-.131,0,1.012,1.012,0,0,1-.884-1.147L1680.2,743.481a1.02,1.02,0,1,1,2.024.26l-13.633,106.875A1.012,1.012,0,0,1,1667.576,851.509Z" transform="translate(-1342.965 -528.101)" fill="#11845b"/>
        <path id="Path_17225" data-name="Path 17225" d="M1563.824,956.454a1.012,1.012,0,0,1-.729-.3l-52.827-53.437a1.025,1.025,0,0,1,1.457-1.441l52.827,53.437a1.012,1.012,0,0,1-.729,1.744Z" transform="translate(-1239.213 -633.046)" fill="#11845b"/>
        <path id="Path_17226" data-name="Path 17226" d="M1425.329,696.841a.929.929,0,0,1-.192,0,1.012,1.012,0,0,1-.816-1.2l12.517-65.822a1.03,1.03,0,1,1,2.024.381l-12.517,65.822a1.012,1.012,0,0,1-1.016.817Z" transform="translate(-1182.445 -452.822)" fill="#11845b"/>
        <path id="Path_17227" data-name="Path 17227" d="M1425.054,765.713a1.022,1.022,0,0,1-.283-2.024l106.611-30.728a1.024,1.024,0,0,1,.57,1.967l-106.611,30.728A1.071,1.071,0,0,1,1425.054,765.713Z" transform="translate(-1182.173 -521.693)" fill="#11845b"/>
        <path id="Path_17228" data-name="Path 17228" d="M1556.526,666.064a1.013,1.013,0,0,1-.358-.064l-94.1-35.087a1.024,1.024,0,0,1,.715-1.92l94.1,35.087a1.012,1.012,0,0,1-.361,1.984Z" transform="translate(-1207.03 -452.786)" fill="#11845b"/>
        <path id="Path_17229" data-name="Path 17229" d="M1292.33,567.243a1.013,1.013,0,0,1-.358-.064l-86.608-32.449a1.026,1.026,0,1,1,.722-1.92l86.6,32.449a1.012,1.012,0,0,1-.361,1.984Z" transform="translate(-1036.932 -389.053)" fill="#11845b"/>
        <path id="Path_17230" data-name="Path 17230" d="M1205.668,409.1a1.012,1.012,0,0,1-.59-1.862l90.778-64.011a1.03,1.03,0,1,1,1.181,1.687l-90.778,64A1.012,1.012,0,0,1,1205.668,409.1Z" transform="translate(-1036.875 -263.349)" fill="#11845b"/>
        <path id="Path_17231" data-name="Path 17231" d="M1462.429,441.522h-.044a1.012,1.012,0,0,1-.978-1.069l4.17-96.46a1.025,1.025,0,0,1,2.048.088l-4.17,96.46A1.012,1.012,0,0,1,1462.429,441.522Z" transform="translate(-1207.031 -263.332)" fill="#11845b"/>
        <path id="Path_17232" data-name="Path 17232" d="M1581.381,372.946a1.146,1.146,0,0,1-.26-.034l-106.628-27.874a1.025,1.025,0,0,1,.516-1.984l106.611,27.871a1.02,1.02,0,1,1-.256,2.024Z" transform="translate(-1215.196 -263.338)" fill="#11845b"/>
        <path id="Path_17233" data-name="Path 17233" d="M1474.725,269.245a1.012,1.012,0,0,1-.547-1.893l61.187-38.613a1.024,1.024,0,0,1,1.093,1.731l-61.187,38.616a1.013,1.013,0,0,1-.547.159Z" transform="translate(-1215.154 -187.507)" fill="#11845b"/>
        <path id="Path_17234" data-name="Path 17234" d="M1267.351,143.184a1.021,1.021,0,0,1-.739-1.717l31.521-34.3a1.027,1.027,0,0,1,1.512,1.39l-31.521,34.294A1.012,1.012,0,0,1,1267.351,143.184Z" transform="translate(-1077.775 -106.837)" fill="#11845b"/>
        <path id="Path_17235" data-name="Path 17235" d="M1460.416,149.96a1.013,1.013,0,0,1-.391-.078l-99.661-41.069a1.026,1.026,0,1,1,.782-1.9l99.661,41.072a1.012,1.012,0,0,1-.392,1.97Z" transform="translate(-1139.658 -106.838)" fill="#11845b"/>
        <path id="Path_17236" data-name="Path 17236" d="M897.459,156.739a1.013,1.013,0,0,1-.3-2l156.206-47.844a1.023,1.023,0,0,1,.6,1.957L897.762,156.695a1.048,1.048,0,0,1-.3.044Zm194.687,31.842a1.035,1.035,0,0,1-.557-.165L1021.6,143.028a1.025,1.025,0,1,1,1.113-1.721l70,45.387a1.012,1.012,0,0,1-.56,1.886Z" transform="translate(-832.578 -106.843)" fill="#11845b"/>
        <path id="Path_17237" data-name="Path 17237" d="M1117.371,259.982a1.012,1.012,0,0,1-.715-1.758l50.58-49.436a1.025,1.025,0,0,1,1.431,1.468l-50.58,49.433A1.012,1.012,0,0,1,1117.371,259.982Z" transform="translate(-978.375 -174.2)" fill="#11845b"/>
        <path id="Path_17238" data-name="Path 17238" d="M897.623,156.736a1.024,1.024,0,1,1-.108-2.044L1022.2,141.146a1.018,1.018,0,1,1,.223,2.024L897.732,156.716A.619.619,0,0,1,897.623,156.736Zm194.69,31.842a1.012,1.012,0,0,1-.924-.58L1052.9,108.313a1.025,1.025,0,0,1,1.845-.891l38.461,79.685a1.012,1.012,0,0,1-.921,1.471Z" transform="translate(-832.742 -106.841)" fill="#11845b"/>
        <path id="Path_17239" data-name="Path 17239" d="M1701.582,297.117a1.012,1.012,0,0,1-.847-.449l-45.428-66.484a1.023,1.023,0,0,1,1.687-1.157l45.431,66.5a1.012,1.012,0,0,1-.267,1.424A1.035,1.035,0,0,1,1701.582,297.117Z" transform="translate(-1335.396 -187.509)" fill="#11845b"/>
        <path id="Path_17240" data-name="Path 17240" d="M1808.494,493.054a1.012,1.012,0,0,1-.989-.756l-17.7-65.37a1.026,1.026,0,0,1,1.98-.536l17.7,65.37a1.012,1.012,0,0,1-.722,1.258,1.057,1.057,0,0,1-.27.034Z" transform="translate(-1424.615 -318.079)" fill="#11845b"/>
        <path id="Path_17241" data-name="Path 17241" d="M1741.309,659.751a1.012,1.012,0,0,1-.762-1.707l34.382-38.3a1.024,1.024,0,1,1,1.525,1.366l-34.382,38.306A1.012,1.012,0,0,1,1741.309,659.751Z" transform="translate(-1391.813 -446.473)" fill="#11845b"/>
        <path id="Path_17242" data-name="Path 17242" d="M1147.2,417.039a1.013,1.013,0,0,1-.918-.567l-29.8-59.969a1.024,1.024,0,0,1,1.835-.911l29.8,59.966a1.012,1.012,0,0,1-.918,1.481Z" transform="translate(-978.412 -271.29)" fill="#11845b"/>
        <path id="Path_17243" data-name="Path 17243" d="M1117.372,349.119a1.026,1.026,0,0,1-.034-2.051l120.572-4.049a1.026,1.026,0,0,1,.071,2.051l-120.575,4.049Zm116.4,92.408a1.012,1.012,0,0,1-.54-1.9l110.788-68.589a1.024,1.024,0,0,1,1.079,1.741l-110.8,68.6a1.047,1.047,0,0,1-.526.145Z" transform="translate(-978.376 -263.336)" fill="#11845b"/>
        <path id="Path_17244" data-name="Path 17244" d="M1741.343,531.373a.9.9,0,0,1-.165,0,1.012,1.012,0,0,1-.847-1.174l16.687-103.683a1.026,1.026,0,0,1,2.024.337l-16.687,103.686A1.012,1.012,0,0,1,1741.343,531.373Z" transform="translate(-1391.844 -318.095)" fill="#11845b"/>
      </g>
      <path id="Path_17245" data-name="Path 17245" d="M897.18,539.535a6.495,6.495,0,1,1,6.495,6.495A6.495,6.495,0,0,1,897.18,539.535Z" transform="translate(-833.163 -389.249)" fill="#11845b" stroke="#05c168" stroke-linecap="round" stroke-linejoin="round" stroke-width="5"/>
      <circle id="Ellipse_981" data-name="Ellipse 981" cx="6.491" cy="6.491" r="6.491" transform="matrix(0.977, -0.213, 0.213, 0.977, 161.074, 139.759)" fill="#11845b" stroke="#05c168" stroke-linecap="round" stroke-linejoin="round" stroke-width="5"/>
      <path id="Path_17246" data-name="Path 17246" d="M1100.18,345.311a6.488,6.488,0,1,1,1.9,4.591A6.491,6.491,0,0,1,1100.18,345.311Z" transform="translate(-967.675 -260.554)" fill="#11845b" stroke="#05c168" stroke-linecap="round" stroke-linejoin="round" stroke-width="5"/>
      <path id="Path_17247" data-name="Path 17247" d="M956.53,791a6.491,6.491,0,1,1,1.9,4.6A6.491,6.491,0,0,1,956.53,791Z" transform="translate(-872.489 -555.885)" fill="#11845b" stroke="#05c168" stroke-linecap="round" stroke-linejoin="round" stroke-width="5"/>
      <circle id="Ellipse_982" data-name="Ellipse 982" cx="6.491" cy="6.491" r="6.491" transform="translate(233.713 243.213) rotate(-46.1)" fill="#11845b" stroke="#05c168" stroke-linecap="round" stroke-linejoin="round" stroke-width="5"/>
      <circle id="Ellipse_983" data-name="Ellipse 983" cx="6.491" cy="6.491" r="6.491" transform="translate(247.545 181.911) rotate(-76)" fill="#11845b" stroke="#05c168" stroke-linecap="round" stroke-linejoin="round" stroke-width="5"/>
      <path id="Path_17248" data-name="Path 17248" d="M1320.092,244.179a6.495,6.495,0,1,1,6.493,6.491A6.494,6.494,0,0,1,1320.092,244.179ZM1250.1,198.791a6.491,6.491,0,1,1,6.491,6.491A6.491,6.491,0,0,1,1250.1,198.791Z" transform="translate(-1067.015 -163.467)" fill="#11845b" stroke="#05c168" stroke-linecap="round" stroke-linejoin="round" stroke-width="5"/>
      <circle id="Ellipse_984" data-name="Ellipse 984" cx="6.491" cy="6.491" r="6.491" transform="translate(348.359 162.61)" fill="#11845b" stroke="#05c168" stroke-linecap="round" stroke-linejoin="round" stroke-width="5"/>
      <path id="Path_17249" data-name="Path 17249" d="M1724.11,723.245a6.495,6.495,0,1,1,6.491,6.495A6.494,6.494,0,0,1,1724.11,723.245Z" transform="translate(-1381.105 -510.979)" fill="#11845b" stroke="#05c168" stroke-linecap="round" stroke-linejoin="round" stroke-width="5"/>
      <circle id="Ellipse_985" data-name="Ellipse 985" cx="6.491" cy="6.491" r="6.491" transform="matrix(0.055, -0.998, 0.998, 0.055, 264.943, 275.069)" fill="#11845b" stroke="#05c168" stroke-linecap="round" stroke-linejoin="round" stroke-width="5"/>
    </g>
  </g>
</svg>
