<svg xmlns="http://www.w3.org/2000/svg" width="819.436" height="702.12" viewBox="0 0 819.436 702.12">
  <g id="Group_8" data-name="Group 8" transform="translate(-890.89 -163.118)">
    <g id="Group_2" data-name="Group 2" transform="translate(16.5 14)">
      <path id="Shape_28" data-name="Shape 28" d="M513,694v21s4.894,36,73,36c0,0,50.894-1.857,64-33V694Z" transform="translate(362 -18.749)" fill="none" stroke="#000" stroke-width="1"/>
      <ellipse id="Ellipse_5" data-name="Ellipse 5" cx="68.61" cy="41.81" rx="68.61" ry="41.81" transform="translate(874.89 632.151)" fill="#fff" stroke="#000" stroke-width="1"/>
      <g id="Group_1" data-name="Group 1" transform="translate(0 -3)">
        <ellipse id="Ellipse_3" data-name="Ellipse 3" cx="9" cy="5" rx="9" ry="5" transform="translate(917 657.251)" fill="#005dff"/>
        <path id="Shape_27" data-name="Shape 27" d="M565,692l15-9,23,15,6-3,5,3-19,11-6-3,6-4-18-11-8,4Z" transform="translate(362 -18.749)" fill="#005dff"/>
      </g>
      <ellipse id="Ellipse_4" data-name="Ellipse 4" cx="57" cy="35" rx="57" ry="35" transform="translate(886 637.251)" fill="none" stroke="#232323" stroke-width="1"/>
    </g>
    <path id="Rectangle_4_copy" data-name="Rectangle 4 copy" d="M588.265,358.225,898.058,183.089c5.95-3.364,10.77.458,10.77,8.534v177.3c0,8.076-4.82,17.418-10.77,20.869L588.265,569.466c-6.22,3.607-11.265-.167-11.265-8.433V379.561C577,371.295,582.046,361.741,588.265,358.225Z" transform="translate(362 -18.749)" opacity="0.1"/>
    <path id="Rectangle_4" data-name="Rectangle 4" d="M609.265,375.225,919.058,200.089c5.95-3.364,10.77.458,10.77,8.534v177.3c0,8.076-4.82,17.418-10.77,20.869L609.265,586.466c-6.22,3.607-11.266-.167-11.266-8.433V396.56C598,388.295,603.046,378.741,609.265,375.225Z" transform="translate(362 -18.749)" opacity="0.2"/>
    <path id="Shape_21" data-name="Shape 21" d="M642,613l-19-10s-4.268-2.822-4-11V418s-1.768-18.822,16-28L932,218a11.54,11.54,0,0,1,12-2l18,11s-5-3.98-13,0L657,397s-20.34,7.417-21,29V602S637,610.5,642,613Z" transform="translate(362 -18.749)" opacity="0.2"/>
    <path id="Shape_20" data-name="Shape 20" d="M656,397s-21.85,8.7-20,37V604s.066,14.928,20,9L953,440s13-6.572,13-27V238s1.566-16.572-13-13Z" transform="translate(362 -18.749)" fill="#fff" stroke="#000" stroke-width="1"/>
    <path id="Shape_18" data-name="Shape 18" d="M668,436V423l10-5v5l-6,3v8Z" transform="translate(362 -18.749)"/>
    <ellipse id="Ellipse_1_copy_3" data-name="Ellipse 1 copy 3" cx="2.5" cy="4" rx="2.5" ry="4" transform="translate(1586 448.251)" fill="none" stroke="#232323" stroke-width="2"/>
    <path id="Rectangle_1_copy" data-name="Rectangle 1 copy" d="M1011.334,480.2S1173.089,573.046,1192,584a6.8,6.8,0,0,1,2,2v21c.577,4.721-.532,6.044-3.895,8.569L876.621,800.01c-4.759,2.754-12.051,3.065-16.283.691L674,693c-4.28-2.4-6.646-2.927-6-9V662a5.857,5.857,0,0,1,3-3c31.494-15.281,324.844-178.527,324.844-178.527C1000.351,478,1007.284,477.879,1011.334,480.2Z" transform="translate(362 -18.749)" fill="none" stroke="#000" stroke-width="1"/>
    <path id="Rectangle_1" data-name="Rectangle 1" d="M1011.334,480.2,1190.747,582.85c4.006,2.292,3.721,6.194-.642,8.719L876.621,773.01c-4.759,2.754-12.051,3.065-16.283.691L670.752,667.348c-4.281-2.4-3.76-6.538,1.159-9.235L995.844,480.473C1000.351,478,1007.284,477.879,1011.334,480.2Z" transform="translate(362 -18.749)" fill="#005dff" stroke="#000" stroke-width="1"/>
    <path id="Shape_8" data-name="Shape 8" d="M876.461,697.671l11.043-7.6L877.2,681.709s42.991,2.889,45.642-24.323l12.515-6.08,13.251,9.122s-5.411,37.243-71.881,37.245ZM808,655.106l11.042,7.6,13.251-7.6s3.41,22.6,39.016,25.844l11.778,9.881-12.515,6.081S812.882,692.908,808,655.106Zm0-4.561c7.238-41.7,72.878-38.766,72.878-38.766l-12.514,6.841,12.514,9.122c-44.587-.506-47.849,24.323-47.849,24.323l-13.987,6.841Zm128.09-2.281-11.778,6.081a153.334,153.334,0,0,0,1.605-27.709c-18.965-.309-39.885.345-39.885.345l-11.778-8.362,13.251-7.6c11.659.116,24.64.166,37.247.177-.3-7.171-.462-20.356,1.768-29.822l11.778-6.841,13.251,8.361a193.157,193.157,0,0,0-1.3,28.28c20.138-.049,35.162-.156,35.162-.156l-11.778,6.841,11.778,8.361c-5.462.34-22.056.548-34.173.659.279,9.072.261,22.7-1.9,29.746Zm43.433-30.4,11.778-7.6s42.131,2.23,50.058-19l11.778,6.081,14.723-8.362s.612,20.169-39.016,32.685c0,0-20,3.75-37.544,4.56Zm63.309-31.164c3.533-28.124-40.488-30.4-40.488-30.4l10.306-6.841-12.514-9.122c73.933,7.247,67.726,45.607,67.726,45.607l-13.987,7.6Zm-103.8-15.2-11.778,6.842s5.618-37.448,66.99-38.006l13.25,9.122-10.306,6.081s-35.164-4.155-44.9,24.323Z" transform="translate(362 -15.749)" fill="#094797"/>
    <path id="Shape_8-2" data-name="Shape 8" d="M876.461,697.671l11.043-7.6L877.2,681.709s42.991,2.889,45.642-24.323l12.515-6.08,13.251,9.122s-5.411,37.243-71.881,37.245ZM808,655.106l11.042,7.6,13.251-7.6s3.41,22.6,39.016,25.844l11.778,9.881-12.515,6.081S812.882,692.908,808,655.106Zm0-4.561c7.238-41.7,72.878-38.766,72.878-38.766l-12.514,6.841,12.514,9.122c-44.587-.506-47.849,24.323-47.849,24.323l-13.987,6.841Zm128.09-2.281-11.778,6.081a153.334,153.334,0,0,0,1.605-27.709c-18.965-.309-39.885.345-39.885.345l-11.778-8.362,13.251-7.6c11.659.116,24.64.166,37.247.177-.3-7.171-.462-20.356,1.768-29.822l11.778-6.841,13.251,8.361a193.157,193.157,0,0,0-1.3,28.28c20.138-.049,35.162-.156,35.162-.156l-11.778,6.841,11.778,8.361c-5.462.34-22.056.548-34.173.659.279,9.072.261,22.7-1.9,29.746Zm43.433-30.4,11.778-7.6s42.131,2.23,50.058-19l11.778,6.081,14.723-8.362s.612,20.169-39.016,32.685c0,0-20,3.75-37.544,4.56Zm63.309-31.164c3.533-28.124-40.488-30.4-40.488-30.4l10.306-6.841-12.514-9.122c73.933,7.247,67.726,45.607,67.726,45.607l-13.987,7.6Zm-103.8-15.2-11.778,6.842s5.618-37.448,66.99-38.006l13.25,9.122-10.306,6.081s-35.164-4.155-44.9,24.323Z" transform="translate(362 -18.749)" fill="#fff"/>
    <g id="Group_4" data-name="Group 4">
      <path id="Rectangle_2_copy_4" data-name="Rectangle 2 copy 4" d="M1215.26,655.137l58.735-33.563a12.525,12.525,0,0,1,11.248-.043l59.014,33.842c3.17,1.818,3.142,4.757-.064,6.562l-60.134,33.843a12.525,12.525,0,0,1-11.332-.1l-57.616-34.122C1212.1,659.776,1212.17,656.9,1215.26,655.137Z" transform="translate(362 -18.749)" fill="#e4e4e4" stroke="#232323" stroke-width="1" opacity="0.2"/>
      <path id="Rectangle_2_copy_3" data-name="Rectangle 2 copy 3" d="M1215.26,635.137l58.735-33.563a12.525,12.525,0,0,1,11.248-.043l59.014,33.842c3.17,1.818,3.142,4.757-.064,6.562l-60.134,33.843a12.525,12.525,0,0,1-11.332-.1l-57.616-34.122C1212.1,639.776,1212.17,636.9,1215.26,635.137Z" transform="translate(362 -18.749)" fill="#e4e4e4" stroke="#232323" stroke-width="1" opacity="0.4"/>
      <path id="Rectangle_2_copy_2" data-name="Rectangle 2 copy 2" d="M1215.26,618.137l58.735-33.563a12.525,12.525,0,0,1,11.248-.043l59.014,33.842c3.17,1.818,3.142,4.757-.064,6.562l-60.134,33.843a12.525,12.525,0,0,1-11.332-.1l-57.616-34.122C1212.1,622.776,1212.17,619.9,1215.26,618.137Z" transform="translate(362 -18.749)" fill="#e4e4e4" stroke="#232323" stroke-width="1" opacity="0.6"/>
      <path id="Rectangle_2" data-name="Rectangle 2" d="M1215.26,581.137l58.735-33.563a12.525,12.525,0,0,1,11.248-.043l59.014,33.842c3.17,1.818,3.142,4.757-.064,6.562l-60.134,33.843a12.525,12.525,0,0,1-11.332-.1l-57.616-34.122C1212.1,585.776,1212.17,582.9,1215.26,581.137Z" transform="translate(362 -18.749)" fill="none" stroke="#000" stroke-width="1"/>
      <path id="Rectangle_2_copy" data-name="Rectangle 2 copy" d="M1213,597V584l61-35.426a12.525,12.525,0,0,1,11.248-.043S1338.65,579.089,1347,586c.77.637,0,12,0,12,.6,3.36-.286,4.644-2.807,5.935l-60.134,33.843a12.525,12.525,0,0,1-11.332-.1l-57.616-34.122C1212.788,602.461,1212.823,600.308,1213,597Z" transform="translate(362 -18.749)" fill="none" stroke="#232323" stroke-width="2"/>
    </g>
    <g id="Group_5" data-name="Group 5">
      <path id="Shape_12" data-name="Shape 12" d="M1211.7,520.249,1231,511a15.1,15.1,0,0,0,3.6-11.051L1234,402s2.41-22.991-22-39l-141-81s-8.09-3.491-12-1l-15,9s4.16-2.491,14,3l142,82s17.66,10.509,19,30l-.6,101.449S1211.8,520.649,1211.7,520.249Z" transform="translate(362 -18.749)" fill="none" stroke="#232323" stroke-width="2"/>
      <ellipse id="Ellipse_1" data-name="Ellipse 1" cx="2.5" cy="4" rx="2.5" ry="4" transform="translate(1586 410.251)" fill="none" stroke="#232323" stroke-width="2"/>
      <ellipse id="Ellipse_1_copy" data-name="Ellipse 1 copy" cx="2.5" cy="4" rx="2.5" ry="4" transform="translate(1586 423.251)" fill="none" stroke="#232323" stroke-width="2"/>
      <ellipse id="Ellipse_1_copy_2" data-name="Ellipse 1 copy 2" cx="2.5" cy="4" rx="2.5" ry="4" transform="translate(1586 436.251)" fill="none" stroke="#232323" stroke-width="2"/>
      <path id="Shape_11" data-name="Shape 11" d="M1127,503l16-13,56,30s18.16,7.384,20-11V410s2.66-25.866-24-38l-139-80s-17.59-11.116-19,10v99s-2.09,24.634,16,35l57,33Z" transform="translate(362 -18.749)" fill="none" stroke="#000" stroke-width="1"/>
      <path id="Shape_9" data-name="Shape 9" d="M1128,493l13-12,53,30s14.793,10.367,19-4V405s-1.206-17.832-16-26l-141-81s-9.606-6.033-14,5l-1,104a35.814,35.814,0,0,0,13,24l60,34Z" transform="translate(362 -18.749)" fill="none" stroke="#232323" stroke-width="2"/>
      <path id="FAQ" d="M1166.132,451.184l-5.333-10.77a26.634,26.634,0,0,1-4.583-1.944,37.233,37.233,0,0,1-10.529-8.616,44.16,44.16,0,0,1-7.484-12.2,34.746,34.746,0,0,1-2.747-13.259q0-6.556,2.747-10.381a10.381,10.381,0,0,1,7.484-4.418q4.756-.578,10.529,2.294a36.134,36.134,0,0,1,10.719,8.35,43.38,43.38,0,0,1,7.8,12.329,35.2,35.2,0,0,1,2.875,13.662,18.9,18.9,0,0,1-2.21,9.685,10.254,10.254,0,0,1-6.1,4.873l9.285,17.168Zm-17.794-49.709q-2.912,2.049-2.91,8.082a21.922,21.922,0,0,0,2.91,11.065,19.422,19.422,0,0,0,7.879,7.741q4.93,2.61,7.924.542t3-8.1a21.97,21.97,0,0,0-3-11.241,19.053,19.053,0,0,0-7.924-7.637,10.946,10.946,0,0,0-4.833-1.38A5.16,5.16,0,0,0,1148.338,401.475Zm-25.677,18.509-2.317-9.035-14.243-7.556-2.25,6.484-9.491-5.1,13.516-36.363,10.764,5.37,14.11,51.622Zm-14.138-23.515,9.4,4.922-4.748-18.531Zm-39.9-5.523v-42.12l23.431,11.692v8.4l-14.779-7.485v8.951l11.021,5.671v8.123l-11.021-5.752V395.6Z" transform="translate(362 -18.749)"/>
    </g>
    <g id="Group_7" data-name="Group 7">
      <path id="Shape_19" data-name="Shape 19" d="M652,417V593L948,423l1-178Z" transform="translate(362 -18.749)" fill="#fff" stroke="#000" stroke-width="1"/>
      <path id="Ellipse_3_copy_2" data-name="Ellipse 3 copy 2" d="M884,302.5a2.05,2.05,0,1,1,2,2.5A2.293,2.293,0,0,1,884,302.5Zm5-3a2.05,2.05,0,1,1,2,2.5A2.293,2.293,0,0,1,889,299.5Zm44-24a2.05,2.05,0,1,1,2,2.5A2.293,2.293,0,0,1,933,275.5Z" transform="translate(362 -18.749)"/>
      <path id="Ellipse_3_copy_3" data-name="Ellipse 3 copy 3" d="M884,444.5a2.05,2.05,0,1,1,2,2.5A2.293,2.293,0,0,1,884,444.5Zm5-3a2.05,2.05,0,1,1,2,2.5A2.292,2.292,0,0,1,889,441.5Zm44-24a2.05,2.05,0,1,1,2,2.5A2.293,2.293,0,0,1,933,417.5Z" transform="translate(362 -18.749)"/>
      <path id="Shape_17" data-name="Shape 17" d="M811,477v8l-6,3v5l10-6V475Z" transform="translate(362 -18.749)"/>
      <path id="Shape_16" data-name="Shape 16" d="M741,516c-1.629-12.541,4-19,4-19,7.371-7.708,13-4,13-4,11.167-8.334,16-24,16-24-3.8-1.708-3-8-3-8V437c-.963-12.709,8-18,8-18,10.538-4.875,11,5,11,5,4.537-2.542,5,4,5,4v16c-.8,5.959-6,9-6,9-.3,9.625-7,13-7,13-4.3,18.958-21,35-21,35-1.3,7.124-7,14-7,14-3.569,2.456-6.278,3.228-8.275,3.228A5.469,5.469,0,0,1,741,516Zm-38-13s-5.963,1.958-6-3V483s1.871-7.708,5-8c0,0,1.2-14.875,12-17,0,0,5.834.167,6,3v35s-.963,10.958-12,14a2.8,2.8,0,0,1-.581.053C706.136,510.053,703.16,509.363,703,503Zm51-109c26.537-7.376,32,18,32,18l-10,5c-4.462-14.541-16-13-16-13-33.8,6.791-44,48-44,48l-9,4C711.87,408.459,754,394,754,394Z" transform="translate(362 -18.749)" fill="#005dff"/>
    </g>
    <g id="Group_6" data-name="Group 6" transform="translate(-12.667 1.608)">
      <path id="Rectangle_3_copy_3" data-name="Rectangle 3 copy 3" d="M853.285,346.051l102.667-57.659c12.538-7.042,23.353-.211,24.359,15.332,1.019,15.75-8.372,34.828-21.187,42.542l-105.14,63.289c-14.972,9.012-27.318,1.593-27.318-16.484C826.667,375.255,838.694,354.245,853.285,346.051Z" transform="translate(362 -18.749)" fill="#fff" stroke="#000" stroke-width="1"/>
      <path id="Rectangle_3_copy_2" data-name="Rectangle 3 copy 2" d="M868.285,357.051l105.667-59.659C986.491,290.35,999.494,299.707,1004,311c5.849,14.659-.81,37.286-15,48L878,427c-18.847,7.012-36.333-4.851-36.333-22.929C841.667,386.255,853.694,365.245,868.285,357.051Z" transform="translate(362 -18.749)" fill="#fff" stroke="#000" stroke-width="1"/>
      <path id="Rectangle_3" data-name="Rectangle 3" d="M879.285,362.051l102.668-57.659c12.538-7.041,23.353-.211,24.359,15.332,1.019,15.75-8.372,34.828-21.187,42.542l-105.14,63.289c-14.972,9.012-27.318,1.593-27.318-16.484C852.667,391.255,864.694,370.245,879.285,362.051Z" transform="translate(362 -18.749)" fill="#fff" stroke="#000" stroke-width="1"/>
      <path id="Ellipse_2" data-name="Ellipse 2" d="M889.335,370.087c5.389-.933,9.469,4.1,9.076,11.953-.439,8.789-6.2,17.479-12.811,18.419s-10.419-6.206-8.695-14.995C878.445,377.587,883.946,371.02,889.335,370.087Z" transform="translate(362 -18.749)" fill="none" stroke="#232323" stroke-width="5"/>
      <path id="Shape_13" data-name="Shape 13" d="M905,393l-3,6-7-4,3-6Z" transform="translate(362 -18.749)" fill="#232323"/>
      <path id="Rectangle_3_copy" data-name="Rectangle 3 copy" d="M917.818,371.3c-.138-2.2.968-4.744,2.47-5.67l37.393-23.068c1.5-.927,2.831.11,2.968,2.315s-.968,4.743-2.471,5.67l-37.394,23.067a2.051,2.051,0,0,1-1.072.34C918.7,373.951,917.921,372.954,917.818,371.3Zm47.591-29.36c-.137-2.2.969-4.743,2.471-5.669l10.2-6.292c1.5-.926,2.831.11,2.968,2.315s-.969,4.744-2.471,5.67l-10.2,6.291a2.053,2.053,0,0,1-1.072.339C966.289,344.592,965.513,343.6,965.409,341.938Z" transform="translate(362 -18.749)"/>
    </g>
    <g id="Group_3" data-name="Group 3">
      <path id="Shape_26" data-name="Shape 26" d="M899,799v17s-.8,1.784,3,4l76,44s7.865,5.451,16,1l57-34s3.2-1.716,3-5V811.324s-.135.128-5,3.676l-51,30a19.436,19.436,0,0,1-18,2l-77-44S898.7,799.172,899,799Z" transform="translate(372.962 -2.525)" fill="none" stroke="#232323" stroke-width="2"/>
      <path id="Shape_25" data-name="Shape 25" d="M960,761l-58,33s-9.3,4.118,0,10l77,42a17.369,17.369,0,0,0,18,0l55-32s6.365-4.549,1-9l-80-44S966.333,756.667,960,761Z" transform="translate(372.962 -2.525)" fill="none" stroke="#000" stroke-width="1"/>
      <path id="Shape_24" data-name="Shape 24" d="M975,818l6-4,23,4-7-13,6-3,10,19-5,3Zm-29-9,52-14,4,3-51,14Zm-6-25,5-3,32,6-5,4-22-4,7,13-6,4Z" transform="translate(372.962 -2.525)" fill="#005dff"/>
    </g>
    <path id="Shape_29" data-name="Shape 29" d="M1084,705l13,7.749V727l-13-7Z" transform="translate(362 -18.749)" fill="none" stroke="#232323" stroke-linecap="round" stroke-linejoin="round" stroke-width="1"/>
    <path id="Shape_30" data-name="Shape 30" d="M1110.431,704.827,1110,719l-13,8,.117-14.185Z" transform="translate(362 -18.749)" fill="none" stroke="#232323" stroke-linecap="round" stroke-linejoin="round" stroke-width="1"/>
    <path id="Shape_31" data-name="Shape 31" d="M1084,705l13.125-7.2,13.294,6.991-13.294,8.053Z" transform="translate(362 -18.749)" fill="none" stroke="#232323" stroke-linecap="round" stroke-linejoin="round" stroke-width="1"/>
  </g>
</svg>
