<svg xmlns="http://www.w3.org/2000/svg" xmlns:xlink="http://www.w3.org/1999/xlink" width="1920" height="987" viewBox="0 0 1920 987">
  <defs>
    <clipPath id="clip-path">
      <rect id="Rectangle_191" data-name="Rectangle 191" width="1920" height="810" transform="translate(0 4306)" fill="#33475b"/>
    </clipPath>
  </defs>
  <g id="Group_449" data-name="Group 449" transform="translate(0 -4129)">
    <rect id="Rectangle_189" data-name="Rectangle 189" width="1920" height="987" transform="translate(0 4129)" fill="#34394b"/>
    <g id="Group_447" data-name="Group 447" opacity="0.2">
      <g id="Mask_Group_8" data-name="Mask Group 8" clip-path="url(#clip-path)">
        <g id="Group_448" data-name="Group 448">
          <path id="Path_5250" data-name="Path 5250" d="M1529.813-21.588c7.5,29.891,38.049,94.206,68.137,105.415,26.737,9.961,62.5,1.867,73.37-26.907,4.656-12.323,3.492-27.645-6.254-37.237-11.568-11.386-29.933-9.521-41.947-.017-25.178,19.918-19.253,70.487,10.852,82.543,14.467,5.794,30.956,2.737,45.558-.941A174.137,174.137,0,0,0,1722.6,84.332c13.209-7.47,25.527-17.178,35.091-29.013,9.418-11.655,17.5-26.945,7.805-41.033C1757.832,3.149,1742.885-2.3,1729.784.913,1715.55,4.4,1705.73,17.98,1702.87,31.791c-6.362,30.718,13.867,61.208,42.584,71.592,16.739,6.053,35,4.537,52.455,4.781,15.735.22,30.857,3.176,45.034,10.2,29.019,14.384,49.978,39.6,65.7,67.344,4.152,7.325,7.961,14.833,11.574,22.437,2.317,4.878,9.3,6.148,13.682,3.587,4.991-2.919,5.913-8.785,3.587-13.681C1914.326,149.295,1876.675,99.337,1819.835,90c-14.523-2.386-29.052-1.528-43.69-1.889-12.8-.316-25.7-2.131-36.241-10-14.818-11.059-26.127-36.658-12.516-52.888,2.792-3.329,6.389-5.062,9.034-5.217a14.522,14.522,0,0,1,10.224,3.013,17.706,17.706,0,0,1,2.483,2.7,5.063,5.063,0,0,1,.9,3.224c-.357,5.006-4.374,9.73-7.462,13.424-15.686,18.762-37.608,30.652-60.806,37.539-11.013,3.27-23.6,6.947-35.21,5.2-11.53-1.737-16.81-11.217-18.374-21.994-1.441-9.933-.322-23.845,9.493-29.326,8.009-4.472,14.816-1.149,16.159,5.922.535,2.819-.112,7.8-1.51,11.229a23.981,23.981,0,0,1-10.177,11.549c-9.933,6.086-22.3,6.782-33.384,3.805-26.344-7.076-53.484-68.565-59.662-93.2-3.13-12.477-22.423-7.191-19.286,5.317" transform="translate(5.424 4340.432)" fill="#fff"/>
          <path id="Path_5251" data-name="Path 5251" d="M8.659,691.869c22.166-.133,45.364-.271,67.489,1.294,18.608,1.316,38.106,3.216,55.536,10.355,14.328,5.87,26.068,16.421,30.313,31.624a52.161,52.161,0,0,1-6.958,42.811c-8.6,12.788-23.328,20.456-38.19,23.185-6.8,1.249-35.951,3.493-29.959-10.218C90,783.8,99.92,780.741,106.617,778.406c9.475-3.3,19.332-5.815,29.4-6.19,19.235-.716,36.983,7.952,51.258,20.457,6.921,6.063,13.18,13.255,16.535,21.941,4.125,10.68,3.909,22.512,3.6,33.774a262.066,262.066,0,0,1-11.943,70.8c-3.829,12.319,15.471,17.588,19.286,5.316a282.924,282.924,0,0,0,12.632-75.171c.381-12.464.337-25.546-3.441-37.554a72.348,72.348,0,0,0-17.371-28.354c-16.226-16.784-38.982-29.484-62.46-31.1-12.307-.849-24.955,1.31-36.724,4.819-11.117,3.316-23.122,7.51-31.663,15.68-8.033,7.685-12.173,20.064-8.127,30.747,4.177,11.029,15.12,15.768,26.063,17.389,20.3,3.009,41.856-1.289,58.855-13.062a71.581,71.581,0,0,0,30.871-51.445C185.7,736.4,179,715.206,164.349,701.093,146.437,683.841,121.4,678.3,97.536,675.26c-29.139-3.713-58.558-3.567-87.877-3.391-12.865.077-12.893,20.077,0,20" transform="translate(-10 4207.517)" fill="#fff"/>
        </g>
      </g>
    </g>
  </g>
</svg>
