<svg xmlns="http://www.w3.org/2000/svg" xmlns:xlink="http://www.w3.org/1999/xlink" width="159.999" height="50.946" viewBox="0 0 159.999 50.946">
  <defs>
    <linearGradient id="linear-gradient" x1="0.309" y1="0.04" x2="0.69" y2="0.962" gradientUnits="objectBoundingBox">
      <stop offset="0" stop-color="#f88136"/>
      <stop offset="0.171" stop-color="#3def65"/>
      <stop offset="0.485" stop-color="#df3def"/>
      <stop offset="0.904" stop-color="#3dc9ef"/>
      <stop offset="1" stop-color="#f88136"/>
    </linearGradient>
  </defs>
  <g id="Group_337" data-name="Group 337" transform="translate(-172.907 -715)">
    <g id="Group_268" data-name="Group 268" transform="translate(172.907 715)">
      <g id="Group_269" data-name="Group 269" transform="translate(80.296)">
        <g id="Group_266" data-name="Group 266">
          <path id="Polygon_14" data-name="Polygon 14" d="M24.3,0a6.965,6.965,0,0,1,4.924,2.039l7.182,7.182a6.965,6.965,0,0,1,2.04,4.924V24.3a6.965,6.965,0,0,1-2.04,4.925l-7.182,7.181a6.965,6.965,0,0,1-4.924,2.04H14.146a6.965,6.965,0,0,1-4.924-2.039L2.04,29.226A6.965,6.965,0,0,1,0,24.3V14.146A6.965,6.965,0,0,1,2.039,9.222L9.222,2.04A6.965,6.965,0,0,1,14.146,0Z" fill="#4b4b4c"/>
          <g id="Group_266-2" data-name="Group 266" transform="translate(5.591 2.935)">
            <path id="Path_50" data-name="Path 50" d="M172.517-147.62l-11.8-24.542a2.048,2.048,0,0,0-1.8-1.3,3.109,3.109,0,0,0-1.087.376l1.087,2,11.157,23.46Z" transform="translate(-145.259 173.458)" fill="#f88136"/>
            <path id="Path_51" data-name="Path 51" d="M162.839-147.62l11.8-24.542a2.048,2.048,0,0,1,1.8-1.3,3.109,3.109,0,0,1,1.087.376l-1.087,2-11.157,23.46Z" transform="translate(-162.839 173.458)" fill="#f88136"/>
          </g>
          <path id="Polygon_14-2" data-name="Polygon 14" d="M8.384-5v0H9.2v.409H8.384q-.122,0-.244,0l-.016-.409Q8.253-5,8.384-5Zm1.637,0h.818v.409h-.818Zm1.637,0h.818v.409h-.818Zm1.637,0h.818v.409h-.818Zm1.637,0h.818v.409h-.818Zm1.637,0h.818v.409h-.818Zm1.648.01a6.714,6.714,0,0,1,.838.1l-.074.4a6.3,6.3,0,0,0-.786-.094ZM7.285-4.909l.067.4a6.307,6.307,0,0,0-.772.179l-.117-.392A6.717,6.717,0,0,1,7.285-4.909Zm12.587.223a6.72,6.72,0,0,1,.786.306l-.172.371a6.309,6.309,0,0,0-.738-.287Zm-14.2.26.166.374a6.308,6.308,0,0,0-.7.366l-.212-.35A6.718,6.718,0,0,1,5.672-4.426ZM21.4-3.978a6.716,6.716,0,0,1,.685.492l-.259.317a6.3,6.3,0,0,0-.643-.462ZM4.23-3.555l.254.321a6.31,6.31,0,0,0-.544.484L3.894-2.7,3.6-2.993l.047-.047A6.721,6.721,0,0,1,4.23-3.555Zm18.47.638.579.579-.289.289-.579-.579Zm-19.674.5.289.289-.579.579-.289-.289Zm20.832.655.579.579-.289.289-.579-.579Zm-21.989.5.289.289-.579.579L1.29-.678ZM25.015-.6l.579.579L25.3.266l-.579-.579ZM.711-.1,1,.19.422.769.132.479ZM26.172.555l.579.579-.289.289L25.883.845Zm-26.618.5.289.289-.579.579-.289-.289Zm27.776.655.579.579-.289.289L27.04,2Zm-28.933.5.289.289-.579.579-.289-.289Zm30.09.655.579.579-.289.289L28.2,3.159Zm-31.248.5.289.289-.279.279q-.146.146-.281.3l-.308-.27q.144-.164.3-.319Zm32.4.682a6.716,6.716,0,0,1,.5.676l-.343.223a6.307,6.307,0,0,0-.473-.635Zm-33.494.584.339.229a6.307,6.307,0,0,0-.4.683l-.365-.184A6.718,6.718,0,0,1-3.854,4.639Zm34.413.827a6.721,6.721,0,0,1,.319.781l-.388.131a6.311,6.311,0,0,0-.3-.733Zm-35.172.676.386.137a6.307,6.307,0,0,0-.218.761l-.4-.088A6.719,6.719,0,0,1-4.613,6.142Zm35.71.919a6.717,6.717,0,0,1,.114.836l-.408.03a6.306,6.306,0,0,0-.107-.785Zm-36.07.726.408.037q-.025.278-.025.56v.239H-5V8.384Q-5,8.084-4.973,7.787Zm35.793.943h.409v.818h-.409ZM-5,9.441h.409v.818H-5Zm35.819.926h.409v.818h-.409ZM-5,11.078h.409V11.9H-5ZM30.819,12h.409v.818h-.409ZM-5,12.714h.409v.818H-5Zm35.819.926h.409v.818h-.409ZM-5,14.351h.409v.818H-5Zm35.819.926h.409V16.1h-.409ZM-5,15.988h.409v.818H-5Zm35.819.926h.409v.818h-.409ZM-5,17.625h.409v.22c0,.192.009.387.027.579l-.407.038c-.019-.2-.028-.411-.028-.616Zm35.782.9.407.044a6.716,6.716,0,0,1-.144.831l-.4-.1A6.306,6.306,0,0,0,30.782,18.527Zm-35.224.679a6.308,6.308,0,0,0,.22.761l-.385.138a6.719,6.719,0,0,1-.234-.81Zm34.856.858.383.145a6.721,6.721,0,0,1-.347.769l-.362-.191A6.309,6.309,0,0,0,30.414,20.064Zm-34.322.63a6.307,6.307,0,0,0,.4.682l-.338.23a6.716,6.716,0,0,1-.429-.726Zm33.582.768.335.235a6.715,6.715,0,0,1-.528.658l-.3-.276A6.305,6.305,0,0,0,29.675,21.461ZM-3.019,22q.13.147.269.286l.292.292-.289.289-.292-.292q-.148-.148-.286-.3Zm31.631.654.289.289-.579.579-.289-.289Zm-30.491.5.579.579-.289.289-.579-.579Zm29.334.655.289.289-.579.579-.289-.289Zm-28.177.5.579.579-.289.289-.579-.579ZM26.3,24.97l.289.289-.579.579-.289-.289Zm-25.862.5.579.579-.289.289-.579-.579Zm24.7.655.289.289L24.85,27l-.289-.289Zm-23.547.5.579.579-.289.289L1.3,26.92Zm22.39.654.289.289-.579.579-.289-.289Zm-21.232.5.579.579-.289.289-.579-.579Zm20.075.654.289.289-.58.58-.287-.292.041-.04Zm-18.918.5.034.034a6.308,6.308,0,0,0,.557.495l-.253.322a6.72,6.72,0,0,1-.594-.527l-.034-.034Zm17.741.592.248.326a6.717,6.717,0,0,1-.7.467l-.2-.354A6.306,6.306,0,0,0,21.648,29.537Zm-16.5.386a6.31,6.31,0,0,0,.7.364l-.165.375a6.72,6.72,0,0,1-.749-.388Zm15.129.4.159.377a6.718,6.718,0,0,1-.8.277l-.11-.394A6.311,6.311,0,0,0,20.279,30.328ZM6.6,30.56a6.305,6.305,0,0,0,.772.177l-.066.4a6.716,6.716,0,0,1-.822-.188Zm12.158.193.059.4a6.719,6.719,0,0,1-.841.07l-.008-.409A6.307,6.307,0,0,0,18.756,30.753Zm-10.6.062q.113,0,.226,0h.585v.409H8.384q-.121,0-.241,0Zm1.629,0h.818v.409H9.787Zm1.637,0h.818v.409h-.818Zm1.637,0h.818v.409h-.818Zm1.637,0h.818v.409H14.7Zm1.637,0h.818v.409h-.818Z" transform="translate(6.118 6.118)" fill="url(#linear-gradient)"/>
          <g id="Group_77" data-name="Group 77" transform="translate(12.859 16.474)">
            <path id="Path_33" data-name="Path 33" d="M.49,0a.51.51,0,0,1,.49.528V5.073A.51.51,0,0,1,.49,5.6.51.51,0,0,1,0,5.073V.528A.51.51,0,0,1,.49,0Z" transform="translate(5.821 0)" fill="#3def65"/>
            <circle id="Ellipse_25" data-name="Ellipse 25" cx="1.708" cy="1.708" r="1.708" transform="translate(4.672 4.922)" fill="#3def65"/>
            <path id="Path_34" data-name="Path 34" d="M.5,0A.555.555,0,0,1,1.03.521l.157,4.329a.467.467,0,0,1-.5.485.555.555,0,0,1-.533-.521L0,.485A.467.467,0,0,1,.5,0Z" transform="translate(11.182 2.286) rotate(54)" fill="#3def65"/>
            <path id="Path_35" data-name="Path 35" d="M.5,5.335a.555.555,0,0,0,.533-.521L1.187.485A.467.467,0,0,0,.69,0,.555.555,0,0,0,.157.521L0,4.851A.467.467,0,0,0,.5,5.335Z" transform="matrix(-0.588, 0.809, -0.809, -0.588, 5.744, 5.423)" fill="#3def65"/>
            <path id="Path_36" data-name="Path 36" d="M.518,5.212a.529.529,0,0,0,.534-.5L1.12.483A.491.491,0,0,0,.6,0,.529.529,0,0,0,.067.5L0,4.729A.491.491,0,0,0,.518,5.212Z" transform="translate(7.333 7.366) rotate(-78)" fill="#3def65"/>
            <path id="Path_38" data-name="Path 38" d="M.482,5.518A.548.548,0,0,0,1,4.982L1.129.5A.473.473,0,0,0,.647,0,.548.548,0,0,0,.134.536L0,5.013A.473.473,0,0,0,.482,5.518Z" transform="matrix(0.891, -0.454, 0.454, 0.891, 6.278, 7.733)" fill="#3def65"/>
            <path id="Path_37" data-name="Path 37" d="M.518,0a.529.529,0,0,1,.534.5L1.12,4.729A.491.491,0,0,1,.6,5.212a.529.529,0,0,1-.534-.5L0,.483A.491.491,0,0,1,.518,0Z" transform="matrix(-0.208, -0.978, 0.978, -0.208, 0.233, 8.449)" fill="#3def65"/>
            <path id="Path_39" data-name="Path 39" d="M.482,0A.548.548,0,0,1,1,.536l.134,4.477a.473.473,0,0,1-.482.5.548.548,0,0,1-.513-.535L0,.5A.473.473,0,0,1,.482,0Z" transform="matrix(-0.891, -0.454, 0.454, -0.891, 3.969, 12.664)" fill="#3def65"/>
            <path id="Path_40" data-name="Path 40" d="M4.584,1.085A3.519,3.519,0,1,0,8.088,4.6a3.515,3.515,0,0,0-3.5-3.519M4.584,0A4.6,4.6,0,1,1,0,4.6,4.594,4.594,0,0,1,4.584,0Z" transform="translate(1.794 2.006)" fill="#3def65"/>
          </g>
          <path id="Path_43" data-name="Path 43" d="M51.772-162.12v-5H49.38v5Z" transform="translate(-31.349 197.44)" fill="#f88136"/>
        </g>
      </g>
      <g id="Group_255" data-name="Group 255" transform="translate(0 0.065)">
        <g id="Group_279" data-name="Group 279" transform="translate(121.415 17.217)">
          <path id="ps" d="M-2.057-81.354q1.516-.46,2.585-.744t1.794-.447q.724-.162,1.137-.223a4.653,4.653,0,0,1,.616-.061,1.958,1.958,0,0,1,.636.1,1.244,1.244,0,0,1,.521.345,1.645,1.645,0,0,1,.345.656A3.663,3.663,0,0,1,5.7-80.7q0,.2-.02.8T5.6-78.261q-.054,1.049-.142,2.572t-.223,3.58L5.4-72.1a32.133,32.133,0,0,1,2.281-4.65,21.549,21.549,0,0,1,2.491-3.4A10.52,10.52,0,0,1,12.7-82.241a4.89,4.89,0,0,1,2.4-.711,3.645,3.645,0,0,1,1.624.345,4.033,4.033,0,0,1,1.225.92,5.325,5.325,0,0,1,.873,1.327,9.3,9.3,0,0,1,.569,1.57,11.541,11.541,0,0,1,.311,1.658,14.042,14.042,0,0,1,.095,1.57,16.285,16.285,0,0,1-.406,3.722,15.027,15.027,0,0,1-1.11,3.174,12.4,12.4,0,0,1-1.665,2.579,10.854,10.854,0,0,1-2.078,1.915,9.253,9.253,0,0,1-2.342,1.191,7.651,7.651,0,0,1-2.457.413,7.138,7.138,0,0,1-2.558-.474,6.688,6.688,0,0,1-2.342-1.57q-.149,3.4-.3,7.018t-.162,7.56l-2.843.325-.284-.014q.2-2.531.379-5.313t.325-5.584q.149-2.8.271-5.516t.2-5.1q.081-2.382.129-4.325T2.6-78.769a6.559,6.559,0,0,0-.054-.9,1.686,1.686,0,0,0-.21-.643.956.956,0,0,0-.453-.386,2.007,2.007,0,0,0-.785-.129,8.373,8.373,0,0,0-1.218.108q-.717.108-1.733.365ZM4.955-66.085a8.5,8.5,0,0,0,2.294,1.435,6.1,6.1,0,0,0,2.294.46,6.135,6.135,0,0,0,2.8-.643,6.13,6.13,0,0,0,2.206-1.915A9.717,9.717,0,0,0,15.993-69.9a16.318,16.318,0,0,0,.521-4.352,13.128,13.128,0,0,0-.142-1.9,8.22,8.22,0,0,0-.447-1.766,3.78,3.78,0,0,0-.8-1.3,1.61,1.61,0,0,0-1.2-.508,3.492,3.492,0,0,0-1.638.426,7.121,7.121,0,0,0-1.577,1.151,12.028,12.028,0,0,0-1.469,1.7,23.078,23.078,0,0,0-1.327,2.064,24.947,24.947,0,0,0-1.137,2.247q-.514,1.157-.9,2.254T5.26-67.8A12,12,0,0,0,4.955-66.085Zm19.911-2.1a4.083,4.083,0,0,0,.548,1.773,4.086,4.086,0,0,0,1.117,1.218,4.752,4.752,0,0,0,1.469.7,5.816,5.816,0,0,0,1.6.23,5.059,5.059,0,0,0,1.435-.2,4.01,4.01,0,0,0,1.218-.582,2.936,2.936,0,0,0,.846-.934,2.459,2.459,0,0,0,.318-1.245,2.325,2.325,0,0,0-.338-1.259,3.876,3.876,0,0,0-.907-.988,7.861,7.861,0,0,0-1.32-.826q-.751-.379-1.563-.772-.717-.338-1.442-.684t-1.4-.751a11.242,11.242,0,0,1-1.266-.88,6.106,6.106,0,0,1-1.029-1.049,4.639,4.639,0,0,1-.69-1.286,4.719,4.719,0,0,1-.25-1.577,4.453,4.453,0,0,1,.325-1.719,4.953,4.953,0,0,1,.887-1.414,6.276,6.276,0,0,1,1.3-1.1,8.453,8.453,0,0,1,1.577-.792,9.487,9.487,0,0,1,1.726-.474,9.974,9.974,0,0,1,1.726-.156,8.6,8.6,0,0,1,2.051.237,5.735,5.735,0,0,1,1.692.69,3.694,3.694,0,0,1,1.151,1.1,2.606,2.606,0,0,1,.426,1.462,2.393,2.393,0,0,1-.108.677,1.974,1.974,0,0,1-.365.684,2.082,2.082,0,0,1-.677.535,2.34,2.34,0,0,1-1.029.23A4.379,4.379,0,0,1,32.7-77.51l-.041-.135a4.394,4.394,0,0,0,.271-.8,3.134,3.134,0,0,0,.081-.677A1.829,1.829,0,0,0,32.7-80.17a2.462,2.462,0,0,0-.765-.7,3.437,3.437,0,0,0-1.022-.393,5.2,5.2,0,0,0-1.1-.122,5.336,5.336,0,0,0-1.719.257,4.056,4.056,0,0,0-1.279.684,3.045,3.045,0,0,0-.8.968,2.434,2.434,0,0,0-.277,1.123,2.349,2.349,0,0,0,.393,1.333,4.525,4.525,0,0,0,1.042,1.083,9.983,9.983,0,0,0,1.5.927q.846.433,1.766.866,1.029.487,2.044,1.008a9.908,9.908,0,0,1,1.814,1.184,5.6,5.6,0,0,1,1.293,1.523,3.991,3.991,0,0,1,.494,2.024,4.922,4.922,0,0,1-.616,2.477A5.734,5.734,0,0,1,33.813-64.1a7.587,7.587,0,0,1-2.362,1.13,9.909,9.909,0,0,1-2.768.386,10.572,10.572,0,0,1-1.482-.108,9.945,9.945,0,0,1-1.482-.325,8.791,8.791,0,0,1-1.36-.535,5.362,5.362,0,0,1-1.123-.731,3.3,3.3,0,0,1-.758-.92,2.29,2.29,0,0,1-.277-1.117,1.683,1.683,0,0,1,.223-.893,1.812,1.812,0,0,1,.589-.6,2.833,2.833,0,0,1,.819-.345,4.252,4.252,0,0,1,.927-.129Z" transform="translate(2.3 83.161)" fill="#fff"/>
          <path id="ps_-_Outline" data-name="ps - Outline" d="M13.6-84.451a3.869,3.869,0,0,1,1.717.367,4.261,4.261,0,0,1,1.288.968,5.558,5.558,0,0,1,.908,1.378,9.548,9.548,0,0,1,.581,1.605,11.806,11.806,0,0,1,.317,1.688,14.317,14.317,0,0,1,.1,1.594,16.571,16.571,0,0,1-.412,3.77,15.307,15.307,0,0,1-1.126,3.218,12.666,12.666,0,0,1-1.693,2.622,11.114,11.114,0,0,1-2.118,1.952,9.505,9.505,0,0,1-2.395,1.218,7.9,7.9,0,0,1-2.524.424A7.38,7.38,0,0,1,5.6-64.134a6.693,6.693,0,0,1-2.078-1.3c-.092,2.116-.186,4.319-.278,6.559-.1,2.4-.153,4.941-.162,7.552v.186L.04-50.787l-.518-.025.017-.216c.135-1.678.262-3.465.379-5.309s.226-3.723.325-5.581.19-3.714.271-5.514.149-3.514.2-5.094.1-3.034.129-4.323.047-2.367.047-3.21A6.382,6.382,0,0,0,.84-80.93a1.489,1.489,0,0,0-.182-.564A.745.745,0,0,0,.3-81.8a1.817,1.817,0,0,0-.7-.111,8.209,8.209,0,0,0-1.187.106c-.469.071-1.045.192-1.712.361l-.213.054-.285-1.4.182-.055c1.008-.306,1.88-.557,2.592-.746s1.318-.34,1.8-.449.873-.185,1.152-.226a4.79,4.79,0,0,1,.646-.063,2.176,2.176,0,0,1,.7.113,1.457,1.457,0,0,1,.608.4,1.858,1.858,0,0,1,.392.739,3.885,3.885,0,0,1,.13,1.081c0,.139-.007.4-.02.806s-.039.951-.075,1.648-.084,1.562-.142,2.573c-.047.812-.1,1.75-.172,2.8a31.35,31.35,0,0,1,2-3.972,21.859,21.859,0,0,1,2.515-3.437A10.776,10.776,0,0,1,11.1-83.713a6.19,6.19,0,0,1,1.272-.551A4.324,4.324,0,0,1,13.6-84.451ZM8.235-64.066a7.477,7.477,0,0,0,2.39-.4,9.086,9.086,0,0,0,2.289-1.164,10.7,10.7,0,0,0,2.038-1.879,12.247,12.247,0,0,0,1.637-2.535,14.887,14.887,0,0,0,1.094-3.13,16.152,16.152,0,0,0,.4-3.675,13.9,13.9,0,0,0-.093-1.547,11.385,11.385,0,0,0-.306-1.628,9.127,9.127,0,0,0-.556-1.535,5.14,5.14,0,0,0-.839-1.275,3.843,3.843,0,0,0-1.162-.873,3.455,3.455,0,0,0-1.532-.324,4.708,4.708,0,0,0-2.293.684A10.363,10.363,0,0,0,8.83-81.3a21.443,21.443,0,0,0-2.466,3.371A32.075,32.075,0,0,0,4.1-73.308l-.058.144-.522-.043.014-.206c.09-1.364.165-2.568.223-3.579s.106-1.875.142-2.571.061-1.247.074-1.641.02-.659.02-.791a3.476,3.476,0,0,0-.113-.963,1.448,1.448,0,0,0-.3-.574,1.028,1.028,0,0,0-.434-.288,1.759,1.759,0,0,0-.569-.09,4.5,4.5,0,0,0-.585.059c-.269.04-.646.114-1.122.221s-1.079.257-1.786.445c-.664.177-1.469.408-2.4.687l.122.6c.591-.145,1.108-.251,1.539-.316A8.617,8.617,0,0,1-.4-82.326a2.188,2.188,0,0,1,.868.146,1.166,1.166,0,0,1,.55.47,1.9,1.9,0,0,1,.238.722,6.8,6.8,0,0,1,.056.929c0,.846-.016,1.929-.047,3.22s-.075,2.745-.129,4.327-.122,3.3-.2,5.1S.76-63.757.662-61.9.453-58.157.337-56.31C.225-54.542.1-52.828-.025-51.21l.051,0,2.641-.3c.011-2.551.065-5.033.162-7.381.1-2.4.2-4.764.3-7.019l.021-.476.337.337a6.512,6.512,0,0,0,2.268,1.522A6.962,6.962,0,0,0,8.235-64.066ZM29.257-84.451a8.851,8.851,0,0,1,2.1.243,5.97,5.97,0,0,1,1.753.716,3.919,3.919,0,0,1,1.215,1.166,2.824,2.824,0,0,1,.461,1.577,2.613,2.613,0,0,1-.117.736,2.191,2.191,0,0,1-.4.756,2.3,2.3,0,0,1-.744.589,2.556,2.556,0,0,1-1.12.253h0a4.608,4.608,0,0,1-1.248-.184l-.111-.031-.1-.319.031-.071a4.206,4.206,0,0,0,.258-.76,2.944,2.944,0,0,0,.076-.629,1.632,1.632,0,0,0-.279-.929,2.265,2.265,0,0,0-.7-.638,3.244,3.244,0,0,0-.96-.368,5.009,5.009,0,0,0-1.059-.117,5.153,5.153,0,0,0-1.652.246,3.868,3.868,0,0,0-1.214.647,2.851,2.851,0,0,0-.745.9,2.237,2.237,0,0,0-.254,1.028,2.153,2.153,0,0,0,.357,1.217A4.338,4.338,0,0,0,25.8-77.39a9.821,9.821,0,0,0,1.464.907c.559.286,1.152.577,1.76.863.685.324,1.375.665,2.05,1.012a10.163,10.163,0,0,1,1.852,1.21,5.833,5.833,0,0,1,1.341,1.58,4.215,4.215,0,0,1,.522,2.128,5.675,5.675,0,0,1-.16,1.367,4.793,4.793,0,0,1-.483,1.214,5.968,5.968,0,0,1-1.7,1.894,7.831,7.831,0,0,1-2.427,1.162,10.165,10.165,0,0,1-2.826.394,10.831,10.831,0,0,1-1.512-.11,10.2,10.2,0,0,1-1.513-.332,9.042,9.042,0,0,1-1.393-.547,5.6,5.6,0,0,1-1.167-.76,3.526,3.526,0,0,1-.805-.979,2.507,2.507,0,0,1-.3-1.217,1.9,1.9,0,0,1,.254-1,2.028,2.028,0,0,1,.656-.664,3.055,3.055,0,0,1,.879-.371,4.482,4.482,0,0,1,.973-.135l.082,0,.233.2.008.083A3.9,3.9,0,0,0,24.1-67.81a3.9,3.9,0,0,0,1.06,1.157,4.565,4.565,0,0,0,1.4.673,5.633,5.633,0,0,0,1.546.222,4.873,4.873,0,0,0,1.376-.195,3.819,3.819,0,0,0,1.155-.551,2.741,2.741,0,0,0,.786-.868,2.263,2.263,0,0,0,.29-1.141,2.13,2.13,0,0,0-.307-1.148,3.685,3.685,0,0,0-.859-.934,7.688,7.688,0,0,0-1.285-.8c-.5-.251-1.022-.51-1.559-.77-.477-.225-.962-.455-1.441-.683s-.964-.488-1.419-.761a11.5,11.5,0,0,1-1.289-.9,6.344,6.344,0,0,1-1.064-1.085,4.87,4.87,0,0,1-.722-1.344,4.949,4.949,0,0,1-.262-1.647,4.681,4.681,0,0,1,.341-1.8,5.185,5.185,0,0,1,.924-1.474A6.515,6.515,0,0,1,24.115-83a8.7,8.7,0,0,1,1.616-.811,9.743,9.743,0,0,1,1.764-.484A10.231,10.231,0,0,1,29.257-84.451Zm3.138,5.617a2.144,2.144,0,0,0,.935-.207,1.884,1.884,0,0,0,.61-.48,1.774,1.774,0,0,0,.327-.611,2.2,2.2,0,0,0,.1-.617,2.411,2.411,0,0,0-.392-1.347,3.5,3.5,0,0,0-1.087-1.041,5.553,5.553,0,0,0-1.631-.664,8.432,8.432,0,0,0-2-.231,9.81,9.81,0,0,0-1.69.153,9.322,9.322,0,0,0-1.688.463,8.283,8.283,0,0,0-1.538.772,6.1,6.1,0,0,0-1.256,1.066,4.766,4.766,0,0,0-.849,1.355,4.265,4.265,0,0,0-.309,1.639,4.533,4.533,0,0,0,.238,1.507,4.451,4.451,0,0,0,.659,1.228,5.925,5.925,0,0,0,.994,1.013,11.084,11.084,0,0,0,1.242.863c.443.266.909.516,1.383.742s.964.458,1.441.683h0c.54.261,1.067.521,1.567.773a8.107,8.107,0,0,1,1.355.848,4.1,4.1,0,0,1,.955,1.042,2.542,2.542,0,0,1,.37,1.37,2.677,2.677,0,0,1-.346,1.35,3.158,3.158,0,0,1-.906,1,4.237,4.237,0,0,1-1.281.613,5.292,5.292,0,0,1-1.494.212,6.052,6.052,0,0,1-1.662-.238,4.983,4.983,0,0,1-1.533-.735,4.313,4.313,0,0,1-1.174-1.28,4.256,4.256,0,0,1-.568-1.764,4.053,4.053,0,0,0-.785.118,2.637,2.637,0,0,0-.759.319,1.612,1.612,0,0,0-.522.527,1.486,1.486,0,0,0-.193.784,2.093,2.093,0,0,0,.252,1.016,3.109,3.109,0,0,0,.711.862,5.178,5.178,0,0,0,1.08.7,8.621,8.621,0,0,0,1.328.522,9.781,9.781,0,0,0,1.451.318,10.412,10.412,0,0,0,1.453.106,9.746,9.746,0,0,0,2.71-.378,7.414,7.414,0,0,0,2.3-1.1,5.552,5.552,0,0,0,1.585-1.761,4.737,4.737,0,0,0,.588-2.373A3.8,3.8,0,0,0,33.9-71.61a5.415,5.415,0,0,0-1.245-1.466,9.745,9.745,0,0,0-1.776-1.159c-.672-.345-1.357-.683-2.038-1.005-.612-.288-1.209-.581-1.772-.869a10.24,10.24,0,0,1-1.527-.947,4.754,4.754,0,0,1-1.09-1.133,2.566,2.566,0,0,1-.428-1.45,2.652,2.652,0,0,1,.3-1.219,3.267,3.267,0,0,1,.852-1.034,4.283,4.283,0,0,1,1.345-.72,5.569,5.569,0,0,1,1.786-.268,5.429,5.429,0,0,1,1.148.127,3.662,3.662,0,0,1,1.084.417,2.682,2.682,0,0,1,.829.756,2.042,2.042,0,0,1,.357,1.166v0a3.358,3.358,0,0,1-.086.722,4.436,4.436,0,0,1-.235.725A4.09,4.09,0,0,0,32.395-78.834ZM12.432-81.216a1.819,1.819,0,0,1,1.348.571,4,4,0,0,1,.844,1.37,8.468,8.468,0,0,1,.458,1.811,13.4,13.4,0,0,1,.144,1.925,19.9,19.9,0,0,1-.132,2.351,13.878,13.878,0,0,1-.4,2.057,11.731,11.731,0,0,1-.634,1.756,8.547,8.547,0,0,1-.847,1.459,6.909,6.909,0,0,1-1.047,1.15,5.989,5.989,0,0,1-1.234.829,6.166,6.166,0,0,1-1.386.5,6.719,6.719,0,0,1-1.5.166,6.341,6.341,0,0,1-2.373-.475,8.744,8.744,0,0,1-2.352-1.469l-.083-.07.01-.109a12.266,12.266,0,0,1,.31-1.75c.159-.653.37-1.357.629-2.091s.563-1.5.906-2.269A25.273,25.273,0,0,1,6.24-75.771a23.4,23.4,0,0,1,1.339-2.083,12.293,12.293,0,0,1,1.494-1.728A7.363,7.363,0,0,1,10.7-80.766,3.715,3.715,0,0,1,12.432-81.216ZM8.046-65.69a5.955,5.955,0,0,0,2.7-.621,5.951,5.951,0,0,0,2.131-1.851,9.555,9.555,0,0,0,1.416-3.08,16.188,16.188,0,0,0,.513-4.3,12.979,12.979,0,0,0-.14-1.865,8.049,8.049,0,0,0-.435-1.721,3.59,3.59,0,0,0-.753-1.228,1.4,1.4,0,0,0-1.048-.444,3.3,3.3,0,0,0-1.54.4,6.945,6.945,0,0,0-1.53,1.117,11.874,11.874,0,0,0-1.443,1.669A22.979,22.979,0,0,0,6.6-75.562a24.855,24.855,0,0,0-1.127,2.228c-.339.763-.64,1.516-.894,2.238s-.461,1.411-.617,2.051a12.261,12.261,0,0,0-.289,1.58,8.232,8.232,0,0,0,2.153,1.33A5.924,5.924,0,0,0,8.046-65.69Z" transform="translate(3.798 84.451)" fill="#fff"/>
        </g>
        <path id="Intel" d="M14.586-138.868c0-.436-.021-1.234-.063-1.545a1.576,1.576,0,0,0-.285-.759,1.251,1.251,0,0,0-.633-.425,3.668,3.668,0,0,0-1.093-.132q-.459,0-1.128.049t-1.392.16l-.139-1.155q2.046-.529,3.515-.78a14.972,14.972,0,0,1,2.429-.251,3.276,3.276,0,0,1,1.413.244,1.523,1.523,0,0,1,.724.724,3.16,3.16,0,0,1,.271,1.176q.042.7.042,1.587,0,.306-.035,1.636t-.1,3.41q-.063,2.081-.146,4.782t-.174,5.742q-.09,3.042-.188,6.285t-.195,6.417l-3.3.418-.251.114c.111-2.663.211-5.327.3-7.707s.165-4.7.23-6.946.114-4.478.146-6.682S14.586-136.548,14.586-138.868ZM25.8-127.711a4.675,4.675,0,0,0-.084-.96,1.559,1.559,0,0,0-.258-.619.955.955,0,0,0-.438-.327,1.812,1.812,0,0,0-.626-.1,6.242,6.242,0,0,0-1.2.139q-.7.139-1.587.376l-.209-1q.988-.348,1.9-.633t1.677-.494q.766-.209,1.35-.32a5.23,5.23,0,0,1,.919-.111,1.647,1.647,0,0,1,1.26.48,2.386,2.386,0,0,1,.452,1.65q0,.139-.028.647t-.077,1.288q-.049.78-.118,1.789t-.16,2.151q-.09,1.141-.2,2.359t-.237,2.429l.084.014a38.906,38.906,0,0,1,2.269-6.062,21.055,21.055,0,0,1,2.464-4.009,8.854,8.854,0,0,1,2.492-2.22,4.917,4.917,0,0,1,2.366-.682,3.978,3.978,0,0,1,1.5.292,3.409,3.409,0,0,1,1.288.933,4.7,4.7,0,0,1,.9,1.65,7.828,7.828,0,0,1,.334,2.443q0,.418-.049,1.121t-.118,1.566q-.07.863-.16,1.83t-.16,1.9q-.07.933-.118,1.775t-.049,1.469a13.95,13.95,0,0,0,.09,1.768,3.279,3.279,0,0,0,.3,1.079,1.125,1.125,0,0,0,.557.543,2.193,2.193,0,0,0,.849.146,5.992,5.992,0,0,0,1.5-.2,9.576,9.576,0,0,0,1.573-.564l.264.724a8.587,8.587,0,0,1-1.267.821,16.566,16.566,0,0,1-1.608.766,12.727,12.727,0,0,1-1.677.564,5.99,5.99,0,0,1-1.476.216,1.663,1.663,0,0,1-1.183-.4,2.47,2.47,0,0,1-.647-1.1,7.15,7.15,0,0,1-.278-1.629q-.063-.933-.063-2,0-1.308.09-2.694t.2-2.638q.111-1.253.2-2.276t.09-1.636a3.847,3.847,0,0,0-.612-2.4,1.974,1.974,0,0,0-1.629-.773,2.836,2.836,0,0,0-1.7.682,9.383,9.383,0,0,0-1.775,1.872,19.074,19.074,0,0,0-1.7,2.812,28.96,28.96,0,0,0-1.469,3.508,32.133,32.133,0,0,0-1.086,3.946,27.246,27.246,0,0,0-.543,4.12l-2.909.362-.223-.014q.111-1.322.209-2.881t.181-3.167q.084-1.608.146-3.188t.111-2.951q.049-1.371.07-2.457T25.8-127.711Zm29.023-14.228q-.585,2.645-.981,5.464t-.675,5.561q.654.028,1.274.042l1.155.028q.536.014.974.014H57.3a11.486,11.486,0,0,0,2.074-.153q.07.237.111.432a1.735,1.735,0,0,1,.042.362.753.753,0,0,1-.508.793,4.594,4.594,0,0,1-1.469.181q-.919,0-2.053-.111t-2.485-.209q-.153,1.489-.258,2.9t-.167,2.666q-.063,1.253-.09,2.325t-.028,1.865a20.658,20.658,0,0,0,.153,2.659,6.579,6.579,0,0,0,.543,1.984,2.922,2.922,0,0,0,1.072,1.246,3.174,3.174,0,0,0,1.726.432,6.163,6.163,0,0,0,1.677-.264,12.815,12.815,0,0,0,2.109-.849,1.473,1.473,0,0,1,.432.919q-.863.571-1.74,1.037a16.72,16.72,0,0,1-1.726.8,11.45,11.45,0,0,1-1.643.515,6.769,6.769,0,0,1-1.5.181,4.176,4.176,0,0,1-1.705-.341,3.113,3.113,0,0,1-1.336-1.211,7.011,7.011,0,0,1-.877-2.346,18.434,18.434,0,0,1-.313-3.731q0-1.267.042-2.61t.111-2.721q.07-1.378.181-2.756t.251-2.714q-1.1.014-2.039.09a10.113,10.113,0,0,0-1.608.244.431.431,0,0,1-.042-.195.742.742,0,0,1,.285-.55,2.732,2.732,0,0,1,.793-.466,6.541,6.541,0,0,1,1.218-.348,12.312,12.312,0,0,1,1.559-.195q.32-2.909.682-5.5t.724-4.621a1.358,1.358,0,0,1,.258-.6,1.467,1.467,0,0,1,.438-.376,1.806,1.806,0,0,1,.543-.195,3.048,3.048,0,0,1,.571-.056,3.245,3.245,0,0,1,.828.1A2.9,2.9,0,0,1,54.827-141.939Zm20.9,25.78q.084.042.216.118a1.875,1.875,0,0,1,.244.167,1.29,1.29,0,0,1,.195.195.327.327,0,0,1,.084.2.185.185,0,0,1-.042.111,11.484,11.484,0,0,1-1.677,1.886,10.33,10.33,0,0,1-1.865,1.336,8.344,8.344,0,0,1-1.97.793,7.921,7.921,0,0,1-1.977.258,6.865,6.865,0,0,1-3.062-.682,7.334,7.334,0,0,1-2.394-1.865,8.776,8.776,0,0,1-1.566-2.777,10.174,10.174,0,0,1-.564-3.417,13.85,13.85,0,0,1,.327-2.979,13.981,13.981,0,0,1,.947-2.84,13.084,13.084,0,0,1,1.51-2.513,10.56,10.56,0,0,1,2.025-2.018,9.362,9.362,0,0,1,2.492-1.343,8.568,8.568,0,0,1,2.916-.487,6.827,6.827,0,0,1,1.963.278,5.221,5.221,0,0,1,1.636.8,3.93,3.93,0,0,1,1.121,1.288,3.574,3.574,0,0,1,.418,1.74,3.644,3.644,0,0,1-.926,2.478,7.372,7.372,0,0,1-2.554,1.8,18.161,18.161,0,0,1-3.835,1.19,41.811,41.811,0,0,1-4.768.675v.237a11.077,11.077,0,0,0,.452,3.257,8.086,8.086,0,0,0,1.246,2.526,5.825,5.825,0,0,0,1.865,1.636,4.75,4.75,0,0,0,2.311.585,6.005,6.005,0,0,0,2.568-.619A9.384,9.384,0,0,0,75.723-116.159Zm-2.617-11.178a3.284,3.284,0,0,0-.216-1.2,2.982,2.982,0,0,0-.6-.967,2.789,2.789,0,0,0-.912-.647,2.763,2.763,0,0,0-1.141-.237,4.084,4.084,0,0,0-1.643.32,4.573,4.573,0,0,0-1.322.87,6.113,6.113,0,0,0-1.03,1.281,9.432,9.432,0,0,0-.759,1.552,12.362,12.362,0,0,0-.508,1.684,14.15,14.15,0,0,0-.278,1.684,25,25,0,0,0,3.543-.48,11.458,11.458,0,0,0,2.645-.877,4.616,4.616,0,0,0,1.65-1.281A2.728,2.728,0,0,0,73.106-127.337Zm11.758-21.727q-.278,2.366-.55,4.851t-.515,5.025q-.244,2.54-.452,5.1t-.362,5.046q-.153,2.485-.237,4.879t-.084,4.594q0,1.378.035,2.366t.111,1.67a5.959,5.959,0,0,0,.209,1.1,1.789,1.789,0,0,0,.327.64.956.956,0,0,0,.459.3,2.268,2.268,0,0,0,.626.077,5.72,5.72,0,0,0,1.441-.2,9.662,9.662,0,0,0,1.566-.564l.264.724a8.736,8.736,0,0,1-1.26.821,16.312,16.312,0,0,1-1.594.766,13.172,13.172,0,0,1-1.636.564,5.439,5.439,0,0,1-1.385.216,1.747,1.747,0,0,1-1.19-.383,2.452,2.452,0,0,1-.668-1.246,10.928,10.928,0,0,1-.292-2.248q-.063-1.385-.063-3.376,0-.724.042-2.067t.118-3.125q.077-1.782.174-3.9t.209-4.378q.111-2.262.237-4.566t.251-4.454q.125-2.151.237-4.058t.209-3.369a1.015,1.015,0,0,1,.195-.578,1.32,1.32,0,0,1,.466-.39,2.418,2.418,0,0,1,.64-.216,3.716,3.716,0,0,1,.717-.07A4.023,4.023,0,0,1,84.864-149.064Z" transform="translate(-9.853 149.51)" fill="#fff"/>
      </g>
    </g>
  </g>
</svg>
